%TF.GenerationSoftware,Altium Limited,Altium Designer,21.4.1 (30)*%
G04 Layer_Physical_Order=2*
G04 Layer_Color=16711680*
%FSLAX45Y45*%
%MOMM*%
%TF.SameCoordinates,CCA80653-F6CA-46C6-945C-E97865854BA3*%
%TF.FilePolarity,Positive*%
%TF.FileFunction,Copper,L2,Bot,Signal*%
%TF.Part,Single*%
G01*
G75*
%TA.AperFunction,SMDPad,CuDef*%
%ADD20R,0.50000X0.60000*%
%TA.AperFunction,Conductor*%
%ADD21C,0.20000*%
%ADD22C,0.40000*%
%ADD23C,0.30000*%
%TA.AperFunction,ComponentPad*%
%ADD24C,0.70000*%
%ADD25O,2.10000X1.05000*%
%ADD26C,2.00000*%
%ADD27R,1.57000X1.57000*%
%ADD28C,1.57000*%
%ADD29C,1.70000*%
%ADD30R,1.70000X1.70000*%
%TA.AperFunction,ViaPad*%
%ADD31C,0.60000*%
%TA.AperFunction,SMDPad,CuDef*%
%ADD32R,0.90000X0.70000*%
%ADD33R,1.42000X2.13000*%
%ADD34R,0.76200X1.27000*%
%ADD35R,2.67000X2.54000*%
%ADD36R,0.50000X0.50000*%
%ADD37R,2.13000X1.42000*%
%ADD38R,0.50000X0.50000*%
%ADD39O,0.45000X1.85000*%
%ADD40R,0.60000X0.50000*%
%ADD41R,0.70000X0.90000*%
G04:AMPARAMS|DCode=42|XSize=3.15mm|YSize=1.45mm|CornerRadius=0.05075mm|HoleSize=0mm|Usage=FLASHONLY|Rotation=90.000|XOffset=0mm|YOffset=0mm|HoleType=Round|Shape=RoundedRectangle|*
%AMROUNDEDRECTD42*
21,1,3.15000,1.34850,0,0,90.0*
21,1,3.04850,1.45000,0,0,90.0*
1,1,0.10150,0.67425,1.52425*
1,1,0.10150,0.67425,-1.52425*
1,1,0.10150,-0.67425,-1.52425*
1,1,0.10150,-0.67425,1.52425*
%
%ADD42ROUNDEDRECTD42*%
G04:AMPARAMS|DCode=43|XSize=0.9mm|YSize=1.45mm|CornerRadius=0.0495mm|HoleSize=0mm|Usage=FLASHONLY|Rotation=90.000|XOffset=0mm|YOffset=0mm|HoleType=Round|Shape=RoundedRectangle|*
%AMROUNDEDRECTD43*
21,1,0.90000,1.35100,0,0,90.0*
21,1,0.80100,1.45000,0,0,90.0*
1,1,0.09900,0.67550,0.40050*
1,1,0.09900,0.67550,-0.40050*
1,1,0.09900,-0.67550,-0.40050*
1,1,0.09900,-0.67550,0.40050*
%
%ADD43ROUNDEDRECTD43*%
%TA.AperFunction,Conductor*%
%ADD44C,0.50000*%
G36*
X4054801Y1562741D02*
X4042101Y1561069D01*
X4039622Y1570318D01*
X4023824Y1597682D01*
X4001482Y1620024D01*
X3974119Y1635822D01*
X3943598Y1644000D01*
X3912002D01*
X3881482Y1635822D01*
X3854118Y1620024D01*
X3831776Y1597682D01*
X3815978Y1570318D01*
X3807800Y1539798D01*
Y1508202D01*
X3815978Y1477682D01*
X3831776Y1450318D01*
X3854118Y1427976D01*
X3881482Y1412178D01*
X3912002Y1404000D01*
X3943598D01*
X3974119Y1412178D01*
X4001482Y1427976D01*
X4023824Y1450318D01*
X4039622Y1477682D01*
X4042101Y1486931D01*
X4054801Y1485259D01*
Y38741D01*
X4042101Y37069D01*
X4039622Y46318D01*
X4023824Y73682D01*
X4001482Y96024D01*
X3974119Y111822D01*
X3943598Y120000D01*
X3912002D01*
X3881482Y111822D01*
X3854118Y96024D01*
X3831776Y73682D01*
X3815978Y46318D01*
X3807800Y15798D01*
Y-15798D01*
X3815978Y-46318D01*
X3831776Y-73682D01*
X3854118Y-96024D01*
X3881482Y-111822D01*
X3912002Y-120000D01*
X3943598D01*
X3974119Y-111822D01*
X4001482Y-96024D01*
X4023824Y-73682D01*
X4039622Y-46318D01*
X4042101Y-37069D01*
X4054801Y-38741D01*
Y-139702D01*
X-402899D01*
Y-60927D01*
X-390199Y-57524D01*
X-382023Y-71685D01*
X-359681Y-94027D01*
X-332317Y-109826D01*
X-301797Y-118004D01*
X-270201D01*
X-239680Y-109826D01*
X-212317Y-94027D01*
X-189975Y-71685D01*
X-174177Y-44322D01*
X-165999Y-13802D01*
Y17795D01*
X-174177Y48315D01*
X-189975Y75678D01*
X-212317Y98020D01*
X-239680Y113819D01*
X-270201Y121996D01*
X-301797D01*
X-332317Y113819D01*
X-359681Y98020D01*
X-382023Y75678D01*
X-390199Y61517D01*
X-402899Y64920D01*
Y280167D01*
X-390199Y284478D01*
X-386971Y280270D01*
X-371826Y268649D01*
X-354189Y261344D01*
X-335263Y258852D01*
X-230263D01*
X-211337Y261344D01*
X-193700Y268649D01*
X-178555Y280270D01*
X-166934Y295415D01*
X-159629Y313052D01*
X-157137Y331978D01*
X-159629Y350904D01*
X-166934Y368541D01*
X-178555Y383686D01*
X-193700Y395307D01*
X-211337Y402612D01*
X-230263Y405104D01*
X-335263D01*
X-354189Y402612D01*
X-371826Y395307D01*
X-386971Y383686D01*
X-390199Y379478D01*
X-402899Y383789D01*
Y1144168D01*
X-390199Y1148479D01*
X-386971Y1144272D01*
X-371826Y1132651D01*
X-354189Y1125345D01*
X-335263Y1122854D01*
X-230263D01*
X-211337Y1125345D01*
X-193700Y1132651D01*
X-178555Y1144272D01*
X-166934Y1159417D01*
X-159629Y1177053D01*
X-157137Y1195979D01*
X-159629Y1214906D01*
X-166934Y1232542D01*
X-178555Y1247687D01*
X-193700Y1259308D01*
X-211337Y1266613D01*
X-230263Y1269105D01*
X-335263D01*
X-354189Y1266613D01*
X-371826Y1259308D01*
X-386971Y1247687D01*
X-390199Y1243479D01*
X-402899Y1247790D01*
Y1459075D01*
X-390199Y1462478D01*
X-382023Y1448317D01*
X-359681Y1425975D01*
X-332317Y1410176D01*
X-301797Y1401998D01*
X-270201D01*
X-239680Y1410176D01*
X-212317Y1425975D01*
X-189975Y1448317D01*
X-174177Y1475680D01*
X-165999Y1506200D01*
Y1537797D01*
X-174177Y1568317D01*
X-189975Y1595680D01*
X-212317Y1618022D01*
X-239680Y1633821D01*
X-270201Y1641998D01*
X-301797D01*
X-332317Y1633821D01*
X-359681Y1618022D01*
X-382023Y1595680D01*
X-390199Y1581519D01*
X-402899Y1584922D01*
Y1663698D01*
X332458D01*
X337719Y1650998D01*
X337472Y1650752D01*
X337428Y1650685D01*
X298683Y1611940D01*
X292019Y1615787D01*
X266968Y1622500D01*
X241032D01*
X215981Y1615787D01*
X193520Y1602820D01*
X175180Y1584480D01*
X162213Y1562019D01*
X155500Y1536968D01*
Y1511032D01*
X162213Y1485981D01*
X175180Y1463520D01*
X180879Y1457821D01*
X176019Y1446088D01*
X121170D01*
X87940Y1479317D01*
X91787Y1485981D01*
X98500Y1511032D01*
Y1536968D01*
X91787Y1562019D01*
X78820Y1584480D01*
X60480Y1602820D01*
X38019Y1615787D01*
X12968Y1622500D01*
X-12968D01*
X-38019Y1615787D01*
X-60480Y1602820D01*
X-78820Y1584480D01*
X-91787Y1562019D01*
X-98500Y1536968D01*
Y1511032D01*
X-91787Y1485981D01*
X-78820Y1463520D01*
X-60480Y1445180D01*
X-38019Y1432213D01*
X-12968Y1425500D01*
X12968D01*
X38019Y1432213D01*
X44683Y1436060D01*
X66425Y1414317D01*
X61565Y1402584D01*
X24219D01*
X12513Y1400256D01*
X2590Y1393625D01*
X-99408Y1291627D01*
X-106038Y1281704D01*
X-108367Y1269998D01*
X-108367Y1269997D01*
Y1117568D01*
X-206088Y1019847D01*
X-212718Y1009924D01*
X-215047Y998218D01*
X-215047Y998217D01*
Y840738D01*
Y690459D01*
X-215047Y690458D01*
X-212718Y678752D01*
X-206088Y668829D01*
X-161671Y624412D01*
Y556258D01*
X-160119Y548455D01*
X-155698Y541839D01*
X-149083Y537419D01*
X-141279Y535867D01*
X52325D01*
X54851Y523167D01*
X51085Y521607D01*
X35614Y506135D01*
X27240Y485920D01*
Y464040D01*
X35614Y443825D01*
X51085Y428353D01*
X71300Y419980D01*
X93180D01*
X113395Y428353D01*
X128867Y443825D01*
X137240Y464040D01*
Y485920D01*
X128867Y506135D01*
X113395Y521607D01*
X109629Y523167D01*
X112155Y535867D01*
X282901D01*
X283567Y535999D01*
X300500D01*
Y546598D01*
X301741Y548455D01*
X303293Y556258D01*
Y698498D01*
X301741Y706302D01*
X300500Y708159D01*
Y717999D01*
X287383D01*
X282901Y718890D01*
X54301D01*
X49819Y717999D01*
X47500D01*
Y717538D01*
X46497Y717338D01*
X39882Y712918D01*
X35461Y706302D01*
X33909Y698498D01*
Y668090D01*
X-118834D01*
X-153871Y703128D01*
Y810151D01*
X-23922D01*
X-12122Y798350D01*
X6255Y790739D01*
X26147D01*
X44524Y798350D01*
X58589Y812416D01*
X66201Y830793D01*
Y850684D01*
X58589Y869061D01*
X44524Y883127D01*
X26147Y890738D01*
X6255D01*
X-12122Y883127D01*
X-23922Y871326D01*
X-153871D01*
Y985548D01*
X-56151Y1083269D01*
X-56150Y1083270D01*
X-49520Y1093193D01*
X-47191Y1104898D01*
X-47191Y1104900D01*
Y1257328D01*
X36889Y1341409D01*
X433614D01*
X438874Y1328709D01*
X364553Y1254387D01*
X355712Y1241156D01*
X352607Y1225549D01*
X352608Y1225547D01*
Y403650D01*
X272574Y323617D01*
X260546Y329549D01*
X260865Y331978D01*
X258374Y350904D01*
X251068Y368541D01*
X239447Y383686D01*
X224303Y395307D01*
X206666Y402612D01*
X187740Y405104D01*
X82740D01*
X63813Y402612D01*
X46177Y395307D01*
X31032Y383686D01*
X19411Y368541D01*
X12106Y350904D01*
X9614Y331978D01*
X12106Y313052D01*
X19411Y295415D01*
X31032Y280270D01*
X46177Y268649D01*
X63813Y261344D01*
X82740Y258852D01*
X187740D01*
X202951Y260855D01*
X211368Y254300D01*
X213855Y250575D01*
X213216Y247366D01*
X213216Y247365D01*
Y90191D01*
X193520Y78820D01*
X175180Y60480D01*
X162213Y38019D01*
X155500Y12968D01*
Y-12968D01*
X162213Y-38019D01*
X175180Y-60480D01*
X193520Y-78820D01*
X215981Y-91787D01*
X241032Y-98500D01*
X266968D01*
X292019Y-91787D01*
X314480Y-78820D01*
X332820Y-60480D01*
X345787Y-38019D01*
X352500Y-12968D01*
Y12968D01*
X345787Y38019D01*
X332820Y60480D01*
X314480Y78820D01*
X294784Y90191D01*
Y230473D01*
X422229Y357919D01*
X422230Y357919D01*
X431070Y371150D01*
X434175Y386757D01*
X434175Y386759D01*
Y1208655D01*
X448996Y1223477D01*
X460700Y1217221D01*
X458170Y1204501D01*
Y1064501D01*
X461469Y1047918D01*
X463115Y1045454D01*
Y685798D01*
X465832Y672142D01*
X473567Y660565D01*
X498967Y635165D01*
X510545Y627429D01*
X524201Y624713D01*
X870176D01*
X876878Y618010D01*
X895255Y610399D01*
X915147D01*
X933524Y618010D01*
X947589Y632076D01*
X955201Y650453D01*
Y670344D01*
X947589Y688721D01*
X933524Y702787D01*
X915147Y710398D01*
X895255D01*
X876878Y702787D01*
X870176Y696084D01*
X538982D01*
X534487Y700580D01*
Y861085D01*
X547187Y866345D01*
X578468Y835064D01*
X590046Y827328D01*
X603702Y824612D01*
X866875D01*
X873577Y817909D01*
X891954Y810297D01*
X911845D01*
X930222Y817909D01*
X944288Y831974D01*
X948890Y843085D01*
X963633Y846303D01*
X1036135Y773801D01*
X1036136Y773800D01*
X1049367Y764959D01*
X1064974Y761855D01*
X1091767D01*
X1095338Y755300D01*
X1096366Y749155D01*
X1050102Y702891D01*
X1041261Y689660D01*
X1038156Y674052D01*
X1038156Y674051D01*
Y515667D01*
X1038156Y515666D01*
X1038819Y512336D01*
X1028018Y501535D01*
X1021502Y502831D01*
X1004919Y499533D01*
X990861Y490139D01*
X981468Y476082D01*
X978169Y459499D01*
Y319499D01*
X981468Y302916D01*
X990861Y288858D01*
X1004919Y279465D01*
X1021502Y276166D01*
X1038084Y279465D01*
X1052142Y288858D01*
X1055860D01*
X1069918Y279465D01*
X1086500Y276166D01*
X1103083Y279465D01*
X1117141Y288858D01*
X1120859D01*
X1134916Y279465D01*
X1151499Y276166D01*
X1168081Y279465D01*
X1182139Y288858D01*
X1185862D01*
X1199920Y279465D01*
X1216503Y276166D01*
X1227829Y278419D01*
X1240530Y270327D01*
Y258360D01*
X1236120D01*
Y188948D01*
X877013D01*
X871381Y194580D01*
Y200444D01*
X863769Y218821D01*
X849704Y232887D01*
X831327Y240498D01*
X811435D01*
X793058Y232887D01*
X778993Y218821D01*
X771381Y200444D01*
Y180553D01*
X778993Y162176D01*
X789381Y151788D01*
X784181Y139088D01*
X661385D01*
X630389Y170084D01*
X632621Y175473D01*
Y195364D01*
X625009Y213741D01*
X610944Y227807D01*
X592567Y235418D01*
X572675D01*
X554298Y227807D01*
X553131Y226640D01*
X541398Y231500D01*
Y258198D01*
X411398D01*
Y148199D01*
X430517D01*
Y63262D01*
X430756Y62056D01*
X429180Y60480D01*
X416213Y38019D01*
X409500Y12968D01*
Y-12968D01*
X416213Y-38019D01*
X429180Y-60480D01*
X447520Y-78820D01*
X469981Y-91787D01*
X495032Y-98500D01*
X520968D01*
X546019Y-91787D01*
X568480Y-78820D01*
X586820Y-60480D01*
X599787Y-38019D01*
X606500Y-12968D01*
Y12968D01*
X599787Y38019D01*
X586820Y60480D01*
X568480Y78820D01*
X546019Y91787D01*
X522280Y98148D01*
Y148199D01*
X541397D01*
X541398Y148198D01*
Y148198D01*
X552870Y144459D01*
X554298Y143030D01*
X572675Y135419D01*
X578539D01*
X627086Y86872D01*
X627087Y86871D01*
X637010Y80241D01*
X648715Y77912D01*
X648717Y77912D01*
X684019D01*
X688879Y66179D01*
X683180Y60480D01*
X670213Y38019D01*
X663500Y12968D01*
Y-12968D01*
X670213Y-38019D01*
X683180Y-60480D01*
X701520Y-78820D01*
X723981Y-91787D01*
X749032Y-98500D01*
X774968D01*
X800019Y-91787D01*
X822480Y-78820D01*
X840820Y-60480D01*
X853787Y-38019D01*
X860500Y-12968D01*
Y12968D01*
X853787Y38019D01*
X840820Y60480D01*
X835121Y66179D01*
X839981Y77912D01*
X938019D01*
X942879Y66179D01*
X937180Y60480D01*
X924213Y38019D01*
X917500Y12968D01*
Y-12968D01*
X924213Y-38019D01*
X937180Y-60480D01*
X955520Y-78820D01*
X977981Y-91787D01*
X1003032Y-98500D01*
X1028968D01*
X1054019Y-91787D01*
X1076480Y-78820D01*
X1094820Y-60480D01*
X1107787Y-38019D01*
X1114500Y-12968D01*
Y12968D01*
X1107787Y38019D01*
X1094820Y60480D01*
X1089121Y66179D01*
X1093981Y77912D01*
X1192019D01*
X1196879Y66179D01*
X1191180Y60480D01*
X1178213Y38019D01*
X1171500Y12968D01*
Y-12968D01*
X1178213Y-38019D01*
X1191180Y-60480D01*
X1209520Y-78820D01*
X1231981Y-91787D01*
X1257032Y-98500D01*
X1282968D01*
X1308019Y-91787D01*
X1330480Y-78820D01*
X1348820Y-60480D01*
X1361787Y-38019D01*
X1368500Y-12968D01*
Y12968D01*
X1361787Y38019D01*
X1348820Y60480D01*
X1343121Y66179D01*
X1347981Y77912D01*
X1446019D01*
X1450879Y66179D01*
X1445180Y60480D01*
X1432213Y38019D01*
X1425500Y12968D01*
Y-12968D01*
X1432213Y-38019D01*
X1445180Y-60480D01*
X1463520Y-78820D01*
X1485981Y-91787D01*
X1511032Y-98500D01*
X1536968D01*
X1562019Y-91787D01*
X1584480Y-78820D01*
X1602820Y-60480D01*
X1615787Y-38019D01*
X1622500Y-12968D01*
Y12968D01*
X1615787Y38019D01*
X1602820Y60480D01*
X1597121Y66179D01*
X1601981Y77912D01*
X1700019D01*
X1704879Y66179D01*
X1699180Y60480D01*
X1686213Y38019D01*
X1679500Y12968D01*
Y-12968D01*
X1686213Y-38019D01*
X1699180Y-60480D01*
X1717520Y-78820D01*
X1739981Y-91787D01*
X1765032Y-98500D01*
X1790968D01*
X1816019Y-91787D01*
X1838480Y-78820D01*
X1856820Y-60480D01*
X1869787Y-38019D01*
X1876500Y-12968D01*
Y12968D01*
X1869787Y38019D01*
X1856820Y60480D01*
X1851121Y66179D01*
X1855981Y77912D01*
X1954019D01*
X1958879Y66179D01*
X1953180Y60480D01*
X1940213Y38019D01*
X1933500Y12968D01*
Y-12968D01*
X1940213Y-38019D01*
X1953180Y-60480D01*
X1971520Y-78820D01*
X1993981Y-91787D01*
X2019032Y-98500D01*
X2044968D01*
X2070019Y-91787D01*
X2092480Y-78820D01*
X2110820Y-60480D01*
X2123787Y-38019D01*
X2130500Y-12968D01*
Y12968D01*
X2123787Y38019D01*
X2110820Y60480D01*
X2105121Y66179D01*
X2109981Y77912D01*
X2164830D01*
X2198060Y44683D01*
X2194213Y38019D01*
X2187500Y12968D01*
Y-12968D01*
X2194213Y-38019D01*
X2207180Y-60480D01*
X2225520Y-78820D01*
X2247981Y-91787D01*
X2273032Y-98500D01*
X2298968D01*
X2324019Y-91787D01*
X2346480Y-78820D01*
X2364820Y-60480D01*
X2377787Y-38019D01*
X2384500Y-12968D01*
Y12968D01*
X2377787Y38019D01*
X2364820Y60480D01*
X2346480Y78820D01*
X2324019Y91787D01*
X2298968Y98500D01*
X2273032D01*
X2247981Y91787D01*
X2241317Y87940D01*
X2213219Y116039D01*
X2218079Y127772D01*
X2368970D01*
X2452060Y44683D01*
X2448213Y38019D01*
X2441500Y12968D01*
Y-12968D01*
X2448213Y-38019D01*
X2461180Y-60480D01*
X2479520Y-78820D01*
X2501981Y-91787D01*
X2527032Y-98500D01*
X2552968D01*
X2578019Y-91787D01*
X2600480Y-78820D01*
X2618820Y-60480D01*
X2631787Y-38019D01*
X2638500Y-12968D01*
Y12968D01*
X2631787Y38019D01*
X2618820Y60480D01*
X2600480Y78820D01*
X2578019Y91787D01*
X2552968Y98500D01*
X2527032D01*
X2501981Y91787D01*
X2495317Y87940D01*
X2403269Y179989D01*
X2393345Y186619D01*
X2381640Y188948D01*
X2381639Y188948D01*
X2100935D01*
X2094749Y201648D01*
X2100741Y216113D01*
Y236004D01*
X2093129Y254381D01*
X2080059Y267452D01*
Y280199D01*
X2093201D01*
Y373911D01*
X2113203D01*
Y280199D01*
X2203203D01*
Y304691D01*
X2226518D01*
X2238318Y292890D01*
X2256695Y285279D01*
X2276587D01*
X2294964Y292890D01*
X2309029Y306956D01*
X2316641Y325333D01*
Y345224D01*
X2309029Y363601D01*
X2294964Y377667D01*
X2278638Y384429D01*
X2273260Y397012D01*
X2339070Y462821D01*
X2345700Y472745D01*
X2348029Y484450D01*
X2348029Y484451D01*
Y564395D01*
X2359829Y576196D01*
X2367441Y594573D01*
Y614464D01*
X2359829Y632841D01*
X2351080Y641590D01*
X2349562Y658033D01*
X2354085Y662556D01*
X2361697Y680933D01*
Y700824D01*
X2354085Y719201D01*
X2340020Y733267D01*
X2336731Y734629D01*
X2336095Y737117D01*
X2335197Y749719D01*
X2348428Y758560D01*
X2372179Y782312D01*
X2372180Y782312D01*
X2381021Y795543D01*
X2384125Y811151D01*
Y963160D01*
X2485021D01*
Y1051416D01*
X2605900D01*
Y945200D01*
X2855223D01*
X2950366Y850057D01*
X2945506Y838324D01*
X2534640D01*
X2520984Y835608D01*
X2509407Y827872D01*
X2473533Y791999D01*
X2424001D01*
Y701999D01*
X2524001D01*
Y741531D01*
X2549422Y766953D01*
X2956399D01*
X3038675Y684676D01*
Y657324D01*
X3031973Y650621D01*
X3024361Y632244D01*
Y612353D01*
X3027083Y605782D01*
X3018596Y593082D01*
X2749491D01*
Y724423D01*
X2747545Y734207D01*
X2742003Y742501D01*
X2733709Y748043D01*
X2723925Y749989D01*
X2589075D01*
X2579291Y748043D01*
X2570997Y742501D01*
X2565455Y734207D01*
X2563508Y724423D01*
Y677780D01*
X2524001D01*
Y681996D01*
X2424001D01*
Y591997D01*
X2524001D01*
Y596213D01*
X2563508D01*
Y527783D01*
X2529001D01*
Y551999D01*
X2419001D01*
Y421999D01*
X2529001D01*
Y446216D01*
X2563508D01*
Y419573D01*
X2565455Y409789D01*
X2570997Y401495D01*
X2579291Y395953D01*
X2589075Y394007D01*
X2619557D01*
Y133660D01*
X2619557Y133659D01*
X2622662Y118052D01*
X2631502Y104821D01*
X2701387Y34937D01*
X2695500Y12968D01*
Y-12968D01*
X2702213Y-38019D01*
X2715180Y-60480D01*
X2733520Y-78820D01*
X2755981Y-91787D01*
X2781032Y-98500D01*
X2806968D01*
X2832019Y-91787D01*
X2854480Y-78820D01*
X2872820Y-60480D01*
X2885787Y-38019D01*
X2892500Y-12968D01*
Y12968D01*
X2885787Y38019D01*
X2872820Y60480D01*
X2854480Y78820D01*
X2832019Y91787D01*
X2806968Y98500D01*
X2781032D01*
X2759063Y92613D01*
X2701124Y150552D01*
Y394007D01*
X2723925D01*
X2733709Y395953D01*
X2742003Y401495D01*
X2747545Y409789D01*
X2749491Y419573D01*
Y511515D01*
X3189621D01*
X3194215Y508446D01*
X3203950Y506509D01*
X3335422D01*
X3340733Y497439D01*
X3341356Y494087D01*
X3336527Y487786D01*
X3178502D01*
X3178501Y487786D01*
X3166796Y485458D01*
X3156872Y478827D01*
X3026371Y348326D01*
X3019741Y338403D01*
X3017412Y326698D01*
X3017412Y326696D01*
Y93779D01*
X3009981Y91787D01*
X2987520Y78820D01*
X2969180Y60480D01*
X2956213Y38019D01*
X2949500Y12968D01*
Y-12968D01*
X2956213Y-38019D01*
X2969180Y-60480D01*
X2987520Y-78820D01*
X3009981Y-91787D01*
X3035032Y-98500D01*
X3060968D01*
X3086019Y-91787D01*
X3108480Y-78820D01*
X3126820Y-60480D01*
X3139787Y-38019D01*
X3146500Y-12968D01*
Y12968D01*
X3139787Y38019D01*
X3126820Y60480D01*
X3108480Y78820D01*
X3086019Y91787D01*
X3078588Y93779D01*
Y314028D01*
X3191171Y426611D01*
X3337630D01*
X3343224Y419485D01*
X3340626Y412018D01*
X3337740Y407489D01*
X3203950D01*
X3194215Y405553D01*
X3185962Y400039D01*
X3180448Y391786D01*
X3178511Y382051D01*
Y301951D01*
X3180448Y292216D01*
X3185962Y283963D01*
X3194215Y278449D01*
X3203950Y276512D01*
X3339050D01*
X3348785Y278449D01*
X3357037Y283963D01*
X3362552Y292216D01*
X3363328Y296119D01*
X3397572D01*
X3493299Y200392D01*
Y98500D01*
X3457500D01*
Y-98500D01*
X3654500D01*
Y98500D01*
X3585062D01*
Y219397D01*
X3581570Y236955D01*
X3571624Y251840D01*
X3543207Y280258D01*
X3548067Y291991D01*
X3984664D01*
X3984665Y291991D01*
X3996370Y294319D01*
X4006294Y300950D01*
X4018009Y312665D01*
X4018010Y312665D01*
X4024640Y322589D01*
X4026969Y334294D01*
X4026969Y334295D01*
Y894077D01*
X4026969Y894078D01*
X4024640Y905784D01*
X4018010Y915707D01*
X4018009Y915708D01*
X3967159Y966558D01*
X3972305Y975470D01*
X3979461Y1002175D01*
Y1029822D01*
X3972305Y1056527D01*
X3958482Y1080470D01*
X3938932Y1100019D01*
X3914989Y1113843D01*
X3888284Y1120998D01*
X3860637D01*
X3839903Y1115443D01*
X3656784Y1298562D01*
X3641899Y1308508D01*
X3624341Y1312000D01*
X3516246D01*
X3507760Y1324700D01*
X3510441Y1331173D01*
Y1351064D01*
X3502829Y1369441D01*
X3488764Y1383507D01*
X3470387Y1391118D01*
X3464522D01*
X3384956Y1470685D01*
X3393787Y1485981D01*
X3400500Y1511032D01*
Y1536968D01*
X3393787Y1562019D01*
X3380820Y1584480D01*
X3367749Y1597551D01*
X3373010Y1610251D01*
X3457500D01*
Y1425500D01*
X3654500D01*
Y1565075D01*
X3666233Y1569935D01*
X3729573Y1506595D01*
Y1376162D01*
X3717773Y1364361D01*
X3710161Y1345984D01*
Y1326093D01*
X3717773Y1307716D01*
X3731838Y1293650D01*
X3750215Y1286039D01*
X3770107D01*
X3788484Y1293650D01*
X3802549Y1307716D01*
X3810161Y1326093D01*
Y1345984D01*
X3802549Y1364361D01*
X3790749Y1376162D01*
Y1519265D01*
X3788420Y1530971D01*
X3781790Y1540894D01*
X3671685Y1650998D01*
X3676946Y1663698D01*
X4054801D01*
Y1562741D01*
D02*
G37*
G36*
X870609Y1329675D02*
X798619Y1257686D01*
X793262Y1249668D01*
X778657Y1244729D01*
X776893Y1244772D01*
X761502Y1247834D01*
X744920Y1244535D01*
X730862Y1235142D01*
X721468Y1221084D01*
X718170Y1204501D01*
Y1064501D01*
X721468Y1047918D01*
X730862Y1033861D01*
X744920Y1024467D01*
X761502Y1021169D01*
X776893Y1024230D01*
X778657Y1024274D01*
X793262Y1019334D01*
X798619Y1011317D01*
X887905Y922031D01*
X884688Y907287D01*
X873577Y902685D01*
X866875Y895983D01*
X618484D01*
X602187Y912280D01*
Y1019502D01*
X613388Y1025489D01*
X614917Y1024467D01*
X631500Y1021169D01*
X648083Y1024467D01*
X662140Y1033861D01*
X671534Y1047918D01*
X674832Y1064501D01*
Y1204501D01*
X673240Y1212507D01*
Y1221728D01*
X675006Y1230608D01*
Y1263100D01*
X679223D01*
Y1341409D01*
X865748D01*
X870609Y1329675D01*
D02*
G37*
G36*
X2302237Y1237685D02*
Y1140661D01*
X2302237Y1140660D01*
X2303021Y1136719D01*
Y1041310D01*
X2302558Y1038981D01*
X2302558Y1038979D01*
Y1033269D01*
X2289858Y1024783D01*
X2283288Y1027504D01*
X2263396D01*
X2245019Y1019893D01*
X2230954Y1005827D01*
X2223342Y987450D01*
Y970762D01*
X2217566Y964986D01*
X1914131D01*
X1911605Y977686D01*
X1923562Y982639D01*
X1937627Y996704D01*
X1945239Y1015081D01*
Y1034973D01*
X1937627Y1053350D01*
X1923562Y1067415D01*
X1905185Y1075027D01*
X1885294D01*
X1866917Y1067415D01*
X1865312Y1065810D01*
X1546137D01*
X1520064Y1091883D01*
Y1281213D01*
X2258710D01*
X2302237Y1237685D01*
D02*
G37*
G36*
X3470493Y835688D02*
Y657860D01*
X3470493Y657858D01*
X3472822Y646153D01*
X3479452Y636230D01*
X3508480Y607202D01*
X3503219Y594502D01*
X3364488D01*
Y612048D01*
X3362552Y621783D01*
X3357037Y630036D01*
X3348785Y635550D01*
X3339050Y637486D01*
X3259783D01*
Y639101D01*
X3256679Y654708D01*
X3247838Y667939D01*
X3247837Y667939D01*
X2912900Y1002877D01*
Y1238161D01*
X2922615Y1246407D01*
X2963915Y1205107D01*
Y1175700D01*
X2936403D01*
Y1008700D01*
X3052602D01*
Y1175700D01*
X3025090D01*
Y1217777D01*
X3022762Y1229482D01*
X3016131Y1239406D01*
X2882358Y1373179D01*
X2887218Y1384912D01*
X2921269D01*
X3470493Y835688D01*
D02*
G37*
G36*
X1438497Y1074991D02*
X1438497Y1074990D01*
X1441602Y1059383D01*
X1450442Y1046152D01*
X1500405Y996189D01*
X1513637Y987348D01*
X1529244Y984243D01*
X1529245Y984243D01*
X1865312D01*
X1866917Y982639D01*
X1878874Y977686D01*
X1876348Y964986D01*
X1854921D01*
X1851966Y964398D01*
X1794921D01*
Y864399D01*
X1841830D01*
X1846690Y852665D01*
X1818292Y824267D01*
X1811662Y814344D01*
X1809333Y802639D01*
X1800847Y794218D01*
X1794921D01*
Y694219D01*
X1884921D01*
Y794218D01*
X1884921D01*
X1881944Y801404D01*
X1933871Y853331D01*
X2108931D01*
X2113198Y842398D01*
X2113198D01*
Y732399D01*
X2137415D01*
Y715398D01*
X2113198D01*
Y605399D01*
X2117420D01*
Y557998D01*
X2113203D01*
Y475086D01*
X2093201D01*
Y557998D01*
X2036157D01*
X2033201Y558586D01*
X2030245Y557998D01*
X2003201D01*
Y552770D01*
X1990501Y547509D01*
X1982544Y555467D01*
X1964167Y563078D01*
X1944275D01*
X1925898Y555467D01*
X1911833Y541401D01*
X1904221Y523024D01*
Y503133D01*
X1906698Y497152D01*
X1898964Y482807D01*
X1894041Y481896D01*
X1870509Y505429D01*
Y521499D01*
X1884921D01*
Y621498D01*
X1794921D01*
Y521499D01*
X1809333D01*
Y492760D01*
X1809333Y492759D01*
X1811662Y481053D01*
X1818292Y471130D01*
X1836530Y452892D01*
X1831670Y441158D01*
X1814000D01*
X1813178Y445290D01*
X1806547Y455213D01*
X1806547Y455214D01*
X1767693Y494067D01*
X1757770Y500698D01*
X1746065Y503026D01*
X1746063Y503026D01*
X1496991D01*
X1455150Y544867D01*
X1445226Y551498D01*
X1433521Y553826D01*
X1433520Y553826D01*
X1355833D01*
X1353753Y557749D01*
X1351939Y566526D01*
X1364149Y578736D01*
X1371761Y597113D01*
Y617004D01*
X1364149Y635381D01*
X1350084Y649447D01*
X1331707Y657058D01*
X1324026D01*
X1311783Y669301D01*
X1316643Y681035D01*
X1365368D01*
X1502002Y544401D01*
X1502003Y544400D01*
X1515234Y535559D01*
X1530841Y532455D01*
X1684919D01*
Y521499D01*
X1774918D01*
Y621498D01*
X1684919D01*
Y614022D01*
X1547734D01*
X1501954Y659802D01*
X1506814Y671535D01*
X1698017D01*
X1698019Y671535D01*
X1713626Y674639D01*
X1726857Y683480D01*
X1737595Y694219D01*
X1774918D01*
Y794218D01*
X1684919D01*
Y756895D01*
X1681126Y753102D01*
X1493506D01*
X1366487Y880121D01*
X1371348Y891855D01*
X1401434D01*
X1407728Y885561D01*
X1407728Y885560D01*
X1420960Y876719D01*
X1436567Y873615D01*
X1436568Y873615D01*
X1684919D01*
Y864399D01*
X1774918D01*
Y964398D01*
X1684919D01*
Y955182D01*
X1453460D01*
X1447166Y961477D01*
X1433934Y970317D01*
X1418327Y973422D01*
X1418326Y973422D01*
X1146868D01*
X1107006Y1013284D01*
X1109497Y1028753D01*
X1117141Y1033861D01*
X1126534Y1047918D01*
X1129833Y1064501D01*
Y1204501D01*
X1126534Y1221084D01*
X1117141Y1235142D01*
X1103083Y1244535D01*
X1086500Y1247834D01*
X1069918Y1244535D01*
X1063849Y1240480D01*
X1054001Y1235990D01*
X1044153Y1240480D01*
X1038084Y1244535D01*
X1021502Y1247834D01*
X1004919Y1244535D01*
X998851Y1240480D01*
X989002Y1235990D01*
X979154Y1240480D01*
X973086Y1244535D01*
X956503Y1247834D01*
X939920Y1244535D01*
X925863Y1235142D01*
X916469Y1221084D01*
X913171Y1204501D01*
Y1064501D01*
X916469Y1047918D01*
X916676Y1047609D01*
Y1026574D01*
X903976Y1021313D01*
X868333Y1056957D01*
X869833Y1064501D01*
Y1204501D01*
X868333Y1212046D01*
X937500Y1281213D01*
X1438497D01*
Y1074991D01*
D02*
G37*
G36*
X2982251Y1597551D02*
X2969180Y1584480D01*
X2956213Y1562019D01*
X2949500Y1536968D01*
Y1511032D01*
X2956213Y1485981D01*
X2969180Y1463520D01*
X2987520Y1445180D01*
X3009981Y1432213D01*
X3035032Y1425500D01*
X3060968D01*
X3077251Y1429863D01*
X3273438Y1233675D01*
X3288323Y1223730D01*
X3305881Y1220237D01*
X3399556D01*
X3408042Y1207537D01*
X3405361Y1201064D01*
Y1181173D01*
X3412973Y1162796D01*
X3427038Y1148731D01*
X3445415Y1141119D01*
X3465307D01*
X3483684Y1148731D01*
X3492099Y1157147D01*
X3598690D01*
X3709253Y1046583D01*
Y896620D01*
X3709253Y896618D01*
X3711582Y884913D01*
X3718212Y874990D01*
X3781762Y811439D01*
X3776617Y802527D01*
X3769461Y775822D01*
Y748175D01*
X3776617Y721470D01*
X3790440Y697527D01*
X3809990Y677978D01*
X3833932Y664154D01*
X3860637Y656999D01*
X3888284D01*
X3914989Y664154D01*
X3938932Y677978D01*
X3953093Y692139D01*
X3965793Y686878D01*
Y612998D01*
X3812719D01*
X3781090Y644627D01*
X3771166Y651258D01*
X3759461Y653586D01*
X3759460Y653586D01*
X3668085D01*
X3664682Y666286D01*
X3684932Y677978D01*
X3704482Y697527D01*
X3718305Y721470D01*
X3725461Y748175D01*
Y775822D01*
X3718305Y802527D01*
X3704482Y826470D01*
X3684932Y846019D01*
X3660989Y859843D01*
X3634284Y866998D01*
X3606637D01*
X3579932Y859843D01*
X3555990Y846019D01*
X3544369Y834398D01*
X3531669Y839659D01*
Y848357D01*
X3531669Y848358D01*
X3529340Y860064D01*
X3522710Y869987D01*
X2955568Y1437129D01*
X2945645Y1443759D01*
X2933939Y1446088D01*
X2933938Y1446088D01*
X2617981D01*
X2613121Y1457821D01*
X2618820Y1463520D01*
X2631787Y1485981D01*
X2638500Y1511032D01*
Y1536968D01*
X2631787Y1562019D01*
X2618820Y1584480D01*
X2605749Y1597551D01*
X2611010Y1610251D01*
X2976990D01*
X2982251Y1597551D01*
D02*
G37*
G36*
X282901Y556258D02*
X-141279D01*
Y647698D01*
X54301D01*
Y698498D01*
X282901D01*
Y556258D01*
D02*
G37*
%LPC*%
G36*
X187740Y1269105D02*
X82740D01*
X63813Y1266613D01*
X46177Y1259308D01*
X31032Y1247687D01*
X19411Y1232542D01*
X12106Y1214906D01*
X9614Y1195979D01*
X12106Y1177053D01*
X19411Y1159417D01*
X31032Y1144272D01*
X46177Y1132651D01*
X63813Y1125345D01*
X82740Y1122854D01*
X187740D01*
X206666Y1125345D01*
X224303Y1132651D01*
X239447Y1144272D01*
X251068Y1159417D01*
X258374Y1177053D01*
X260865Y1195979D01*
X258374Y1214906D01*
X251068Y1232542D01*
X239447Y1247687D01*
X224303Y1259308D01*
X206666Y1266613D01*
X187740Y1269105D01*
D02*
G37*
G36*
X93180Y1107977D02*
X71300D01*
X51085Y1099604D01*
X35614Y1084132D01*
X27240Y1063917D01*
Y1042037D01*
X35614Y1021822D01*
X51085Y1006351D01*
X71300Y997977D01*
X93180D01*
X113395Y1006351D01*
X128867Y1021822D01*
X137240Y1042037D01*
Y1063917D01*
X128867Y1084132D01*
X113395Y1099604D01*
X93180Y1107977D01*
D02*
G37*
G36*
X891499Y502831D02*
X874917Y499533D01*
X860859Y490139D01*
X857141D01*
X843083Y499533D01*
X826501Y502831D01*
X809918Y499533D01*
X795860Y490139D01*
X792142D01*
X778085Y499533D01*
X761502Y502831D01*
X744920Y499533D01*
X730862Y490139D01*
X727144D01*
X713086Y499533D01*
X696504Y502831D01*
X679921Y499533D01*
X673849Y495476D01*
X664002Y490988D01*
X654154Y495476D01*
X648083Y499533D01*
X631500Y502831D01*
X614917Y499533D01*
X600860Y490139D01*
X597142D01*
X583084Y499533D01*
X566501Y502831D01*
X549919Y499533D01*
X535861Y490139D01*
X532143D01*
X518085Y499533D01*
X501503Y502831D01*
X484920Y499533D01*
X470862Y490139D01*
X461469Y476082D01*
X458170Y459499D01*
Y319499D01*
X461469Y302916D01*
X470862Y288858D01*
X484920Y279465D01*
X501503Y276166D01*
X518085Y279465D01*
X532143Y288858D01*
X535861D01*
X549919Y279465D01*
X566501Y276166D01*
X583084Y279465D01*
X597142Y288858D01*
X600860D01*
X614917Y279465D01*
X631500Y276166D01*
X648083Y279465D01*
X654154Y283522D01*
X664002Y288010D01*
X673849Y283522D01*
X679921Y279465D01*
X696504Y276166D01*
X713086Y279465D01*
X727144Y288858D01*
X730862D01*
X744920Y279465D01*
X761502Y276166D01*
X778085Y279465D01*
X792142Y288858D01*
X795860D01*
X809918Y279465D01*
X826501Y276166D01*
X843083Y279465D01*
X857141Y288858D01*
X860859D01*
X874917Y279465D01*
X891499Y276166D01*
X908082Y279465D01*
X922140Y288858D01*
X931533Y302916D01*
X934832Y319499D01*
Y459499D01*
X931533Y476082D01*
X922140Y490139D01*
X908082Y499533D01*
X891499Y502831D01*
D02*
G37*
G36*
X12968Y98500D02*
X-12968D01*
X-38019Y91787D01*
X-60480Y78820D01*
X-78820Y60480D01*
X-91787Y38019D01*
X-98500Y12968D01*
Y-12968D01*
X-91787Y-38019D01*
X-78820Y-60480D01*
X-60480Y-78820D01*
X-38019Y-91787D01*
X-12968Y-98500D01*
X12968D01*
X38019Y-91787D01*
X60480Y-78820D01*
X78820Y-60480D01*
X91787Y-38019D01*
X98500Y-12968D01*
Y12968D01*
X91787Y38019D01*
X78820Y60480D01*
X60480Y78820D01*
X38019Y91787D01*
X12968Y98500D01*
D02*
G37*
G36*
X1346500Y1247834D02*
X1329917Y1244535D01*
X1323849Y1240480D01*
X1314000Y1235990D01*
X1304152Y1240480D01*
X1298084Y1244535D01*
X1281501Y1247834D01*
X1264918Y1244535D01*
X1250861Y1235142D01*
X1241467Y1221084D01*
X1238169Y1204501D01*
Y1064501D01*
X1241467Y1047918D01*
X1250861Y1033861D01*
X1264918Y1024467D01*
X1281501Y1021169D01*
X1298084Y1024467D01*
X1312141Y1033861D01*
X1315859D01*
X1329917Y1024467D01*
X1346500Y1021169D01*
X1363082Y1024467D01*
X1377140Y1033861D01*
X1386534Y1047918D01*
X1389832Y1064501D01*
Y1204501D01*
X1386534Y1221084D01*
X1377140Y1235142D01*
X1363082Y1244535D01*
X1346500Y1247834D01*
D02*
G37*
%LPD*%
D20*
X1839921Y571498D02*
D03*
X1729919D02*
D03*
X1839921Y391158D02*
D03*
X1729919D02*
D03*
Y914398D02*
D03*
X1839921D02*
D03*
X1729919Y744218D02*
D03*
X1839921D02*
D03*
X2158203Y507998D02*
D03*
X2048201D02*
D03*
X1588999Y1251996D02*
D03*
X1699001D02*
D03*
X2158203Y330198D02*
D03*
X2048201D02*
D03*
D21*
X24219Y1371996D02*
X2840283D01*
X108500Y1415500D02*
X2933939D01*
X1230321Y584198D02*
Y591818D01*
Y584198D02*
X1291281Y523238D01*
X1746065Y472438D02*
X1784918Y433585D01*
X1484321Y472438D02*
X1746065D01*
X1784918Y348735D02*
X1807185Y326468D01*
X1433521Y523238D02*
X1484321Y472438D01*
X1784918Y348735D02*
Y433585D01*
X1291281Y523238D02*
X1433521D01*
X1807185Y326468D02*
X2049471D01*
Y227328D02*
Y326468D01*
X1387469Y219709D02*
X1942792D01*
X1949141Y226058D01*
X1381120Y213360D02*
X1387469Y219709D01*
X2049471Y227328D02*
X2050741Y226058D01*
X1839921Y492759D02*
X1888181Y444498D01*
X1839921Y492759D02*
Y571498D01*
X1888181Y444498D02*
X2220921D01*
X3638588Y1640838D02*
X3760161Y1519265D01*
X359101Y1629101D02*
Y1629123D01*
X370817Y1640838D02*
X3638588D01*
X254000Y1524000D02*
X359101Y1629101D01*
Y1629123D02*
X370817Y1640838D01*
X-77779Y1269998D02*
X24219Y1371996D01*
X864343Y158360D02*
X2381640D01*
X648715Y108500D02*
X2177500D01*
X2381640Y158360D02*
X2540000Y0D01*
X832205Y190498D02*
X864343Y158360D01*
X821381Y190498D02*
X832205D01*
X2840283Y1371996D02*
X2994503Y1217777D01*
X0Y1524000D02*
X108500Y1415500D01*
X2933939D02*
X3501081Y848358D01*
X2253941Y633122D02*
X2311697Y690878D01*
X2253941Y477518D02*
Y633122D01*
X1954221Y513078D02*
X2043121D01*
X2048201Y507998D01*
X3760161Y1336038D02*
Y1519265D01*
X3501081Y657858D02*
Y848358D01*
X3048000Y0D02*
Y326698D01*
X3178501Y457198D01*
X3379161D01*
X-184459Y690458D02*
Y840738D01*
Y998218D01*
Y840738D02*
X16201D01*
X2220921Y444498D02*
X2253941Y477518D01*
X2237489Y404499D02*
X2317441Y484450D01*
Y604518D01*
X-184459Y690458D02*
X-105999Y611998D01*
X-184459Y998218D02*
X-77779Y1104898D01*
X3535941Y622999D02*
X3759461D01*
X3501081Y657858D02*
X3535941Y622999D01*
X3759461D02*
X3874461Y507998D01*
Y1015998D02*
X3996381Y894078D01*
Y334294D02*
Y894078D01*
X3513781Y322578D02*
X3984665D01*
X3996381Y334294D01*
X3379161Y457198D02*
X3513781Y322578D01*
X-77779Y1104898D02*
Y1269998D01*
X2994503Y1092200D02*
Y1217777D01*
X2048201Y507998D02*
Y512998D01*
X2033201Y527998D02*
X2048201Y512998D01*
X3455361Y1191119D02*
X3458745Y1187734D01*
X3611360D02*
X3739841Y1059253D01*
X3458745Y1187734D02*
X3611360D01*
X3739841Y896618D02*
Y1059253D01*
Y896618D02*
X3874461Y761998D01*
X3460441Y1341118D02*
Y1351942D01*
X3302000Y1510383D02*
Y1524000D01*
Y1510383D02*
X3460441Y1351942D01*
X2163283Y335278D02*
X2266641D01*
X2158203Y330198D02*
X2163283Y335278D01*
X1839921Y744218D02*
Y802638D01*
X1921201Y883918D01*
X2269181D01*
X2236007Y940170D02*
X2236008D01*
X1854921Y934398D02*
X2230236D01*
X2236007Y940170D01*
X2236008D02*
X2273342Y977505D01*
X1839921Y919398D02*
X1854921Y934398D01*
X1839921Y914398D02*
Y919398D01*
X1853261Y404499D02*
X2237489D01*
X1839921Y391158D02*
X1853261Y404499D01*
X1519881Y782318D02*
X1578301Y840738D01*
X582621Y174595D02*
X648715Y108500D01*
X582621Y174595D02*
Y185418D01*
X2177500Y108500D02*
X2286000Y0D01*
D22*
X1529244Y1025027D02*
X1895239D01*
X1479281Y1074990D02*
X1529244Y1025027D01*
X1479281Y1321996D02*
X2275603D01*
X3257750Y558248D02*
X3271500Y571998D01*
X3251800D02*
X3271500D01*
X3244000Y552299D02*
X3251800D01*
X2660341D02*
Y568157D01*
X1261589Y661818D02*
X1316349Y607058D01*
X1201326Y661818D02*
X1261589D01*
X1382261Y721818D02*
X1530841Y573238D01*
X1193573Y654065D02*
X1201326Y661818D01*
X1126706Y721818D02*
X1382261D01*
X1078940Y674052D02*
X1126706Y721818D01*
X1157948Y654065D02*
X1193573D01*
X1316349Y607058D02*
X1321761D01*
X1530841Y573238D02*
X1728179D01*
X1729919Y571498D01*
X1151499Y647616D02*
X1157948Y654065D01*
X1151499Y389499D02*
Y647616D01*
X1316294Y872638D02*
X1476613Y712319D01*
X1105123Y872638D02*
X1316294D01*
X1476613Y712319D02*
X1698019D01*
X1346500Y389499D02*
X1348159Y391158D01*
X1729919D01*
X1436567Y914398D02*
X1729919D01*
X1129975Y932638D02*
X1418327D01*
X1022458Y1040155D02*
X1129975Y932638D01*
X1418327D02*
X1436567Y914398D01*
X956503Y1134501D02*
X957460Y1133545D01*
Y1020301D02*
X1105123Y872638D01*
X957460Y1020301D02*
Y1133545D01*
X1078940Y515666D02*
Y674052D01*
X1085544Y390455D02*
Y509062D01*
Y390455D02*
X1086500Y389499D01*
X1078940Y515666D02*
X1085544Y509062D01*
X1479281Y1074990D02*
Y1321996D01*
X827457Y1040155D02*
X1064974Y802638D01*
X920606Y1321996D02*
X1479281D01*
X1021502Y1134501D02*
X1022458Y1133545D01*
Y1040155D02*
Y1133545D01*
X1064974Y802638D02*
X1156661D01*
X827457Y1040155D02*
Y1133545D01*
Y1228847D02*
X920606Y1321996D01*
X826501Y1134501D02*
X827457Y1133545D01*
Y1135458D02*
Y1228847D01*
X826501Y1134501D02*
X827457Y1135458D01*
X2660341Y568157D02*
X2676199Y552299D01*
X3244000D01*
X2660341Y133659D02*
Y552299D01*
X3244000Y571998D02*
X3251800D01*
Y552299D02*
X3257750Y558248D01*
X2275603Y1321996D02*
X2343021Y1254578D01*
X2656500Y571998D02*
X2660341Y568157D01*
X2759400Y1092200D02*
X2765900D01*
X3219000Y639101D01*
Y596998D02*
Y639101D01*
Y596998D02*
X3244000Y571998D01*
X3289779Y553718D02*
X3539563D01*
X3271500Y571998D02*
X3289779Y553718D01*
X3539563D02*
X3585283Y507998D01*
X3620461D01*
X2833061Y1165861D02*
Y1259838D01*
X2759400Y1092200D02*
X2833061Y1165861D01*
X475942Y1308100D02*
X634223D01*
X631500Y1134501D02*
X632456Y1133545D01*
X393391Y1225549D02*
X475942Y1308100D01*
X254000Y247366D02*
X393391Y386757D01*
Y1225549D01*
X631500Y1134501D02*
X632456Y1135458D01*
X634223Y1230608D02*
Y1308100D01*
X632456Y1228842D02*
X634223Y1230608D01*
X632456Y1135458D02*
Y1228842D01*
X2656500Y571998D02*
Y584496D01*
X2343021Y1140660D02*
X2394021Y1089660D01*
X2343021Y1140660D02*
Y1254578D01*
X2343342Y811151D02*
Y1038981D01*
X2319589Y787398D02*
X2343342Y811151D01*
Y1038981D02*
X2394021Y1089660D01*
X2396561Y1092200D01*
X2158203Y645398D02*
X2173203Y660398D01*
X2158203Y507998D02*
Y645398D01*
X2173203Y660398D02*
X2178198D01*
Y787398D02*
X2319589D01*
X2178198Y660398D02*
Y787398D01*
X2396561Y1092200D02*
X2759400D01*
X2604000Y636996D02*
X2656500Y584496D01*
X2474001Y636996D02*
X2604000D01*
Y486999D02*
X2656500Y539499D01*
X2474001Y486999D02*
X2604000D01*
X2660341Y133659D02*
X2794000Y0D01*
X254000D02*
Y247366D01*
X508000Y0D02*
Y31660D01*
X476398Y63262D02*
X508000Y31660D01*
X1729919Y739218D02*
Y744218D01*
X1719919Y734218D02*
X1724919D01*
X1698019Y712319D02*
X1719919Y734218D01*
X1724919D02*
X1729919Y739218D01*
X1281313Y389311D02*
X1281501Y389499D01*
X1281313Y213553D02*
Y389311D01*
X1281120Y213360D02*
X1281313Y213553D01*
D23*
X3074361Y622298D02*
Y699458D01*
X2971180Y802638D02*
X3074361Y699458D01*
X2534640Y802638D02*
X2971180D01*
X2474001Y746999D02*
X2479001D01*
X2534640Y802638D01*
X603702Y860297D02*
X901900D01*
X498801Y1131799D02*
X501503Y1134501D01*
X498801Y685798D02*
Y1131799D01*
X566501Y897498D02*
Y1134501D01*
Y897498D02*
X603702Y860297D01*
X498801Y685798D02*
X524201Y660398D01*
X905201D01*
D24*
X82240Y474980D02*
D03*
Y1052977D02*
D03*
D25*
X-282763Y331978D02*
D03*
Y1195979D02*
D03*
X135240Y331978D02*
D03*
Y1195979D02*
D03*
D26*
X-285999Y1521998D02*
D03*
X3927800Y1524000D02*
D03*
Y0D02*
D03*
X-285999Y1996D02*
D03*
D27*
X3556000Y0D02*
D03*
Y1524000D02*
D03*
D28*
X3302000Y0D02*
D03*
X3048000D02*
D03*
X2794000D02*
D03*
X2540000D02*
D03*
X2286000D02*
D03*
X2032000D02*
D03*
X1778000D02*
D03*
X1524000D02*
D03*
X1270000D02*
D03*
X1016000D02*
D03*
X762000D02*
D03*
X508000D02*
D03*
X254000D02*
D03*
X0D02*
D03*
X3302000Y1524000D02*
D03*
X3048000D02*
D03*
X2794000D02*
D03*
X2540000D02*
D03*
X2286000D02*
D03*
X2032000D02*
D03*
X1778000D02*
D03*
X1524000D02*
D03*
X1270000D02*
D03*
X1016000D02*
D03*
X762000D02*
D03*
X508000D02*
D03*
X254000D02*
D03*
X0D02*
D03*
D29*
X3620461Y1015998D02*
D03*
Y507998D02*
D03*
Y761998D02*
D03*
X3874461D02*
D03*
Y1015998D02*
D03*
D30*
Y507998D02*
D03*
D31*
X1895239Y1025027D02*
D03*
X1230321Y591818D02*
D03*
X2830521Y373378D02*
D03*
X2754321D02*
D03*
X1949141Y226058D02*
D03*
X1321761Y607058D02*
D03*
X717241Y939798D02*
D03*
X2873701Y698498D02*
D03*
X2311697Y690878D02*
D03*
X775661Y756918D02*
D03*
X1954221Y513078D02*
D03*
X2231081Y1178558D02*
D03*
X3074361Y622298D02*
D03*
X2833061Y1259838D02*
D03*
X2784801Y909318D02*
D03*
X3760161Y1336038D02*
D03*
X3132781Y919478D02*
D03*
X3394401Y765808D02*
D03*
X2050741Y226058D02*
D03*
X1154121Y650238D02*
D03*
X1156661Y802638D02*
D03*
X16201Y840738D02*
D03*
X2317441Y604518D02*
D03*
X3379161Y457198D02*
D03*
X3455361Y1191119D02*
D03*
X2266641Y335278D02*
D03*
X2269181Y883918D02*
D03*
X2273342Y977505D02*
D03*
X905201Y660398D02*
D03*
X901900Y860297D02*
D03*
X3460441Y1341118D02*
D03*
X1578301Y840738D02*
D03*
X1519881Y782318D02*
D03*
X582621Y185418D02*
D03*
X821381Y190498D02*
D03*
D32*
X346401Y203198D02*
D03*
X476398D02*
D03*
X2048201Y660398D02*
D03*
X2178198D02*
D03*
X2048201Y787398D02*
D03*
X2178198D02*
D03*
D33*
X2394021Y1089660D02*
D03*
X2124019D02*
D03*
D34*
X2994503Y1092200D02*
D03*
D35*
X2759400D02*
D03*
D36*
X-105999Y611998D02*
D03*
Y711998D02*
D03*
D37*
X174000Y897001D02*
D03*
Y626999D02*
D03*
D38*
X734223Y1308100D02*
D03*
X634223D02*
D03*
X1381120Y213360D02*
D03*
X1281120D02*
D03*
D39*
X501503Y1134501D02*
D03*
X566501D02*
D03*
X631500D02*
D03*
X696504D02*
D03*
X761502D02*
D03*
X826501D02*
D03*
X891499D02*
D03*
X956503D02*
D03*
X1021502D02*
D03*
X1086500D02*
D03*
X1151499D02*
D03*
X1216503D02*
D03*
X1281501D02*
D03*
X1346500D02*
D03*
X501503Y389499D02*
D03*
X566501D02*
D03*
X631500D02*
D03*
X696504D02*
D03*
X761502D02*
D03*
X826501D02*
D03*
X891499D02*
D03*
X956503D02*
D03*
X1021502D02*
D03*
X1086500D02*
D03*
X1151499D02*
D03*
X1216503D02*
D03*
X1281501D02*
D03*
X1346500D02*
D03*
D40*
X2474001Y636996D02*
D03*
Y746999D02*
D03*
D41*
Y486999D02*
D03*
Y356997D02*
D03*
D42*
X2656500Y571998D02*
D03*
D43*
X3271500Y342001D02*
D03*
Y571998D02*
D03*
Y802000D02*
D03*
D44*
X3539181Y16819D02*
Y219397D01*
X3416577Y342001D02*
X3539181Y219397D01*
X3271500Y342001D02*
X3416577D01*
X3624341Y1266119D02*
X3874461Y1015998D01*
X3305881Y1266119D02*
X3624341D01*
X3048000Y1524000D02*
X3305881Y1266119D01*
X3539181Y16819D02*
X3556000Y0D01*
X476398Y63262D02*
Y203198D01*
%TF.MD5,0623498d2a541b0b9bced0743cb28f42*%
M02*
