%TF.GenerationSoftware,Altium Limited,Altium Designer,21.4.1 (30)*%
G04 Layer_Color=8421504*
%FSLAX45Y45*%
%MOMM*%
%TF.SameCoordinates,CCA80653-F6CA-46C6-945C-E97865854BA3*%
%TF.FilePolarity,Positive*%
%TF.FileFunction,Paste,Top*%
%TF.Part,Single*%
G01*
G75*
%TA.AperFunction,ConnectorPad*%
%ADD12R,1.45000X0.30000*%
%TA.AperFunction,SMDPad,CuDef*%
G04:AMPARAMS|DCode=14|XSize=0.23928mm|YSize=0.80964mm|CornerRadius=0.11964mm|HoleSize=0mm|Usage=FLASHONLY|Rotation=225.000|XOffset=0mm|YOffset=0mm|HoleType=Round|Shape=RoundedRectangle|*
%AMROUNDEDRECTD14*
21,1,0.23928,0.57035,0,0,225.0*
21,1,0.00000,0.80964,0,0,225.0*
1,1,0.23928,-0.20165,0.20165*
1,1,0.23928,-0.20165,0.20165*
1,1,0.23928,0.20165,-0.20165*
1,1,0.23928,0.20165,-0.20165*
%
%ADD14ROUNDEDRECTD14*%
G04:AMPARAMS|DCode=15|XSize=0.80964mm|YSize=0.23928mm|CornerRadius=0.11964mm|HoleSize=0mm|Usage=FLASHONLY|Rotation=225.000|XOffset=0mm|YOffset=0mm|HoleType=Round|Shape=RoundedRectangle|*
%AMROUNDEDRECTD15*
21,1,0.80964,0.00000,0,0,225.0*
21,1,0.57035,0.23928,0,0,225.0*
1,1,0.23928,-0.20165,-0.20165*
1,1,0.23928,0.20165,0.20165*
1,1,0.23928,0.20165,0.20165*
1,1,0.23928,-0.20165,-0.20165*
%
%ADD15ROUNDEDRECTD15*%
G04:AMPARAMS|DCode=16|XSize=0.80964mm|YSize=0.23928mm|CornerRadius=0mm|HoleSize=0mm|Usage=FLASHONLY|Rotation=225.000|XOffset=0mm|YOffset=0mm|HoleType=Round|Shape=Rectangle|*
%AMROTATEDRECTD16*
4,1,4,0.20165,0.37085,0.37085,0.20165,-0.20165,-0.37085,-0.37085,-0.20165,0.20165,0.37085,0.0*
%
%ADD16ROTATEDRECTD16*%

%ADD46R,0.60000X0.70000*%
%TA.AperFunction,NonConductor*%
G04:AMPARAMS|DCode=82|XSize=2.05547mm|YSize=2.05552mm|CornerRadius=0mm|HoleSize=0mm|Usage=FLASHONLY|Rotation=225.000|XOffset=0mm|YOffset=0mm|HoleType=Round|Shape=Rectangle|*
%AMROTATEDRECTD82*
4,1,4,-0.00002,1.45345,1.45345,-0.00002,0.00002,-1.45345,-1.45345,0.00002,-0.00002,1.45345,0.0*
%
%ADD82ROTATEDRECTD82*%

%TA.AperFunction,SMDPad,CuDef*%
%ADD83R,0.40000X1.70000*%
%TA.AperFunction,ConnectorPad*%
%ADD84R,1.55000X0.70000*%
%ADD85R,1.55000X0.40000*%
%TA.AperFunction,SMDPad,CuDef*%
%ADD86R,0.75000X0.60000*%
%ADD87R,1.45999X1.62999*%
%ADD88R,1.30000X0.70000*%
D12*
X226741Y738977D02*
D03*
D14*
X1954002Y719485D02*
D03*
X1918650Y684129D02*
D03*
X1883293Y648772D02*
D03*
X1847937Y613420D02*
D03*
X1812580Y578063D02*
D03*
X1777228Y542707D02*
D03*
X1741871Y507350D02*
D03*
X1706514Y471998D02*
D03*
X1373998Y804515D02*
D03*
X1409355Y839866D02*
D03*
X1444711Y875223D02*
D03*
X1480063Y910580D02*
D03*
X1515420Y945937D02*
D03*
X1550777Y981288D02*
D03*
X1586128Y1016645D02*
D03*
X1621485Y1052002D02*
D03*
D15*
Y471998D02*
D03*
X1586128Y507350D02*
D03*
X1550777Y542707D02*
D03*
X1515420Y578063D02*
D03*
X1480063Y613420D02*
D03*
X1444711Y648772D02*
D03*
X1409355Y684129D02*
D03*
X1373998Y719485D02*
D03*
X1706514Y1052002D02*
D03*
X1741871Y1016645D02*
D03*
X1777228Y981288D02*
D03*
X1812580Y945937D02*
D03*
X1847936Y910580D02*
D03*
X1883293Y875223D02*
D03*
X1918650Y839866D02*
D03*
D16*
X1954002Y804515D02*
D03*
D46*
X668802Y482600D02*
D03*
X558800D02*
D03*
X668802Y1041400D02*
D03*
X558800D02*
D03*
D82*
X1664005Y762003D02*
D03*
D83*
X1877175Y1202827D02*
D03*
X1972172D02*
D03*
X2067176D02*
D03*
D84*
X226741Y438978D02*
D03*
Y518978D02*
D03*
Y1008979D02*
D03*
Y1088979D02*
D03*
D85*
Y588980D02*
D03*
Y638978D02*
D03*
Y688980D02*
D03*
Y938982D02*
D03*
Y888980D02*
D03*
Y838982D02*
D03*
Y788980D02*
D03*
D86*
X2889001Y611998D02*
D03*
X2978998D02*
D03*
X2899004Y911997D02*
D03*
X2989001D02*
D03*
X2899004Y1161999D02*
D03*
X2989001D02*
D03*
X2978998Y362001D02*
D03*
X2889001D02*
D03*
D87*
X2534001Y958997D02*
D03*
Y551998D02*
D03*
D88*
X775401Y666999D02*
D03*
Y762000D02*
D03*
Y856996D02*
D03*
X545399D02*
D03*
Y762000D02*
D03*
Y666999D02*
D03*
%TF.MD5,e969b08bfb8257414ff154829718aab5*%
M02*
