%TF.GenerationSoftware,Altium Limited,Altium Designer,21.4.1 (30)*%
G04 Layer_Color=128*
%FSLAX45Y45*%
%MOMM*%
%TF.SameCoordinates,CCA80653-F6CA-46C6-945C-E97865854BA3*%
%TF.FilePolarity,Positive*%
%TF.FileFunction,Paste,Bot*%
%TF.Part,Single*%
G01*
G75*
%TA.AperFunction,SMDPad,CuDef*%
%ADD33R,1.42000X2.13000*%
%ADD37R,2.13000X1.42000*%
%ADD45R,1.00000X0.80000*%
%ADD46R,0.60000X0.70000*%
%ADD47R,0.86200X1.37000*%
%ADD48R,2.77000X2.64000*%
%ADD49R,0.60000X0.60000*%
%ADD50R,0.60000X0.60000*%
%ADD51O,0.55000X1.95000*%
%ADD52R,0.70000X0.60000*%
%ADD53R,0.80000X1.00000*%
G04:AMPARAMS|DCode=54|XSize=3.25mm|YSize=1.55mm|CornerRadius=0.10075mm|HoleSize=0mm|Usage=FLASHONLY|Rotation=90.000|XOffset=0mm|YOffset=0mm|HoleType=Round|Shape=RoundedRectangle|*
%AMROUNDEDRECTD54*
21,1,3.25000,1.34850,0,0,90.0*
21,1,3.04850,1.55000,0,0,90.0*
1,1,0.20150,0.67425,1.52425*
1,1,0.20150,0.67425,-1.52425*
1,1,0.20150,-0.67425,-1.52425*
1,1,0.20150,-0.67425,1.52425*
%
%ADD54ROUNDEDRECTD54*%
G04:AMPARAMS|DCode=55|XSize=1mm|YSize=1.55mm|CornerRadius=0.0995mm|HoleSize=0mm|Usage=FLASHONLY|Rotation=90.000|XOffset=0mm|YOffset=0mm|HoleType=Round|Shape=RoundedRectangle|*
%AMROUNDEDRECTD55*
21,1,1.00000,1.35100,0,0,90.0*
21,1,0.80100,1.55000,0,0,90.0*
1,1,0.19900,0.67550,0.40050*
1,1,0.19900,0.67550,-0.40050*
1,1,0.19900,-0.67550,-0.40050*
1,1,0.19900,-0.67550,0.40050*
%
%ADD55ROUNDEDRECTD55*%
D33*
X2394021Y1089660D02*
D03*
X2124019D02*
D03*
D37*
X174000Y897001D02*
D03*
Y626999D02*
D03*
D45*
X346401Y203198D02*
D03*
X476398D02*
D03*
X2048201Y660398D02*
D03*
X2178198D02*
D03*
X2048201Y787398D02*
D03*
X2178198D02*
D03*
D46*
X1839921Y571498D02*
D03*
X1729919D02*
D03*
X1839921Y391158D02*
D03*
X1729919D02*
D03*
Y914398D02*
D03*
X1839921D02*
D03*
X1729919Y744218D02*
D03*
X1839921D02*
D03*
X2158203Y507998D02*
D03*
X2048201D02*
D03*
X1588999Y1251996D02*
D03*
X1699001D02*
D03*
X2158203Y330198D02*
D03*
X2048201D02*
D03*
D47*
X2994503Y1092200D02*
D03*
D48*
X2759400D02*
D03*
D49*
X-105999Y611998D02*
D03*
Y711998D02*
D03*
D50*
X734223Y1308100D02*
D03*
X634223D02*
D03*
X1381120Y213360D02*
D03*
X1281120D02*
D03*
D51*
X501503Y1134501D02*
D03*
X566501D02*
D03*
X631500D02*
D03*
X696504D02*
D03*
X761502D02*
D03*
X826501D02*
D03*
X891499D02*
D03*
X956503D02*
D03*
X1021502D02*
D03*
X1086500D02*
D03*
X1151499D02*
D03*
X1216503D02*
D03*
X1281501D02*
D03*
X1346500D02*
D03*
X501503Y389499D02*
D03*
X566501D02*
D03*
X631500D02*
D03*
X696504D02*
D03*
X761502D02*
D03*
X826501D02*
D03*
X891499D02*
D03*
X956503D02*
D03*
X1021502D02*
D03*
X1086500D02*
D03*
X1151499D02*
D03*
X1216503D02*
D03*
X1281501D02*
D03*
X1346500D02*
D03*
D52*
X2474001Y636996D02*
D03*
Y746999D02*
D03*
D53*
Y486999D02*
D03*
Y356997D02*
D03*
D54*
X2656500Y571998D02*
D03*
D55*
X3271500Y342001D02*
D03*
Y571998D02*
D03*
Y802000D02*
D03*
%TF.MD5,8eb2f6bb3512d26f8c597026c6d20382*%
M02*
