%TF.GenerationSoftware,Altium Limited,Altium Designer,21.4.1 (30)*%
G04 Layer_Color=255*
%FSLAX45Y45*%
%MOMM*%
%TF.SameCoordinates,CCA80653-F6CA-46C6-945C-E97865854BA3*%
%TF.FilePolarity,Positive*%
%TF.FileFunction,Pads,Top*%
%TF.Part,Single*%
G01*
G75*
%TA.AperFunction,SMDPad,CuDef*%
%ADD10R,0.30000X1.60000*%
%TA.AperFunction,ConnectorPad*%
%ADD11R,1.45000X0.60000*%
%ADD12R,1.45000X0.30000*%
%TA.AperFunction,SMDPad,CuDef*%
%ADD13R,0.65000X0.50000*%
G04:AMPARAMS|DCode=14|XSize=0.23928mm|YSize=0.80964mm|CornerRadius=0.11964mm|HoleSize=0mm|Usage=FLASHONLY|Rotation=225.000|XOffset=0mm|YOffset=0mm|HoleType=Round|Shape=RoundedRectangle|*
%AMROUNDEDRECTD14*
21,1,0.23928,0.57035,0,0,225.0*
21,1,0.00000,0.80964,0,0,225.0*
1,1,0.23928,-0.20165,0.20165*
1,1,0.23928,-0.20165,0.20165*
1,1,0.23928,0.20165,-0.20165*
1,1,0.23928,0.20165,-0.20165*
%
%ADD14ROUNDEDRECTD14*%
G04:AMPARAMS|DCode=15|XSize=0.80964mm|YSize=0.23928mm|CornerRadius=0.11964mm|HoleSize=0mm|Usage=FLASHONLY|Rotation=225.000|XOffset=0mm|YOffset=0mm|HoleType=Round|Shape=RoundedRectangle|*
%AMROUNDEDRECTD15*
21,1,0.80964,0.00000,0,0,225.0*
21,1,0.57035,0.23928,0,0,225.0*
1,1,0.23928,-0.20165,-0.20165*
1,1,0.23928,0.20165,0.20165*
1,1,0.23928,0.20165,0.20165*
1,1,0.23928,-0.20165,-0.20165*
%
%ADD15ROUNDEDRECTD15*%
G04:AMPARAMS|DCode=16|XSize=0.80964mm|YSize=0.23928mm|CornerRadius=0mm|HoleSize=0mm|Usage=FLASHONLY|Rotation=225.000|XOffset=0mm|YOffset=0mm|HoleType=Round|Shape=Rectangle|*
%AMROTATEDRECTD16*
4,1,4,0.20165,0.37085,0.37085,0.20165,-0.20165,-0.37085,-0.37085,-0.20165,0.20165,0.37085,0.0*
%
%ADD16ROTATEDRECTD16*%

%ADD17P,4.59620X4X270.0*%
%ADD18R,1.35999X1.52999*%
%ADD19R,1.20000X0.60000*%
%ADD20R,0.50000X0.60000*%
%TA.AperFunction,ComponentPad*%
%ADD24C,0.70000*%
%ADD25O,2.10000X1.05000*%
%ADD26C,2.00000*%
%ADD27R,1.57000X1.57000*%
%ADD28C,1.57000*%
%ADD29C,1.70000*%
%ADD30R,1.70000X1.70000*%
D10*
X1877175Y1202827D02*
D03*
X1972172D02*
D03*
X2067176D02*
D03*
D11*
X226741Y438978D02*
D03*
Y518978D02*
D03*
Y1008979D02*
D03*
Y1088979D02*
D03*
D12*
Y588980D02*
D03*
Y638978D02*
D03*
Y688980D02*
D03*
Y738977D02*
D03*
Y938982D02*
D03*
Y888980D02*
D03*
Y838982D02*
D03*
Y788980D02*
D03*
D13*
X2889001Y611998D02*
D03*
X2978998D02*
D03*
X2899004Y911997D02*
D03*
X2989001D02*
D03*
X2899004Y1161999D02*
D03*
X2989001D02*
D03*
X2978998Y362001D02*
D03*
X2889001D02*
D03*
D14*
X1954002Y719485D02*
D03*
X1918650Y684129D02*
D03*
X1883293Y648772D02*
D03*
X1847937Y613420D02*
D03*
X1812580Y578063D02*
D03*
X1777228Y542707D02*
D03*
X1741871Y507350D02*
D03*
X1706514Y471998D02*
D03*
X1373998Y804515D02*
D03*
X1409355Y839866D02*
D03*
X1444711Y875223D02*
D03*
X1480063Y910580D02*
D03*
X1515420Y945937D02*
D03*
X1550777Y981288D02*
D03*
X1586128Y1016645D02*
D03*
X1621485Y1052002D02*
D03*
D15*
Y471998D02*
D03*
X1586128Y507350D02*
D03*
X1550777Y542707D02*
D03*
X1515420Y578063D02*
D03*
X1480063Y613420D02*
D03*
X1444711Y648772D02*
D03*
X1409355Y684129D02*
D03*
X1373998Y719485D02*
D03*
X1706514Y1052002D02*
D03*
X1741871Y1016645D02*
D03*
X1777228Y981288D02*
D03*
X1812580Y945937D02*
D03*
X1847936Y910580D02*
D03*
X1883293Y875223D02*
D03*
X1918650Y839866D02*
D03*
D16*
X1954002Y804515D02*
D03*
D17*
X1664000Y762000D02*
D03*
D18*
X2534001Y958997D02*
D03*
Y551998D02*
D03*
D19*
X775401Y666999D02*
D03*
Y762000D02*
D03*
Y856996D02*
D03*
X545399D02*
D03*
Y762000D02*
D03*
Y666999D02*
D03*
D20*
X668802Y482600D02*
D03*
X558800D02*
D03*
X668802Y1041400D02*
D03*
X558800D02*
D03*
D24*
X82240Y474980D02*
D03*
Y1052977D02*
D03*
D25*
X-282763Y331978D02*
D03*
Y1195979D02*
D03*
X135240Y331978D02*
D03*
Y1195979D02*
D03*
D26*
X-285999Y1521998D02*
D03*
X3927800Y1524000D02*
D03*
Y0D02*
D03*
X-285999Y1996D02*
D03*
D27*
X3556000Y0D02*
D03*
Y1524000D02*
D03*
D28*
X3302000Y0D02*
D03*
X3048000D02*
D03*
X2794000D02*
D03*
X2540000D02*
D03*
X2286000D02*
D03*
X2032000D02*
D03*
X1778000D02*
D03*
X1524000D02*
D03*
X1270000D02*
D03*
X1016000D02*
D03*
X762000D02*
D03*
X508000D02*
D03*
X254000D02*
D03*
X0D02*
D03*
X3302000Y1524000D02*
D03*
X3048000D02*
D03*
X2794000D02*
D03*
X2540000D02*
D03*
X2286000D02*
D03*
X2032000D02*
D03*
X1778000D02*
D03*
X1524000D02*
D03*
X1270000D02*
D03*
X1016000D02*
D03*
X762000D02*
D03*
X508000D02*
D03*
X254000D02*
D03*
X0D02*
D03*
D29*
X3620461Y1015998D02*
D03*
Y507998D02*
D03*
Y761998D02*
D03*
X3874461D02*
D03*
Y1015998D02*
D03*
D30*
Y507998D02*
D03*
%TF.MD5,2789bb72b9235f2e313fc6bd8c8e3056*%
M02*
