%TF.GenerationSoftware,Altium Limited,Altium Designer,21.4.1 (30)*%
G04 Layer_Color=65535*
%FSLAX45Y45*%
%MOMM*%
%TF.SameCoordinates,CCA80653-F6CA-46C6-945C-E97865854BA3*%
%TF.FilePolarity,Positive*%
%TF.FileFunction,Legend,Top*%
%TF.Part,Single*%
G01*
G75*
%TA.AperFunction,NonConductor*%
%ADD56C,0.20000*%
%ADD57C,0.25000*%
%ADD59C,0.15000*%
%ADD60C,0.10000*%
%ADD78C,0.30000*%
%ADD79C,0.25400*%
%ADD80C,0.12700*%
%ADD81C,0.15240*%
G36*
X1325496Y1182621D02*
X1325960Y1182423D01*
X1326886Y1181761D01*
X1327745Y1181431D01*
X1328539Y1180901D01*
X1330524Y1178917D01*
X1331053Y1177991D01*
X1331582Y1177197D01*
X1331979Y1175874D01*
X1332177Y1175147D01*
X1332310Y1174618D01*
X1332508Y1173890D01*
X1332640Y1172964D01*
X1332508Y1170847D01*
X1332376Y1170451D01*
X1332111Y1169524D01*
X1331846Y1168466D01*
X1331648Y1167738D01*
X1331317Y1167276D01*
X1331053Y1167011D01*
X1330920Y1166746D01*
X1330656Y1166482D01*
X1330127Y1165556D01*
X1329796Y1165225D01*
X1329532Y1165093D01*
X1329201Y1164762D01*
X1329068Y1164497D01*
X1328605Y1164034D01*
X1328473D01*
X1327216Y1163174D01*
X1326753Y1162711D01*
X1324570Y1162248D01*
X1323843Y1162050D01*
X1322917Y1161918D01*
X1322057Y1161851D01*
X1320866Y1161984D01*
X1320337Y1162116D01*
X1319610Y1162314D01*
X1318750Y1162513D01*
X1318088Y1162645D01*
X1317030Y1163307D01*
X1316832Y1163505D01*
X1316170Y1163770D01*
X1315508Y1164167D01*
X1315178Y1164497D01*
X1315045Y1164762D01*
X1314582Y1165093D01*
X1314119Y1165556D01*
X1313590Y1166482D01*
X1313061Y1167276D01*
X1312466Y1168929D01*
X1312135Y1169657D01*
X1311870Y1170715D01*
X1311738Y1171641D01*
X1311606Y1172964D01*
X1311738Y1173493D01*
X1311870Y1174551D01*
X1312003Y1174948D01*
X1312333Y1175808D01*
X1312796Y1176933D01*
X1313127Y1177793D01*
X1313458Y1178256D01*
X1314119Y1178917D01*
X1314649Y1179843D01*
X1315442Y1180372D01*
X1316435Y1181364D01*
X1317294Y1181695D01*
X1318353Y1182357D01*
X1319213Y1182687D01*
X1321329Y1182820D01*
X1322652Y1182687D01*
X1323975Y1182820D01*
X1325496Y1182621D01*
D02*
G37*
G36*
X1239970Y1182290D02*
X1242748Y1182158D01*
X1243145Y1182026D01*
X1245328Y1181827D01*
X1246651Y1181695D01*
X1248238Y1181563D01*
X1249958Y1181431D01*
X1251149Y1181298D01*
X1252736Y1181034D01*
X1253861Y1180703D01*
X1254390Y1180571D01*
X1255316Y1180438D01*
X1255845Y1180306D01*
X1257366Y1180108D01*
X1258160Y1179976D01*
X1258888Y1179777D01*
X1259748Y1179446D01*
X1260475Y1179248D01*
X1261533Y1178983D01*
X1262790Y1178785D01*
X1263319Y1178652D01*
X1263981Y1178388D01*
X1264708Y1178057D01*
X1265635Y1177793D01*
X1267156Y1177462D01*
X1267817Y1177197D01*
X1269207Y1176602D01*
X1270132Y1176337D01*
X1270860Y1176139D01*
X1271323Y1175940D01*
X1272778Y1175279D01*
X1273307Y1175147D01*
X1274167Y1174816D01*
X1275821Y1173956D01*
X1276747Y1173692D01*
X1277673Y1173162D01*
X1279128Y1172501D01*
X1279988Y1172170D01*
X1280319Y1171839D01*
X1280583Y1171707D01*
X1281774Y1171178D01*
X1282171Y1171046D01*
X1283494Y1170120D01*
X1284023Y1169988D01*
X1284949Y1169458D01*
X1285214Y1169194D01*
X1285478Y1169061D01*
X1286933Y1168268D01*
X1287198Y1168003D01*
X1287463Y1167871D01*
X1288918Y1167077D01*
X1289447Y1166548D01*
X1290902Y1165754D01*
X1291299Y1165357D01*
X1292754Y1164563D01*
X1293548Y1163770D01*
X1294474Y1163240D01*
X1295136Y1162579D01*
X1295400Y1162447D01*
X1296326Y1161785D01*
X1296591Y1161521D01*
X1296855Y1161388D01*
X1298046Y1160463D01*
X1298575Y1159933D01*
X1298840Y1159801D01*
X1299766Y1158875D01*
X1300030Y1158743D01*
X1300295Y1158478D01*
X1300560Y1158346D01*
X1301750Y1157155D01*
X1302015Y1157023D01*
X1302610Y1156427D01*
X1302676Y1156229D01*
X1302941Y1156097D01*
X1303338Y1155700D01*
X1303536Y1155634D01*
X1303668Y1155369D01*
X1306314Y1152723D01*
X1306446Y1152459D01*
X1307042Y1151863D01*
X1307307Y1151731D01*
X1307637Y1151268D01*
X1308960Y1149945D01*
X1309092Y1149681D01*
X1310018Y1148755D01*
X1310151Y1148490D01*
X1310746Y1147762D01*
X1311341Y1147167D01*
X1311474Y1146902D01*
X1312069Y1146175D01*
X1312796Y1145447D01*
X1313061Y1144786D01*
X1313657Y1144058D01*
X1313855Y1143860D01*
X1313987Y1143595D01*
X1314715Y1142603D01*
X1314913Y1142537D01*
X1315045Y1142272D01*
X1315310Y1142008D01*
X1315707Y1141346D01*
X1316501Y1140552D01*
X1316765Y1139891D01*
X1317162Y1139230D01*
X1317427Y1138965D01*
X1317559Y1138701D01*
X1318220Y1137510D01*
X1318485Y1137245D01*
X1318617Y1136981D01*
X1318882Y1136716D01*
X1319213Y1135856D01*
X1319676Y1135129D01*
X1320205Y1134599D01*
X1320668Y1133343D01*
X1321197Y1132549D01*
X1321395Y1132351D01*
X1321660Y1131689D01*
X1321991Y1130829D01*
X1322321Y1130366D01*
X1322851Y1129572D01*
X1323049Y1128845D01*
X1323314Y1128183D01*
X1323843Y1127389D01*
X1324174Y1126662D01*
X1324438Y1125604D01*
X1325100Y1124677D01*
X1325496Y1123751D01*
X1325695Y1122759D01*
X1325960Y1122098D01*
X1326687Y1120444D01*
X1326819Y1119915D01*
X1327018Y1119055D01*
X1327415Y1118261D01*
X1327745Y1117401D01*
X1328010Y1116476D01*
X1328341Y1114954D01*
X1328605Y1114293D01*
X1328936Y1113433D01*
X1329201Y1112374D01*
X1329399Y1111118D01*
X1329532Y1110456D01*
X1329796Y1109398D01*
X1330193Y1108339D01*
X1330524Y1107480D01*
X1330656Y1104701D01*
X1330788Y1104305D01*
X1330987Y1103048D01*
X1331383Y1101063D01*
X1331516Y1100270D01*
X1331648Y1099079D01*
X1331780Y1097227D01*
X1331913Y1093258D01*
X1331979Y1086313D01*
X1331846Y1085916D01*
X1331714Y1080624D01*
X1331582Y1080227D01*
X1331450Y1078508D01*
X1331317Y1078111D01*
X1331185Y1077582D01*
X1330788Y1075333D01*
X1330656Y1074407D01*
X1330457Y1072356D01*
X1330193Y1071298D01*
X1329862Y1070173D01*
X1329598Y1069512D01*
X1329465Y1068586D01*
X1329333Y1068057D01*
X1329135Y1066800D01*
X1329002Y1066271D01*
X1328738Y1065609D01*
X1328407Y1064749D01*
X1328142Y1063823D01*
X1327812Y1062302D01*
X1327547Y1061640D01*
X1326952Y1060251D01*
X1326687Y1059193D01*
X1326489Y1058465D01*
X1325761Y1057076D01*
X1325629Y1056547D01*
X1325033Y1054894D01*
X1324835Y1054695D01*
X1324306Y1053505D01*
X1323711Y1051851D01*
X1323380Y1051520D01*
X1323248Y1051256D01*
X1322983Y1050594D01*
X1322520Y1049338D01*
X1322057Y1048874D01*
X1321660Y1047948D01*
X1321329Y1047088D01*
X1321131Y1046890D01*
X1320999Y1046626D01*
X1320734Y1046361D01*
X1319676Y1044376D01*
X1319279Y1043715D01*
X1318617Y1042524D01*
X1318220Y1042127D01*
X1318088Y1041863D01*
X1317294Y1040408D01*
X1316898Y1040011D01*
X1316765Y1039746D01*
X1316236Y1038820D01*
X1315707Y1038291D01*
X1314913Y1036836D01*
X1314715Y1036637D01*
X1314450Y1036505D01*
X1314252Y1036307D01*
X1314119Y1036042D01*
X1313524Y1035314D01*
X1312929Y1034719D01*
X1312796Y1034455D01*
X1312201Y1033727D01*
X1311870Y1033396D01*
X1311738Y1033132D01*
X1311474Y1032867D01*
X1311077Y1032206D01*
X1310548Y1031676D01*
X1309886Y1030486D01*
X1309688Y1030288D01*
X1309423Y1030155D01*
X1309225Y1029957D01*
X1309092Y1029692D01*
X1307769Y1028369D01*
X1307637Y1028105D01*
X1307307Y1027774D01*
X1307042Y1027642D01*
X1306579Y1027179D01*
X1306446Y1026914D01*
X1302279Y1022747D01*
X1302015Y1022614D01*
X1301552Y1022151D01*
X1301419Y1021887D01*
X1301221Y1021688D01*
X1300957Y1021556D01*
X1300229Y1020961D01*
X1299633Y1020365D01*
X1299369Y1020233D01*
X1298641Y1019638D01*
X1298311Y1019307D01*
X1298046Y1019175D01*
X1297318Y1018580D01*
X1296855Y1018117D01*
X1296591Y1017984D01*
X1296326Y1017720D01*
X1296062Y1017587D01*
X1295334Y1016992D01*
X1294871Y1016529D01*
X1293945Y1016000D01*
X1293416Y1015471D01*
X1292225Y1014809D01*
X1291696Y1014280D01*
X1291432Y1014148D01*
X1290505Y1013619D01*
X1289712Y1012825D01*
X1288852Y1012494D01*
X1288124Y1012031D01*
X1287860Y1011767D01*
X1287595Y1011634D01*
X1286140Y1010840D01*
X1285875Y1010576D01*
X1283891Y1009518D01*
X1283626Y1009253D01*
X1282965Y1008988D01*
X1282436Y1008856D01*
X1281510Y1008195D01*
X1280319Y1007665D01*
X1279459Y1007335D01*
X1279261Y1007136D01*
X1278996Y1007004D01*
X1278732Y1006739D01*
X1278070Y1006475D01*
X1277342Y1006276D01*
X1276681Y1006012D01*
X1276482Y1005813D01*
X1276218Y1005681D01*
X1275027Y1005152D01*
X1274498Y1005020D01*
X1273837Y1004755D01*
X1273572Y1004623D01*
X1271852Y1003829D01*
X1270992Y1003631D01*
X1270331Y1003366D01*
X1269471Y1002903D01*
X1268545Y1002638D01*
X1268016Y1002506D01*
X1267288Y1002308D01*
X1265965Y1001779D01*
X1265105Y1001448D01*
X1262923Y1000985D01*
X1261864Y1000588D01*
X1261004Y1000257D01*
X1259152Y999993D01*
X1258623Y999860D01*
X1257102Y999530D01*
X1256242Y999199D01*
X1255316Y998802D01*
X1252273Y998670D01*
X1251876Y998537D01*
X1250487Y998339D01*
X1249826Y998207D01*
X1249296Y998074D01*
X1248503Y997942D01*
X1247841Y997810D01*
X1246651Y997677D01*
X1244931Y997545D01*
X1241756Y997413D01*
X1236795Y997347D01*
X1236398Y997479D01*
X1232694Y997347D01*
X1228593Y997479D01*
X1224889Y997611D01*
X1224492Y997744D01*
X1223169Y997876D01*
X1222640Y998008D01*
X1221118Y998339D01*
X1220325Y998471D01*
X1218539Y998670D01*
X1217216Y998802D01*
X1216687Y998934D01*
X1215562Y999133D01*
X1214438Y999463D01*
X1213512Y999728D01*
X1212982Y999860D01*
X1211660Y999993D01*
X1210601Y1000257D01*
X1209344Y1000720D01*
X1208220Y1001051D01*
X1207691Y1001183D01*
X1206434Y1001382D01*
X1205111Y1001911D01*
X1204383Y1002242D01*
X1203325Y1002506D01*
X1202333Y1002705D01*
X1200150Y1003697D01*
X1199423Y1003895D01*
X1198893Y1004027D01*
X1198232Y1004292D01*
X1198033Y1004490D01*
X1197107Y1004888D01*
X1196578Y1005020D01*
X1195321Y1005483D01*
X1195123Y1005681D01*
X1193932Y1006210D01*
X1192808Y1006409D01*
X1192345Y1006607D01*
X1191551Y1007401D01*
X1190890Y1007665D01*
X1190162Y1007864D01*
X1189435Y1008327D01*
X1186921Y1009650D01*
X1184937Y1010708D01*
X1184143Y1011238D01*
X1183283Y1011568D01*
X1182820Y1011899D01*
X1182423Y1012296D01*
X1181762Y1012560D01*
X1180902Y1012891D01*
X1180042Y1013751D01*
X1178587Y1014545D01*
X1178190Y1014942D01*
X1177528Y1015206D01*
X1176867Y1015603D01*
X1176205Y1016264D01*
X1175941Y1016397D01*
X1175015Y1016926D01*
X1174486Y1017455D01*
X1173030Y1018249D01*
X1172700Y1018712D01*
X1171906Y1019241D01*
X1171443Y1019572D01*
X1170914Y1020101D01*
X1170649Y1020233D01*
X1169458Y1021159D01*
X1168532Y1021688D01*
X1167937Y1022284D01*
X1167805Y1022548D01*
X1167011Y1023077D01*
X1166614Y1023474D01*
X1166482Y1023739D01*
X1166283Y1023938D01*
X1166019Y1024070D01*
X1165754Y1024334D01*
X1165490Y1024467D01*
X1165291Y1024665D01*
X1165159Y1024930D01*
X1164961Y1025128D01*
X1164696Y1025260D01*
X1164432Y1025525D01*
X1164167Y1025657D01*
X1163108Y1026715D01*
X1162844Y1026848D01*
X1161786Y1027906D01*
X1161521Y1028038D01*
X1161257Y1028303D01*
X1160992Y1028435D01*
X1160793Y1028634D01*
X1160661Y1028898D01*
X1160463Y1029097D01*
X1160198Y1029229D01*
X1159470Y1029824D01*
X1158875Y1030552D01*
X1156692Y1032735D01*
X1156560Y1032999D01*
X1156362Y1033198D01*
X1156097Y1033330D01*
X1155634Y1033793D01*
X1155502Y1034058D01*
X1152856Y1036704D01*
X1152724Y1036968D01*
X1152261Y1037299D01*
X1151930Y1037630D01*
X1151798Y1037894D01*
X1150475Y1039217D01*
X1150342Y1039482D01*
X1149747Y1040209D01*
X1149019Y1040937D01*
X1148887Y1041201D01*
X1147829Y1042260D01*
X1147696Y1042524D01*
X1147366Y1042987D01*
X1147101Y1043120D01*
X1146638Y1043583D01*
X1145977Y1044773D01*
X1145448Y1045302D01*
X1145315Y1045567D01*
X1144720Y1046295D01*
X1144125Y1046890D01*
X1143992Y1047155D01*
X1143397Y1047882D01*
X1142802Y1048477D01*
X1142140Y1049668D01*
X1141743Y1050065D01*
X1141214Y1050991D01*
X1140619Y1051719D01*
X1140288Y1052049D01*
X1139759Y1052976D01*
X1139296Y1053306D01*
X1139098Y1053505D01*
X1138965Y1053769D01*
X1138304Y1054960D01*
X1137973Y1055290D01*
X1137444Y1055423D01*
X1136650Y1055290D01*
X1136452Y1055092D01*
X1135790Y1053901D01*
X1135526Y1053637D01*
X1135393Y1053372D01*
X1134732Y1052182D01*
X1133806Y1051256D01*
X1133277Y1050330D01*
X1132615Y1049668D01*
X1132086Y1048742D01*
X1131292Y1047948D01*
X1130631Y1046758D01*
X1129969Y1046096D01*
X1129837Y1045832D01*
X1128779Y1044773D01*
X1128646Y1044509D01*
X1128051Y1043781D01*
X1127456Y1043186D01*
X1127324Y1042921D01*
X1126728Y1042194D01*
X1126398Y1041863D01*
X1125736Y1040672D01*
X1125273Y1040342D01*
X1124942Y1040011D01*
X1124810Y1039746D01*
X1124347Y1039151D01*
X1124082Y1039019D01*
X1123752Y1038688D01*
X1123619Y1038423D01*
X1122296Y1037101D01*
X1122164Y1036836D01*
X1121966Y1036637D01*
X1121701Y1036505D01*
X1121238Y1036042D01*
X1121106Y1035777D01*
X1118460Y1033132D01*
X1118328Y1032867D01*
X1117997Y1032536D01*
X1117732Y1032404D01*
X1117071Y1031610D01*
X1114557Y1029097D01*
X1114293Y1028964D01*
X1113235Y1027906D01*
X1112970Y1027774D01*
X1111912Y1026715D01*
X1111647Y1026583D01*
X1110457Y1025393D01*
X1110192Y1025260D01*
X1109464Y1024533D01*
X1109398Y1024334D01*
X1109133Y1024202D01*
X1108207Y1023673D01*
X1107546Y1023011D01*
X1107282Y1022879D01*
X1106223Y1021821D01*
X1105958Y1021688D01*
X1105694Y1021424D01*
X1105429Y1021292D01*
X1104636Y1020498D01*
X1104371Y1020365D01*
X1103643Y1019770D01*
X1103048Y1019175D01*
X1101857Y1018513D01*
X1101461Y1018117D01*
X1101196Y1017984D01*
X1099939Y1017124D01*
X1099476Y1016661D01*
X1099212Y1016529D01*
X1098550Y1016132D01*
X1097360Y1015338D01*
X1096433Y1014809D01*
X1095772Y1014148D01*
X1094648Y1013552D01*
X1094515Y1013288D01*
X1094052Y1012825D01*
X1092994Y1012560D01*
X1092332Y1012163D01*
X1091803Y1011634D01*
X1091142Y1011370D01*
X1090613Y1011238D01*
X1089025Y1010179D01*
X1088165Y1009848D01*
X1087173Y1009121D01*
X1085916Y1008658D01*
X1085189Y1008195D01*
X1083733Y1007533D01*
X1082278Y1006739D01*
X1081352Y1006343D01*
X1080823Y1006210D01*
X1080162Y1005946D01*
X1079236Y1005284D01*
X1078177Y1005020D01*
X1077450Y1004821D01*
X1076061Y1004094D01*
X1075532Y1003961D01*
X1075465Y1003895D01*
X1074738Y1003697D01*
X1074208Y1003564D01*
X1072489Y1002771D01*
X1071960Y1002638D01*
X1071100Y1002440D01*
X1070570Y1002308D01*
X1069909Y1002043D01*
X1069115Y1001514D01*
X1068388Y1001315D01*
X1067065Y1001183D01*
X1066205Y1000985D01*
X1065146Y1000588D01*
X1064287Y1000257D01*
X1063757Y1000125D01*
X1062832Y999993D01*
X1061575Y999794D01*
X1060913Y999662D01*
X1059392Y999199D01*
X1058333Y998934D01*
X1057011Y998802D01*
X1056085Y998670D01*
X1054431Y998471D01*
X1053769Y998339D01*
X1052976Y998207D01*
X1052446Y998074D01*
X1051785Y997942D01*
X1050198Y997677D01*
X1049668Y997545D01*
X1043583Y997413D01*
X1033198Y997347D01*
X1032801Y997479D01*
X1028303Y997611D01*
X1027907Y997744D01*
X1026319Y997876D01*
X1025922Y998008D01*
X1023673Y998405D01*
X1023144Y998537D01*
X1021424Y998670D01*
X1019638Y998868D01*
X1018580Y999265D01*
X1017852Y999463D01*
X1016265Y999860D01*
X1014214Y1000191D01*
X1013685Y1000323D01*
X1013024Y1000588D01*
X1011965Y1000985D01*
X1011436Y1001117D01*
X1009452Y1001514D01*
X1007996Y1002176D01*
X1007269Y1002374D01*
X1006211Y1002638D01*
X1005483Y1002837D01*
X1004358Y1003432D01*
X1003697Y1003697D01*
X1002771Y1003829D01*
X1002043Y1004292D01*
X1001911Y1004557D01*
X1001448Y1005020D01*
X1000919Y1005152D01*
X999067Y1005284D01*
X998670Y1005681D01*
X998405Y1005813D01*
X998141Y1006078D01*
X997281Y1006276D01*
X996421Y1006607D01*
X995495Y1007269D01*
X993841Y1007864D01*
X993643Y1008062D01*
X993378Y1008195D01*
X993114Y1008459D01*
X992452Y1008724D01*
X991592Y1009055D01*
X990203Y1010047D01*
X989145Y1010444D01*
X988417Y1011039D01*
X987557Y1011502D01*
X986632Y1012031D01*
X986235Y1012428D01*
X985375Y1012759D01*
X985176Y1012957D01*
X984912Y1013089D01*
X984250Y1013751D01*
X982795Y1014545D01*
X982398Y1014942D01*
X981207Y1015603D01*
X980414Y1016397D01*
X979488Y1016926D01*
X978694Y1017720D01*
X977768Y1018249D01*
X977107Y1018910D01*
X976445Y1019307D01*
X975651Y1020101D01*
X975387Y1020233D01*
X974461Y1021159D01*
X974196Y1021292D01*
X973667Y1021821D01*
X973402Y1021953D01*
X972079Y1023276D01*
X971815Y1023408D01*
X971484Y1023739D01*
X971352Y1024004D01*
X971153Y1024202D01*
X970889Y1024334D01*
X967648Y1027576D01*
X967515Y1027840D01*
X966192Y1029163D01*
X966060Y1029427D01*
X965002Y1030486D01*
X964869Y1030751D01*
X964605Y1031015D01*
X964473Y1031280D01*
X963811Y1031809D01*
X963679Y1032073D01*
X963083Y1032801D01*
X962620Y1033264D01*
X962091Y1034190D01*
X961430Y1034851D01*
X961298Y1035116D01*
X960636Y1036042D01*
X960107Y1036571D01*
X959578Y1037497D01*
X958652Y1038423D01*
X958255Y1039482D01*
X957660Y1040209D01*
X957461Y1040408D01*
X956800Y1041598D01*
X956535Y1041863D01*
X956403Y1042127D01*
X955477Y1043847D01*
X954948Y1044376D01*
X954418Y1045699D01*
X953625Y1046890D01*
X953360Y1047551D01*
X952831Y1048477D01*
X952037Y1050197D01*
X951508Y1051123D01*
X950979Y1052314D01*
X950516Y1053571D01*
X950185Y1053901D01*
X949788Y1054827D01*
X949524Y1055886D01*
X948598Y1057870D01*
X948333Y1058796D01*
X948201Y1059326D01*
X947407Y1061045D01*
X947275Y1061574D01*
X947076Y1062434D01*
X946944Y1062963D01*
X946547Y1064022D01*
X946216Y1064882D01*
X945952Y1065940D01*
X945819Y1066866D01*
X945687Y1067395D01*
X945489Y1068255D01*
X945158Y1069115D01*
X944629Y1070306D01*
X944496Y1072951D01*
X944364Y1073348D01*
X944033Y1074870D01*
X943769Y1075928D01*
X943637Y1076589D01*
X943504Y1077648D01*
X943372Y1078971D01*
X943240Y1081220D01*
X943107Y1083336D01*
X942975Y1085188D01*
X942843Y1087834D01*
X942777Y1091737D01*
X942909Y1092134D01*
X943041Y1096235D01*
X943174Y1096632D01*
X943372Y1100534D01*
X943504Y1101857D01*
X943637Y1102915D01*
X943769Y1103709D01*
X943901Y1104238D01*
X944100Y1104966D01*
X944232Y1105495D01*
X944496Y1107083D01*
X944629Y1108406D01*
X944761Y1109332D01*
X944893Y1109729D01*
X945158Y1110390D01*
X945687Y1112110D01*
X945952Y1113697D01*
X946150Y1114557D01*
X946415Y1115219D01*
X946745Y1115946D01*
X947010Y1116872D01*
X947142Y1117401D01*
X947275Y1118195D01*
X947539Y1118857D01*
X948201Y1120312D01*
X948598Y1121899D01*
X949127Y1122826D01*
X949524Y1123751D01*
X949656Y1124281D01*
X950119Y1125538D01*
X950317Y1125736D01*
X950450Y1126001D01*
X950979Y1127191D01*
X951111Y1127720D01*
X951640Y1128646D01*
X952169Y1129440D01*
X952368Y1130168D01*
X952632Y1130829D01*
X953360Y1131821D01*
X953691Y1132681D01*
X953889Y1133144D01*
X954551Y1134070D01*
X955477Y1135790D01*
X955741Y1136055D01*
X956006Y1136716D01*
X956535Y1137642D01*
X957196Y1138304D01*
X957527Y1139163D01*
X957858Y1139626D01*
X958255Y1140023D01*
X958916Y1141214D01*
X959578Y1141876D01*
X959710Y1142140D01*
X960239Y1143066D01*
X960768Y1143595D01*
X961430Y1144786D01*
X961761Y1145117D01*
X961959Y1145183D01*
X962091Y1145447D01*
X962356Y1145712D01*
X962488Y1145976D01*
X963083Y1146704D01*
X963679Y1147299D01*
X963811Y1147564D01*
X964407Y1148292D01*
X965002Y1148887D01*
X965134Y1149151D01*
X965399Y1149416D01*
X965465Y1149614D01*
X965729Y1149747D01*
X966060Y1150077D01*
X966192Y1150342D01*
X966788Y1151070D01*
X967052Y1151202D01*
X967251Y1151401D01*
X967383Y1151665D01*
X967648Y1151930D01*
X967780Y1152194D01*
X968441Y1152723D01*
X968574Y1152988D01*
X971815Y1156229D01*
X972079Y1156361D01*
X973005Y1157287D01*
X973270Y1157420D01*
X973535Y1157684D01*
X973799Y1157817D01*
X974196Y1158346D01*
X974461Y1158478D01*
X975188Y1159073D01*
X975783Y1159669D01*
X976048Y1159801D01*
X976776Y1160396D01*
X977371Y1160992D01*
X977636Y1161124D01*
X978363Y1161719D01*
X978958Y1162314D01*
X979223Y1162447D01*
X980149Y1163108D01*
X980414Y1163373D01*
X981604Y1164034D01*
X982266Y1164696D01*
X983457Y1165357D01*
X983787Y1165688D01*
X983853Y1165886D01*
X984118Y1166019D01*
X985573Y1166812D01*
X985838Y1167077D01*
X986102Y1167209D01*
X987293Y1167871D01*
X988219Y1168532D01*
X988880Y1168797D01*
X989542Y1169194D01*
X989807Y1169458D01*
X990071Y1169590D01*
X990336Y1169855D01*
X991592Y1170318D01*
X992386Y1170847D01*
X992717Y1171178D01*
X993246Y1171310D01*
X993643Y1171443D01*
X994569Y1171972D01*
X995363Y1172501D01*
X996090Y1172699D01*
X996619Y1172832D01*
X997082Y1173162D01*
X997876Y1173692D01*
X998935Y1173956D01*
X999794Y1174287D01*
X1000390Y1174882D01*
X1001051Y1175147D01*
X1002308Y1175345D01*
X1002969Y1175610D01*
X1003962Y1176205D01*
X1004689Y1176404D01*
X1005483Y1176536D01*
X1006541Y1176933D01*
X1006740Y1177131D01*
X1007600Y1177462D01*
X1008129Y1177594D01*
X1009452Y1177859D01*
X1010510Y1178256D01*
X1011171Y1178520D01*
X1012296Y1178851D01*
X1013553Y1179049D01*
X1014214Y1179182D01*
X1015339Y1179513D01*
X1016000Y1179777D01*
X1017323Y1180174D01*
X1019704Y1180306D01*
X1020366Y1180571D01*
X1021424Y1180835D01*
X1022152Y1181034D01*
X1022813Y1181166D01*
X1023607Y1181298D01*
X1024665Y1181431D01*
X1028237Y1181695D01*
X1029560Y1181827D01*
X1031941Y1182092D01*
X1033000Y1182224D01*
X1035249Y1182357D01*
X1040607Y1182423D01*
X1041003Y1182290D01*
X1045700Y1182092D01*
X1048676Y1181761D01*
X1049602Y1181629D01*
X1052513Y1181497D01*
X1054232Y1181364D01*
X1054629Y1181232D01*
X1055555Y1181100D01*
X1056482Y1180835D01*
X1058069Y1180438D01*
X1059392Y1180306D01*
X1060318Y1180174D01*
X1060847Y1180042D01*
X1061839Y1179843D01*
X1064154Y1179115D01*
X1065477Y1178983D01*
X1066469Y1178785D01*
X1067991Y1178057D01*
X1069049Y1177793D01*
X1069975Y1177660D01*
X1070835Y1177330D01*
X1071496Y1177065D01*
X1072224Y1176734D01*
X1073150Y1176470D01*
X1074010Y1176271D01*
X1074671Y1176007D01*
X1074870Y1175808D01*
X1075796Y1175411D01*
X1076722Y1175147D01*
X1077251Y1175014D01*
X1079500Y1173956D01*
X1080360Y1173758D01*
X1081088Y1173295D01*
X1081352Y1173030D01*
X1082014Y1172765D01*
X1082543Y1172633D01*
X1083403Y1172302D01*
X1083601Y1172104D01*
X1083866Y1171972D01*
X1085321Y1171310D01*
X1086512Y1170649D01*
X1088761Y1169458D01*
X1089025Y1169194D01*
X1089687Y1168929D01*
X1090546Y1168598D01*
X1091010Y1168268D01*
X1091407Y1167871D01*
X1092068Y1167606D01*
X1092795Y1167408D01*
X1092994Y1167209D01*
X1093258Y1167077D01*
X1093589Y1166614D01*
X1094449Y1166151D01*
X1094714Y1166019D01*
X1095441Y1165423D01*
X1097029Y1164630D01*
X1097757Y1163902D01*
X1098682Y1163373D01*
X1099410Y1162777D01*
X1100138Y1162447D01*
X1100799Y1162050D01*
X1100998Y1161851D01*
X1101130Y1161587D01*
X1101328Y1161388D01*
X1102254Y1160859D01*
X1102916Y1160198D01*
X1103180Y1160065D01*
X1105032Y1158743D01*
X1105694Y1158346D01*
X1105892Y1158147D01*
X1106025Y1157883D01*
X1106355Y1157552D01*
X1106620Y1157420D01*
X1106885Y1157155D01*
X1107149Y1157023D01*
X1107480Y1156560D01*
X1107811Y1156229D01*
X1108075Y1156097D01*
X1108340Y1155832D01*
X1108604Y1155700D01*
X1109001Y1155171D01*
X1109266Y1155038D01*
X1109663Y1154642D01*
X1109927Y1154509D01*
X1110853Y1153583D01*
X1111118Y1153451D01*
X1112176Y1152393D01*
X1112441Y1152260D01*
X1112705Y1151996D01*
X1112970Y1151863D01*
X1113499Y1151334D01*
X1113764Y1151202D01*
X1114690Y1150540D01*
X1114888Y1150342D01*
X1115020Y1150077D01*
X1115219Y1149879D01*
X1115483Y1149747D01*
X1116211Y1149019D01*
X1116343Y1148755D01*
X1116807Y1148424D01*
X1117269Y1147961D01*
X1117402Y1147696D01*
X1117732Y1147365D01*
X1117997Y1147233D01*
X1118592Y1146638D01*
X1118725Y1146373D01*
X1119055Y1146043D01*
X1119320Y1145910D01*
X1119783Y1145447D01*
X1119915Y1145183D01*
X1120511Y1144587D01*
X1120775Y1144455D01*
X1120974Y1144257D01*
X1121106Y1143992D01*
X1121833Y1143264D01*
X1122098Y1143132D01*
X1122826Y1142008D01*
X1123355Y1141479D01*
X1123487Y1141214D01*
X1124545Y1140156D01*
X1124678Y1139891D01*
X1125273Y1139163D01*
X1125868Y1138568D01*
X1126001Y1138304D01*
X1126265Y1138039D01*
X1126398Y1137774D01*
X1127324Y1136848D01*
X1127456Y1136584D01*
X1127919Y1135988D01*
X1128183Y1135856D01*
X1128514Y1135526D01*
X1128646Y1135261D01*
X1129110Y1134665D01*
X1129374Y1134533D01*
X1129837Y1134070D01*
X1130499Y1132880D01*
X1130895Y1132483D01*
X1131028Y1132218D01*
X1131954Y1131027D01*
X1132351Y1130631D01*
X1132748Y1129969D01*
X1133674Y1129043D01*
X1133806Y1128514D01*
X1134203Y1127852D01*
X1134732Y1127323D01*
X1135261Y1126397D01*
X1136055Y1125604D01*
X1136452Y1124677D01*
X1136584Y1124413D01*
X1136782Y1124214D01*
X1137841Y1124347D01*
X1138105Y1124611D01*
X1138370Y1124744D01*
X1138701Y1125074D01*
X1139230Y1126001D01*
X1139759Y1126530D01*
X1139891Y1126794D01*
X1140156Y1127456D01*
X1140553Y1128117D01*
X1140751Y1128315D01*
X1141016Y1128448D01*
X1141214Y1128646D01*
X1141346Y1128911D01*
X1142273Y1130101D01*
X1142537Y1130366D01*
X1142669Y1130631D01*
X1143331Y1131557D01*
X1143595Y1131821D01*
X1144257Y1133012D01*
X1145183Y1133938D01*
X1145315Y1134202D01*
X1146374Y1135261D01*
X1146506Y1135526D01*
X1146770Y1135790D01*
X1146903Y1136055D01*
X1147829Y1136981D01*
X1147961Y1137245D01*
X1148557Y1137973D01*
X1149152Y1138568D01*
X1149284Y1138833D01*
X1149879Y1139560D01*
X1150078Y1139759D01*
X1150607Y1140685D01*
X1150938Y1141015D01*
X1151202Y1141148D01*
X1151401Y1141346D01*
X1151533Y1141611D01*
X1152988Y1143066D01*
X1153120Y1143331D01*
X1153583Y1143661D01*
X1154179Y1144257D01*
X1154311Y1144521D01*
X1154510Y1144720D01*
X1154774Y1144852D01*
X1155369Y1145447D01*
X1155502Y1145712D01*
X1155965Y1146175D01*
X1156229Y1146307D01*
X1156428Y1146506D01*
X1156560Y1146770D01*
X1160860Y1151070D01*
X1161124Y1151202D01*
X1162315Y1152393D01*
X1162579Y1152525D01*
X1163042Y1152988D01*
X1163175Y1153252D01*
X1163373Y1153451D01*
X1164299Y1153980D01*
X1164696Y1154377D01*
X1164961Y1154509D01*
X1165225Y1154774D01*
X1165490Y1154906D01*
X1166548Y1155964D01*
X1166813Y1156097D01*
X1167342Y1156626D01*
X1167607Y1156758D01*
X1168400Y1157552D01*
X1168665Y1157684D01*
X1169591Y1158610D01*
X1169855Y1158743D01*
X1170120Y1159007D01*
X1170318Y1159073D01*
X1170451Y1159338D01*
X1170914Y1159801D01*
X1172104Y1160463D01*
X1172501Y1160859D01*
X1172766Y1160992D01*
X1174023Y1161851D01*
X1174486Y1162314D01*
X1174750Y1162447D01*
X1176007Y1163307D01*
X1176205Y1163505D01*
X1176867Y1163770D01*
X1177594Y1164365D01*
X1177925Y1164696D01*
X1179116Y1165357D01*
X1179446Y1165688D01*
X1179579Y1165952D01*
X1180307Y1166283D01*
X1181034Y1166482D01*
X1181497Y1166812D01*
X1182026Y1167342D01*
X1183349Y1167871D01*
X1184672Y1168797D01*
X1185201Y1168929D01*
X1186458Y1169789D01*
X1187781Y1170318D01*
X1188244Y1170649D01*
X1188905Y1171046D01*
X1190228Y1171575D01*
X1190493Y1171707D01*
X1191287Y1172236D01*
X1191948Y1172501D01*
X1193205Y1172964D01*
X1193403Y1173162D01*
X1193668Y1173295D01*
X1194858Y1173824D01*
X1195388Y1173956D01*
X1196248Y1174287D01*
X1196446Y1174485D01*
X1196711Y1174618D01*
X1197901Y1175147D01*
X1198893Y1175345D01*
X1201076Y1176337D01*
X1202465Y1176668D01*
X1203127Y1176933D01*
X1204516Y1177528D01*
X1206566Y1177991D01*
X1207625Y1178388D01*
X1208485Y1178719D01*
X1209543Y1178983D01*
X1210866Y1179115D01*
X1211263Y1179248D01*
X1212519Y1179711D01*
X1213247Y1179909D01*
X1213776Y1180042D01*
X1214702Y1180174D01*
X1216025Y1180306D01*
X1216554Y1180438D01*
X1217546Y1180637D01*
X1218076Y1180769D01*
X1218737Y1180901D01*
X1219266Y1181034D01*
X1220788Y1181497D01*
X1225815Y1181629D01*
X1226212Y1181761D01*
X1229188Y1182092D01*
X1231569Y1182224D01*
X1234083Y1182357D01*
X1239573Y1182423D01*
X1239970Y1182290D01*
D02*
G37*
G36*
X1303735Y970624D02*
X1304132Y970492D01*
X1304528D01*
X1305587Y970359D01*
X1306314Y969764D01*
X1306513Y969565D01*
X1307042Y969433D01*
X1309291Y969301D01*
X1310746Y968375D01*
X1311275Y968243D01*
X1312466Y967581D01*
X1312863Y967184D01*
X1314053Y966523D01*
X1315707Y964869D01*
X1315839Y964605D01*
X1316038Y964406D01*
X1316236Y964340D01*
X1316368Y964076D01*
X1316633Y963811D01*
X1317162Y962885D01*
X1317559Y962488D01*
X1317824Y961826D01*
X1318353Y960901D01*
X1318551Y960702D01*
X1318816Y960570D01*
X1319146Y959842D01*
X1319279Y958519D01*
X1319543Y957858D01*
X1320073Y956667D01*
X1320337Y955609D01*
X1320469Y954683D01*
X1320668Y953426D01*
X1320932Y952103D01*
X1321065Y951574D01*
X1321329Y950251D01*
X1321462Y949060D01*
X1321594Y946944D01*
X1321660Y939205D01*
X1321395Y938543D01*
X1321263Y937220D01*
X1321131Y935501D01*
X1320999Y935104D01*
X1320734Y934045D01*
X1320602Y933119D01*
X1320469Y932590D01*
X1320271Y931201D01*
X1319874Y930143D01*
X1319279Y928754D01*
X1319080Y927894D01*
X1318816Y927232D01*
X1318617Y927034D01*
X1318485Y926769D01*
X1318088Y926108D01*
X1317691Y925049D01*
X1317427Y924785D01*
X1317361Y924586D01*
X1317162Y924520D01*
X1317030Y924256D01*
X1316765Y923991D01*
X1316104Y922801D01*
X1315575Y922271D01*
X1315442Y922007D01*
X1314847Y921279D01*
X1314582Y921147D01*
X1313392Y919956D01*
X1312730Y919559D01*
X1312201Y919030D01*
X1310746Y918236D01*
X1310482Y917972D01*
X1310217Y917839D01*
X1309555Y917575D01*
X1307902Y916980D01*
X1306248Y916252D01*
X1304594Y916054D01*
X1303007Y915789D01*
X1302345Y915657D01*
X1300560Y915458D01*
X1299237Y915326D01*
X1295797Y915458D01*
X1295400Y915590D01*
X1294011Y915789D01*
X1293350Y915921D01*
X1290704Y916318D01*
X1290175Y916451D01*
X1289513Y916715D01*
X1288653Y917178D01*
X1288124Y917310D01*
X1287066Y917707D01*
X1286140Y918369D01*
X1284685Y919163D01*
X1283891Y919956D01*
X1283626Y920088D01*
X1282899Y920684D01*
X1282502Y921081D01*
X1282369Y921345D01*
X1281179Y922536D01*
X1281046Y922801D01*
X1280451Y923528D01*
X1280253Y923726D01*
X1280120Y923991D01*
X1279194Y925711D01*
X1278930Y925976D01*
X1278665Y926637D01*
X1278401Y927695D01*
X1277607Y929415D01*
X1277342Y930473D01*
X1277144Y931598D01*
X1277012Y932259D01*
X1276681Y933384D01*
X1276416Y934310D01*
X1276152Y936559D01*
X1276019Y939866D01*
X1276152Y949391D01*
X1276284Y949788D01*
X1276482Y951177D01*
X1276615Y951706D01*
X1276945Y952831D01*
X1277210Y953889D01*
X1277408Y955146D01*
X1277541Y955675D01*
X1277871Y956535D01*
X1278401Y957726D01*
X1278665Y958784D01*
X1278930Y959445D01*
X1279327Y959842D01*
X1279459Y960107D01*
X1279724Y960371D01*
X1280187Y961628D01*
X1280848Y962422D01*
X1281576Y963546D01*
X1282502Y964472D01*
X1282634Y964737D01*
X1283494Y965597D01*
X1283758Y965729D01*
X1284089Y966060D01*
X1284221Y966324D01*
X1284420Y966523D01*
X1284685Y966655D01*
X1285941Y967515D01*
X1286272Y967846D01*
X1286933Y968110D01*
X1287793Y968441D01*
X1287992Y968639D01*
X1288257Y968772D01*
X1288653Y969169D01*
X1289579Y969433D01*
X1290704Y969632D01*
X1291365Y969896D01*
X1292887Y970359D01*
X1293416Y970492D01*
X1294739Y970624D01*
X1297252Y970756D01*
X1298178Y970624D01*
X1299898Y970756D01*
X1303735Y970624D01*
D02*
G37*
G36*
X1081882Y970095D02*
X1085189Y969962D01*
X1085586Y969830D01*
X1087371Y969632D01*
X1088893Y969433D01*
X1089290Y969565D01*
X1089819Y969433D01*
X1090083Y969301D01*
X1090414Y968970D01*
X1090811Y968309D01*
X1091010Y968110D01*
X1091936Y968243D01*
X1092597Y968639D01*
X1093258Y968507D01*
X1094185Y968110D01*
X1094912Y967912D01*
X1096830Y966920D01*
X1098021Y966258D01*
X1098815Y965729D01*
X1099476Y965332D01*
X1100270Y964538D01*
X1100535Y964406D01*
X1102320Y962620D01*
X1102453Y962356D01*
X1103246Y961562D01*
X1103908Y960371D01*
X1104173Y960107D01*
X1104437Y959445D01*
X1104834Y958519D01*
X1104966Y958255D01*
X1105495Y957461D01*
X1105694Y956733D01*
X1106091Y955146D01*
X1106488Y954087D01*
X1106752Y953426D01*
X1106951Y952698D01*
X1107083Y952169D01*
X1107215Y948730D01*
X1107348Y948333D01*
X1107480Y945026D01*
X1107348Y939205D01*
X1107215Y938808D01*
X1107017Y935699D01*
X1106885Y935037D01*
X1106686Y934310D01*
X1106421Y933251D01*
X1106025Y931929D01*
X1105892Y931399D01*
X1105562Y930010D01*
X1105032Y929217D01*
X1104702Y928489D01*
X1104239Y927232D01*
X1103643Y926637D01*
X1103379Y925976D01*
X1102850Y925049D01*
X1102056Y924256D01*
X1101924Y923991D01*
X1099344Y921411D01*
X1099079Y921279D01*
X1097823Y920419D01*
X1097624Y920221D01*
X1096764Y919890D01*
X1095970Y919229D01*
X1095772Y919030D01*
X1095111Y918765D01*
X1093721Y918435D01*
X1092200Y917707D01*
X1091274Y917443D01*
X1089157Y917310D01*
X1088893Y917046D01*
X1088232Y916781D01*
X1087702Y916649D01*
X1086379Y916517D01*
X1085982Y916384D01*
X1082675Y916252D01*
X1063427Y916186D01*
X1062964Y916384D01*
X1062765Y916583D01*
X1062633Y917509D01*
X1062765Y917906D01*
Y926769D01*
Y926901D01*
X1062898Y969764D01*
X1063361Y970227D01*
X1065411Y970161D01*
X1081485Y970227D01*
X1081882Y970095D01*
D02*
G37*
G36*
X984382Y970227D02*
X984647Y970095D01*
X985110Y969632D01*
X986168Y967383D01*
X986433Y966324D01*
X986632Y965332D01*
X986896Y964671D01*
X987227Y963943D01*
X987491Y963282D01*
X987624Y962752D01*
X987954Y961231D01*
X988219Y960570D01*
X988814Y959181D01*
X989277Y956998D01*
X990137Y955080D01*
X990269Y954154D01*
X990402Y953624D01*
X990534Y952831D01*
X991195Y951905D01*
X991460Y950979D01*
X991791Y949060D01*
X992452Y948002D01*
X992783Y947142D01*
X992915Y945290D01*
X993577Y944364D01*
X993974Y943438D01*
X994106Y942512D01*
X994238Y941321D01*
X995032Y939601D01*
X995230Y938874D01*
X995495Y937551D01*
X995892Y936493D01*
X996223Y935765D01*
X996487Y934839D01*
X996619Y934310D01*
X996818Y933318D01*
X997082Y932656D01*
X997545Y931796D01*
Y931664D01*
X997678Y931267D01*
X997810Y930738D01*
X998008Y929613D01*
X998405Y928555D01*
X999001Y927166D01*
X999133Y926637D01*
X999332Y925512D01*
X999464Y924983D01*
X1000324Y923330D01*
X1000456Y922007D01*
X1000720Y920948D01*
X1001382Y920022D01*
X1001646Y919096D01*
X1001779Y917906D01*
X1002176Y916980D01*
X1001845Y916384D01*
X1001316Y916252D01*
X988417Y916186D01*
X987888Y916451D01*
X987624Y917112D01*
X987425Y918236D01*
X987161Y918898D01*
X986565Y920419D01*
X986301Y922536D01*
X986168Y922933D01*
X985507Y924652D01*
X985375Y925182D01*
X985176Y926042D01*
X984912Y926703D01*
X984647Y926968D01*
X983721Y927232D01*
X970690Y927298D01*
X970227Y926968D01*
X970029Y926769D01*
X969500Y925579D01*
X969235Y924917D01*
X968838Y923594D01*
X968706Y922668D01*
X968441Y920948D01*
X967912Y919758D01*
X967780Y919229D01*
X967515Y918302D01*
X967317Y916781D01*
X966986Y916318D01*
X966391Y916120D01*
X964671Y916252D01*
X954418Y916186D01*
X953757Y916318D01*
X953360Y916715D01*
X953492Y918038D01*
X953757Y918699D01*
X954551Y920419D01*
X954683Y921345D01*
X954815Y921874D01*
X954948Y922668D01*
X955741Y924388D01*
X956006Y925446D01*
X956204Y926438D01*
X956469Y927100D01*
X957064Y928489D01*
X957329Y929547D01*
X957461Y931267D01*
X958123Y931929D01*
X958387Y932590D01*
X958519Y933119D01*
X958652Y934971D01*
X959578Y936294D01*
X959842Y938146D01*
X960041Y939006D01*
X960239Y939205D01*
X960371Y939469D01*
X960901Y940660D01*
X961033Y941586D01*
X961165Y942115D01*
X961298Y942909D01*
X962091Y944629D01*
X962356Y945687D01*
X962554Y946679D01*
X963216Y948134D01*
X963414Y948862D01*
X963679Y949920D01*
X963811Y950714D01*
X964340Y951905D01*
X964605Y952566D01*
X964869Y953492D01*
X965002Y955212D01*
X965928Y956535D01*
X966060Y957064D01*
X966258Y958850D01*
X966523Y959511D01*
X966721Y959710D01*
X966854Y959974D01*
X967251Y960901D01*
X967383Y961826D01*
X967714Y963215D01*
X968309Y964340D01*
X968574Y965266D01*
X968706Y966192D01*
X968838Y966721D01*
X969169Y967581D01*
X969500Y968309D01*
X970426Y970029D01*
X970624Y970227D01*
X971219Y970293D01*
X971881Y970161D01*
X972741Y970095D01*
X973138Y970227D01*
X983258Y970161D01*
X983919Y970293D01*
X983986Y970359D01*
X984382Y970227D01*
D02*
G37*
G36*
X1266693Y969962D02*
X1267024Y969632D01*
X1267288Y968970D01*
X1267420Y968441D01*
X1267288Y965927D01*
X1267354Y916781D01*
X1267090Y916384D01*
X1266561Y916252D01*
X1265635Y916120D01*
X1265238Y916252D01*
X1253927Y916186D01*
X1253464Y916384D01*
X1253133Y917112D01*
X1253001Y917773D01*
X1252405Y918501D01*
X1252207Y918699D01*
X1251942Y919361D01*
X1251744Y920088D01*
X1251281Y920816D01*
X1250884Y921213D01*
X1250619Y922139D01*
X1250090Y923065D01*
X1249429Y923991D01*
X1249230Y924719D01*
X1248966Y925380D01*
X1248503Y925843D01*
X1248106Y926769D01*
X1247444Y927960D01*
X1246254Y930209D01*
X1245195Y932193D01*
X1244402Y932987D01*
X1244203Y934111D01*
X1244005Y934574D01*
X1243211Y935368D01*
X1243079Y935897D01*
X1242880Y936625D01*
X1242682Y937088D01*
X1242020Y937749D01*
X1241756Y938676D01*
X1241491Y939337D01*
X1240896Y940064D01*
X1240698Y940263D01*
X1240565Y940792D01*
X1240235Y941652D01*
X1239705Y942446D01*
X1239375Y942776D01*
X1239176Y943504D01*
X1238912Y944165D01*
X1238713Y944364D01*
X1238581Y944629D01*
X1238052Y945422D01*
X1237853Y946150D01*
X1237655Y946613D01*
X1237390Y946877D01*
X1237258Y947142D01*
X1236596Y947804D01*
X1236133Y948663D01*
X1235869Y948531D01*
X1235670Y948333D01*
X1235538Y947142D01*
X1235670Y946745D01*
X1235803Y944364D01*
X1235670Y943967D01*
X1235737Y937815D01*
X1235670Y936426D01*
X1235803Y936030D01*
X1235869Y916913D01*
X1235538Y916451D01*
X1234943Y916252D01*
X1234083Y916186D01*
X1233488Y916252D01*
X1233355D01*
X1223367Y916186D01*
X1222838Y916583D01*
X1222706Y917112D01*
X1222772Y918898D01*
X1222706Y966854D01*
X1222838Y967251D01*
X1222706Y967647D01*
X1222838Y969499D01*
X1223235Y970161D01*
X1224624Y970227D01*
X1225021Y970095D01*
X1226344Y970227D01*
X1235935Y970161D01*
X1236729Y970293D01*
X1236795Y970359D01*
X1237655Y969896D01*
X1237787Y969632D01*
X1238449Y968706D01*
X1238978Y968176D01*
X1239176Y967449D01*
X1239441Y966788D01*
X1240168Y965795D01*
X1240433Y965134D01*
X1240764Y964274D01*
X1240962Y964076D01*
X1241094Y963811D01*
X1241359Y963546D01*
X1241756Y962620D01*
X1242417Y961430D01*
X1243343Y959710D01*
X1244137Y958916D01*
X1244269Y957990D01*
X1244534Y957329D01*
X1245328Y956535D01*
X1245592Y955476D01*
X1246055Y954617D01*
X1246320Y954484D01*
X1246651Y953889D01*
X1246783Y953360D01*
X1247114Y952500D01*
X1247709Y951905D01*
X1248106Y950979D01*
X1248238Y950449D01*
X1248900Y949523D01*
X1249429Y948333D01*
X1249958Y947407D01*
X1250223Y947142D01*
X1250619Y946216D01*
X1251281Y945026D01*
X1252207Y943306D01*
X1252736Y942776D01*
X1253001Y942115D01*
X1253199Y940990D01*
X1253464Y940594D01*
X1253861Y940461D01*
X1254324Y940792D01*
X1254588Y941454D01*
X1254456Y947936D01*
X1254522Y967317D01*
X1254456Y968838D01*
X1254588Y969235D01*
X1254787Y969962D01*
X1255051Y970227D01*
X1257234Y970161D01*
X1264312Y970227D01*
X1264708Y970095D01*
X1265965Y970293D01*
X1266032Y970359D01*
X1266693Y969962D01*
D02*
G37*
G36*
X1212057Y970095D02*
X1212387Y969367D01*
X1212519Y967912D01*
X1212387Y967515D01*
X1212453Y960040D01*
X1212321Y959379D01*
X1211924Y958850D01*
X1211395Y958718D01*
X1210072Y958850D01*
X1198960Y958718D01*
X1198629Y958122D01*
X1198496Y957593D01*
Y942909D01*
Y942776D01*
X1198629Y927960D01*
X1198960Y927629D01*
X1199489Y927497D01*
X1211858Y927563D01*
X1212321Y927232D01*
X1212519Y926505D01*
X1212387Y924388D01*
X1212453Y916781D01*
X1212057Y916252D01*
X1211130Y916120D01*
X1210204Y916252D01*
X1171377Y916186D01*
X1170914Y916384D01*
X1170715Y916583D01*
X1170583Y917509D01*
X1170715Y917906D01*
X1170649Y926703D01*
X1170914Y927364D01*
X1171575Y927629D01*
X1173692Y927497D01*
X1184275Y927629D01*
X1184474Y927827D01*
X1184738Y928886D01*
X1184606Y930209D01*
X1184672Y957395D01*
X1184540Y958056D01*
X1184341Y958519D01*
X1184011Y958850D01*
X1183349Y958982D01*
X1182952Y958850D01*
X1171377Y958784D01*
X1170914Y959114D01*
X1170715Y959842D01*
X1170848Y969764D01*
X1171311Y970227D01*
X1173361Y970161D01*
X1209675Y970227D01*
X1210072Y970095D01*
X1211395Y970227D01*
X1212057Y970095D01*
D02*
G37*
G36*
X1158743Y969962D02*
X1159074Y969632D01*
X1159206Y969367D01*
X1159470Y968706D01*
X1159537Y968243D01*
X1159404Y933185D01*
X1159272Y931465D01*
X1159140Y930010D01*
X1159007Y928820D01*
X1158544Y927563D01*
X1158015Y926372D01*
X1157817Y925512D01*
X1157552Y924851D01*
X1156957Y924256D01*
X1156692Y923594D01*
X1156560Y923065D01*
X1155965Y922338D01*
X1155700Y922205D01*
X1155502Y922007D01*
X1155369Y921742D01*
X1153583Y919956D01*
X1153319Y919824D01*
X1151996Y918898D01*
X1150805Y918236D01*
X1150012Y917707D01*
X1149482Y917575D01*
X1147829Y916980D01*
X1146175Y916252D01*
X1144125Y916054D01*
X1140950Y915524D01*
X1139494Y915392D01*
X1136253Y915326D01*
X1135857Y915458D01*
X1134004Y915590D01*
X1133607Y915723D01*
X1132351Y915921D01*
X1131557Y916054D01*
X1129440Y916186D01*
X1128977Y916517D01*
X1128779Y916715D01*
X1128382Y917376D01*
X1127787Y917575D01*
X1127390Y917443D01*
X1126067Y917575D01*
X1124744Y918501D01*
X1123884Y918832D01*
X1123024Y919692D01*
X1122760Y919824D01*
X1122363Y920221D01*
X1122098Y920353D01*
X1121238Y921213D01*
X1121106Y921477D01*
X1120048Y922536D01*
X1119254Y923991D01*
X1118725Y924785D01*
X1118526Y925512D01*
X1118394Y926042D01*
X1118129Y926703D01*
X1117931Y926901D01*
X1117799Y927166D01*
X1117402Y928092D01*
X1117269Y929018D01*
X1117137Y931399D01*
X1117005Y931796D01*
X1116873Y934707D01*
X1116807Y968772D01*
X1117336Y969565D01*
X1117534Y969764D01*
X1117666Y970029D01*
X1118526Y970359D01*
X1118923Y970227D01*
X1119849Y970095D01*
X1120378Y970227D01*
X1127985Y970161D01*
X1128646Y970293D01*
X1128845Y970359D01*
X1129705Y969896D01*
X1129837Y969632D01*
X1130366Y968838D01*
X1130300Y966788D01*
X1130432Y936360D01*
X1130763Y933384D01*
X1130895Y932987D01*
X1131160Y932061D01*
X1131292Y930606D01*
X1132152Y929349D01*
X1132682Y928555D01*
X1133343Y927894D01*
X1133607Y927761D01*
X1134269Y927497D01*
X1134996Y927298D01*
X1135790Y926769D01*
X1136386Y926571D01*
X1137576Y926703D01*
X1137973Y926835D01*
X1139032Y926703D01*
X1139428Y926571D01*
X1140751Y926703D01*
X1141413Y926968D01*
X1142669Y927431D01*
X1143331Y927695D01*
X1143860Y928224D01*
X1143992Y928489D01*
X1144588Y929084D01*
X1144852Y929217D01*
X1145051Y929415D01*
X1145315Y930076D01*
X1145448Y930606D01*
X1145778Y931465D01*
X1145977Y932061D01*
X1146109Y932590D01*
X1146241Y934310D01*
X1146374Y935236D01*
X1146506Y938940D01*
Y954683D01*
Y954815D01*
X1146638Y969632D01*
X1147101Y970227D01*
X1149284Y970161D01*
X1156362Y970227D01*
X1156758Y970095D01*
X1158015Y970293D01*
X1158082Y970359D01*
X1158743Y969962D01*
D02*
G37*
G36*
X1012494Y970161D02*
X1013354Y970095D01*
X1013751Y970227D01*
X1034653Y970095D01*
X1035050Y969962D01*
X1036836Y969764D01*
X1037630Y969632D01*
X1039416Y969433D01*
X1040871Y969301D01*
X1042326Y968375D01*
X1043715Y968044D01*
X1044774Y967383D01*
X1044972Y967184D01*
X1045633Y966920D01*
X1046295Y966523D01*
X1047089Y965729D01*
X1047353Y965597D01*
X1047750Y965200D01*
X1048015Y965068D01*
X1048345Y964737D01*
X1048478Y964472D01*
X1049536Y963414D01*
X1049668Y963149D01*
X1050330Y961959D01*
X1050991Y961033D01*
X1051256Y960107D01*
X1051388Y959577D01*
X1051653Y958916D01*
X1052314Y957990D01*
X1052446Y957064D01*
X1052579Y950979D01*
X1052446Y947804D01*
X1052314Y947407D01*
X1052182Y946348D01*
X1051520Y944893D01*
X1051256Y943967D01*
X1051057Y943107D01*
X1050528Y942313D01*
X1050065Y941851D01*
X1049338Y940461D01*
X1049139Y940395D01*
X1049007Y940131D01*
X1048081Y938940D01*
X1047882Y938742D01*
X1047618Y938609D01*
X1047287Y938279D01*
X1047221Y938080D01*
X1046957Y937948D01*
X1046692Y937683D01*
X1046030Y937286D01*
X1045501Y936757D01*
X1044244Y936294D01*
X1043980Y935765D01*
X1044575Y935037D01*
X1044906Y934310D01*
X1045237Y933450D01*
X1045832Y932855D01*
X1046096Y932193D01*
X1046229Y931664D01*
X1046758Y930738D01*
X1047023Y930473D01*
X1047155Y930209D01*
X1047419Y929547D01*
X1048081Y928357D01*
X1049271Y926108D01*
X1050330Y924123D01*
X1050661Y923793D01*
X1050859Y923726D01*
X1050991Y923462D01*
X1051124Y923065D01*
X1051256Y922536D01*
X1051454Y921808D01*
X1052314Y920948D01*
X1052446Y920419D01*
X1052645Y919559D01*
X1052843Y919361D01*
X1052976Y919096D01*
X1053505Y918567D01*
X1053836Y917707D01*
X1054166Y916980D01*
X1054034Y916583D01*
X1053836Y916384D01*
X1053307Y916252D01*
X1039350Y916186D01*
X1038820Y916318D01*
X1038357Y916649D01*
X1037498Y917509D01*
X1037233Y918567D01*
X1037101Y919229D01*
X1036175Y920155D01*
X1035778Y922007D01*
X1035116Y922933D01*
X1034653Y924189D01*
X1034389Y924851D01*
X1033860Y925645D01*
X1033198Y927364D01*
X1032537Y928423D01*
X1031875Y930143D01*
X1031346Y930936D01*
X1031015Y931664D01*
X1030751Y932326D01*
X1030552Y932656D01*
X1029891Y932921D01*
X1029362Y933053D01*
X1028436Y933185D01*
X1026583Y933053D01*
X1026187Y933185D01*
X1024864Y933053D01*
X1024268Y932590D01*
X1024004Y931532D01*
X1024136Y929812D01*
Y923991D01*
Y923859D01*
X1024070Y918236D01*
X1024136Y916847D01*
X1023938Y916517D01*
X1023276Y916252D01*
X1011436Y916186D01*
X1010907Y916318D01*
X1010510Y916715D01*
X1010378Y917244D01*
X1010510Y918964D01*
X1010444Y968639D01*
X1010576Y969169D01*
X1010775Y969632D01*
X1011238Y970227D01*
X1011833Y970293D01*
X1012494Y970161D01*
D02*
G37*
%LPC*%
G36*
X1323578Y1180306D02*
X1320139Y1180174D01*
X1319213Y1179248D01*
X1318551Y1178983D01*
X1317824Y1178785D01*
X1317096Y1178322D01*
X1316368Y1177594D01*
X1316236Y1177330D01*
X1315575Y1176404D01*
X1315310Y1175477D01*
X1314781Y1173758D01*
X1314649Y1172832D01*
X1314781Y1170847D01*
X1315178Y1169921D01*
X1315310Y1169392D01*
X1315641Y1168532D01*
X1315971Y1168069D01*
X1318419Y1165622D01*
X1319742Y1164960D01*
X1319874D01*
X1320866Y1164762D01*
X1323446Y1164696D01*
X1323843Y1164828D01*
X1325232Y1165159D01*
X1325695Y1165489D01*
X1325960Y1165754D01*
X1326224Y1165886D01*
X1327415Y1166812D01*
X1328275Y1167672D01*
X1328936Y1168863D01*
X1329333Y1169789D01*
X1329465Y1170318D01*
X1329333Y1175477D01*
X1328407Y1176800D01*
X1327878Y1177726D01*
X1327547Y1178057D01*
X1327282Y1178189D01*
X1326621Y1178851D01*
X1325960Y1179115D01*
X1325232Y1179314D01*
X1324504Y1179777D01*
X1324240Y1180042D01*
X1323578Y1180306D01*
D02*
G37*
%LPD*%
G36*
X1323446Y1177925D02*
X1323975Y1177793D01*
X1325166Y1177131D01*
X1325496Y1176801D01*
X1325893Y1176139D01*
X1326423Y1175610D01*
X1326555Y1175345D01*
X1326687Y1174948D01*
X1326753Y1174353D01*
X1326621Y1173692D01*
X1326423Y1173493D01*
X1326290Y1173229D01*
X1326026Y1172964D01*
X1325496Y1171773D01*
X1325232Y1171112D01*
X1325364Y1170054D01*
X1325629Y1169789D01*
X1325695Y1169590D01*
X1325827D01*
X1325893Y1169524D01*
X1326687Y1168731D01*
X1326555Y1167805D01*
X1326224Y1167474D01*
X1324240Y1167606D01*
X1323578Y1168003D01*
X1323248Y1168731D01*
X1323049Y1169458D01*
X1322785Y1169855D01*
X1322255Y1169988D01*
X1321792Y1169657D01*
X1321660Y1169127D01*
X1321528Y1167937D01*
X1321197Y1167474D01*
X1320668Y1167342D01*
X1319742Y1167474D01*
X1319080Y1167738D01*
X1318419Y1168135D01*
X1318220Y1168731D01*
X1318353Y1170054D01*
X1318485Y1177330D01*
X1318816Y1177660D01*
X1319543Y1177859D01*
X1320073Y1177991D01*
X1323049Y1178057D01*
X1323446Y1177925D01*
D02*
G37*
%LPC*%
G36*
X1322785Y1175279D02*
X1321594Y1175147D01*
X1321395Y1174948D01*
X1321263Y1174022D01*
X1321395Y1173361D01*
X1321726Y1173030D01*
X1322785Y1173162D01*
X1322851Y1173229D01*
X1323115Y1173890D01*
X1322983Y1175081D01*
X1322785Y1175279D01*
D02*
G37*
G36*
X1237457Y1149350D02*
X1236530Y1148953D01*
X1236001Y1148821D01*
X1234546Y1149218D01*
X1232032Y1149085D01*
X1230710Y1148953D01*
X1230048Y1148688D01*
X1229122Y1148556D01*
X1227733Y1148622D01*
X1225352Y1148490D01*
X1224293Y1148358D01*
X1223632Y1148225D01*
X1222574Y1147961D01*
X1221449Y1147630D01*
X1220920Y1147498D01*
X1219663Y1147299D01*
X1218869Y1147167D01*
X1218208Y1147035D01*
X1217679Y1146902D01*
X1216157Y1146175D01*
X1215232Y1146043D01*
X1214702Y1145910D01*
X1213908Y1145778D01*
X1212982Y1145249D01*
X1212057Y1144852D01*
X1210667Y1144521D01*
X1209543Y1143926D01*
X1208882Y1143661D01*
X1207228Y1143066D01*
X1207029Y1142868D01*
X1206765Y1142735D01*
X1205574Y1142206D01*
X1204714Y1141875D01*
X1204251Y1141545D01*
X1203987Y1141280D01*
X1203325Y1141015D01*
X1202465Y1140685D01*
X1202002Y1140354D01*
X1201208Y1139825D01*
X1200547Y1139560D01*
X1199886Y1139163D01*
X1199621Y1138899D01*
X1197901Y1137973D01*
X1197372Y1137444D01*
X1197107Y1137311D01*
X1195652Y1136518D01*
X1195255Y1136121D01*
X1194065Y1135459D01*
X1193271Y1134665D01*
X1192345Y1134136D01*
X1191948Y1133739D01*
X1191683Y1133607D01*
X1190427Y1132747D01*
X1189832Y1132152D01*
X1189567Y1132020D01*
X1188839Y1131424D01*
X1188244Y1130829D01*
X1187979Y1130697D01*
X1187252Y1130101D01*
X1187119Y1129837D01*
X1186921Y1129638D01*
X1186657Y1129506D01*
X1186392Y1129242D01*
X1186127Y1129109D01*
X1185796Y1128646D01*
X1185333Y1128183D01*
X1185069Y1128051D01*
X1184606Y1127588D01*
X1184474Y1127323D01*
X1184143Y1126993D01*
X1183878Y1126860D01*
X1183151Y1126265D01*
X1182555Y1125670D01*
X1182291Y1125538D01*
X1181828Y1125074D01*
X1181695Y1124810D01*
X1181232Y1124479D01*
X1180174Y1123421D01*
X1179910Y1123288D01*
X1179711Y1123090D01*
X1179182Y1122164D01*
X1178851Y1121833D01*
X1178587Y1121701D01*
X1178256Y1121370D01*
X1178124Y1121106D01*
X1177793Y1120643D01*
X1177528Y1120510D01*
X1176933Y1119915D01*
X1176801Y1119650D01*
X1176205Y1119055D01*
X1176007Y1118989D01*
X1175875Y1118724D01*
X1175610Y1118460D01*
X1175478Y1118195D01*
X1175147Y1117864D01*
X1174882Y1117732D01*
X1174684Y1117534D01*
X1174552Y1117269D01*
X1174287Y1117005D01*
X1174155Y1116740D01*
X1173957Y1116542D01*
X1173692Y1116409D01*
X1173493Y1116211D01*
X1173361Y1115946D01*
X1172964Y1115549D01*
X1172832Y1115285D01*
X1172038Y1114491D01*
X1171906Y1114226D01*
X1170980Y1113036D01*
X1170318Y1111845D01*
X1169988Y1111514D01*
X1169723Y1111382D01*
X1169525Y1111184D01*
X1169392Y1110919D01*
X1168797Y1110059D01*
X1168532Y1109927D01*
X1167540Y1108538D01*
X1167143Y1108141D01*
X1166283Y1106488D01*
X1166019Y1106355D01*
X1165688Y1106024D01*
X1165027Y1104834D01*
X1164498Y1104305D01*
X1164167Y1103445D01*
X1163704Y1102717D01*
X1163505Y1102519D01*
X1163241Y1102386D01*
X1162447Y1101063D01*
X1161984Y1100600D01*
X1161521Y1099344D01*
X1161190Y1098881D01*
X1160661Y1098351D01*
X1159867Y1096896D01*
X1159338Y1096102D01*
X1159074Y1095441D01*
X1158941Y1095176D01*
X1158346Y1094449D01*
X1158148Y1094250D01*
X1157883Y1093324D01*
X1157354Y1092398D01*
X1156957Y1092001D01*
X1156692Y1091340D01*
X1156494Y1090612D01*
X1156295Y1090149D01*
X1156031Y1089488D01*
X1156163Y1088959D01*
X1156560Y1088562D01*
X1156825Y1087900D01*
X1157221Y1087239D01*
X1157751Y1086445D01*
X1157883Y1085916D01*
X1158478Y1085188D01*
X1158809Y1084990D01*
X1158941Y1084725D01*
X1159206Y1084064D01*
X1159338Y1083402D01*
X1159933Y1082675D01*
X1160264Y1082344D01*
X1160727Y1081087D01*
X1161058Y1080757D01*
X1161190Y1080492D01*
X1161455Y1080227D01*
X1162116Y1079037D01*
X1162778Y1078375D01*
X1163307Y1077052D01*
X1163968Y1076391D01*
X1164630Y1075200D01*
X1165093Y1074870D01*
X1165291Y1074671D01*
X1165556Y1074010D01*
X1166085Y1073084D01*
X1166482Y1072687D01*
X1167143Y1071496D01*
X1167474Y1071165D01*
X1167739Y1071033D01*
X1168334Y1070041D01*
X1168466Y1069776D01*
X1168995Y1069247D01*
X1169128Y1068983D01*
X1169789Y1068057D01*
X1170318Y1067527D01*
X1170451Y1067263D01*
X1171178Y1066271D01*
X1171443Y1066138D01*
X1171972Y1065345D01*
X1172170Y1065146D01*
X1172237Y1064948D01*
X1172501Y1064815D01*
X1173096Y1064220D01*
X1173626Y1063294D01*
X1174155Y1062765D01*
X1174287Y1062500D01*
X1174552Y1062236D01*
X1174684Y1061971D01*
X1174882Y1061773D01*
X1175147Y1061640D01*
X1175345Y1061442D01*
X1175478Y1061177D01*
X1176536Y1060119D01*
X1176668Y1059855D01*
X1177330Y1059193D01*
X1177462Y1058929D01*
X1178388Y1058002D01*
X1178520Y1057738D01*
X1178983Y1057275D01*
X1179248Y1057143D01*
X1179579Y1056680D01*
X1179711Y1056547D01*
X1179777Y1056481D01*
X1180571Y1055687D01*
X1180836Y1055555D01*
X1181166Y1055092D01*
X1181497Y1054761D01*
X1181762Y1054629D01*
X1183349Y1053042D01*
X1183614Y1052909D01*
X1185862Y1050660D01*
X1186127Y1050528D01*
X1187318Y1049338D01*
X1187582Y1049205D01*
X1188244Y1048544D01*
X1189435Y1047882D01*
X1190493Y1046824D01*
X1191154Y1046427D01*
X1191948Y1045633D01*
X1192610Y1045236D01*
X1193337Y1044641D01*
X1194594Y1044046D01*
X1195520Y1043120D01*
X1196446Y1042590D01*
X1196843Y1042194D01*
X1197107Y1042061D01*
X1197769Y1041797D01*
X1198298Y1041664D01*
X1199224Y1040738D01*
X1200679Y1039945D01*
X1201473Y1039415D01*
X1202002Y1039283D01*
X1202928Y1038754D01*
X1203325Y1038357D01*
X1204979Y1037762D01*
X1205442Y1037431D01*
X1206236Y1036902D01*
X1207095Y1036704D01*
X1207757Y1036439D01*
X1208551Y1035910D01*
X1209411Y1035579D01*
X1209940Y1035447D01*
X1211196Y1034984D01*
X1212189Y1034388D01*
X1213313Y1034190D01*
X1213842Y1034058D01*
X1214901Y1033661D01*
X1216290Y1033065D01*
X1217546Y1032867D01*
X1218076Y1032735D01*
X1218737Y1032602D01*
X1219399Y1032338D01*
X1220523Y1032007D01*
X1221582Y1031743D01*
X1223764Y1031544D01*
X1224426Y1031412D01*
X1224955Y1031280D01*
X1226939Y1030883D01*
X1228725Y1030684D01*
X1229651Y1030552D01*
X1232165Y1030420D01*
X1236861Y1030354D01*
X1241756Y1030486D01*
X1243343Y1030618D01*
X1244402Y1030750D01*
X1245195Y1030883D01*
X1245725Y1031015D01*
X1247048Y1031280D01*
X1247577Y1031412D01*
X1248238Y1031544D01*
X1250884Y1031941D01*
X1251678Y1032073D01*
X1252339Y1032338D01*
X1253464Y1032801D01*
X1253993Y1032933D01*
X1255448Y1033065D01*
X1257168Y1033859D01*
X1258755Y1034256D01*
X1259615Y1034587D01*
X1261269Y1035447D01*
X1262261Y1035645D01*
X1262989Y1036108D01*
X1263386Y1036505D01*
X1264312Y1036770D01*
X1264973Y1036902D01*
X1265701Y1037497D01*
X1266032Y1037828D01*
X1267090Y1038093D01*
X1268016Y1038622D01*
X1268280Y1038886D01*
X1268545Y1039019D01*
X1269207Y1039283D01*
X1270132Y1039813D01*
X1270529Y1040209D01*
X1271720Y1040871D01*
X1272514Y1041664D01*
X1273374Y1041995D01*
X1274101Y1042458D01*
X1274630Y1042987D01*
X1275557Y1043517D01*
X1275755Y1043715D01*
X1275887Y1043980D01*
X1276350Y1044310D01*
X1277078Y1044906D01*
X1277805Y1045633D01*
X1278732Y1046162D01*
X1279393Y1046824D01*
X1279657Y1046956D01*
X1280848Y1048147D01*
X1281113Y1048279D01*
X1281774Y1049073D01*
X1282039Y1049338D01*
X1282303Y1049470D01*
X1282634Y1049933D01*
X1283825Y1051123D01*
X1283957Y1051388D01*
X1284618Y1052049D01*
X1284751Y1052314D01*
X1285412Y1053240D01*
X1286206Y1054034D01*
X1286338Y1054298D01*
X1286603Y1054563D01*
X1286735Y1054827D01*
X1287132Y1055092D01*
X1287264Y1055357D01*
X1288190Y1056547D01*
X1288852Y1057473D01*
X1289381Y1058399D01*
X1289645Y1058664D01*
X1289778Y1058929D01*
X1290439Y1060119D01*
X1290836Y1060516D01*
X1290968Y1060781D01*
X1291233Y1061442D01*
X1291894Y1062633D01*
X1292291Y1063030D01*
X1292556Y1063956D01*
X1292887Y1064815D01*
X1293482Y1065411D01*
X1293746Y1066072D01*
X1293945Y1066932D01*
X1294210Y1067594D01*
X1294540Y1067924D01*
X1294673Y1068189D01*
X1294937Y1068850D01*
X1295202Y1069909D01*
X1295532Y1070769D01*
X1296260Y1072422D01*
X1296392Y1073348D01*
X1296525Y1074671D01*
X1297318Y1075994D01*
X1297583Y1077582D01*
X1297715Y1078111D01*
X1297848Y1080095D01*
X1298112Y1080757D01*
X1298377Y1081815D01*
X1298575Y1082939D01*
X1298707Y1083998D01*
X1298906Y1087900D01*
X1298774Y1095441D01*
X1298641Y1095838D01*
X1298443Y1097359D01*
X1298311Y1097888D01*
X1298046Y1099211D01*
X1297782Y1100270D01*
X1297517Y1102651D01*
X1297385Y1103180D01*
X1296855Y1104635D01*
X1296525Y1105495D01*
X1296392Y1106421D01*
X1296260Y1106950D01*
X1296062Y1107678D01*
X1295797Y1108339D01*
X1295599Y1108538D01*
X1295334Y1109199D01*
X1295202Y1109729D01*
X1295003Y1110588D01*
X1294739Y1111250D01*
X1294540Y1111448D01*
X1294408Y1111713D01*
X1294011Y1112639D01*
X1293548Y1113896D01*
X1293019Y1114689D01*
X1292688Y1115417D01*
X1292357Y1116277D01*
X1291828Y1117071D01*
X1291630Y1117269D01*
X1291299Y1118129D01*
X1290836Y1118857D01*
X1290307Y1119386D01*
X1289910Y1120312D01*
X1289381Y1121238D01*
X1288984Y1121635D01*
X1288455Y1122561D01*
X1287661Y1123355D01*
X1287000Y1124545D01*
X1286603Y1124942D01*
X1286470Y1125207D01*
X1285544Y1126397D01*
X1285015Y1126926D01*
X1284883Y1127191D01*
X1283692Y1128382D01*
X1283560Y1128646D01*
X1282237Y1129969D01*
X1282105Y1130234D01*
X1281774Y1130564D01*
X1281510Y1130697D01*
X1280782Y1131424D01*
X1280650Y1131689D01*
X1280187Y1132020D01*
X1278996Y1133210D01*
X1278732Y1133343D01*
X1277938Y1134136D01*
X1277673Y1134269D01*
X1277276Y1134665D01*
X1277012Y1134798D01*
X1276747Y1135063D01*
X1276482Y1135195D01*
X1276086Y1135592D01*
X1274895Y1136253D01*
X1273969Y1137179D01*
X1273307Y1137576D01*
X1272778Y1138105D01*
X1272514Y1138237D01*
X1271323Y1138899D01*
X1270926Y1139296D01*
X1270662Y1139428D01*
X1269207Y1140222D01*
X1268810Y1140619D01*
X1268148Y1140883D01*
X1267619Y1141015D01*
X1266957Y1141413D01*
X1266428Y1141942D01*
X1265502Y1142206D01*
X1264775Y1142405D01*
X1264576Y1142603D01*
X1264312Y1142735D01*
X1263782Y1143264D01*
X1262195Y1143661D01*
X1260872Y1144587D01*
X1259880Y1144786D01*
X1259351Y1144918D01*
X1257895Y1145580D01*
X1257036Y1145910D01*
X1256110Y1146043D01*
X1254456Y1146638D01*
X1253596Y1146969D01*
X1252538Y1147233D01*
X1250752Y1147432D01*
X1249693Y1147829D01*
X1248238Y1148225D01*
X1247577Y1148358D01*
X1246518Y1148490D01*
X1244799Y1148622D01*
X1242153Y1148887D01*
X1240565Y1149019D01*
X1238845Y1149151D01*
X1237457Y1149350D01*
D02*
G37*
G36*
X1037961Y1149218D02*
X1034124Y1149085D01*
X1033727Y1148953D01*
X1028237Y1148490D01*
X1026650Y1148225D01*
X1025988Y1148093D01*
X1024930Y1147696D01*
X1024202Y1147365D01*
X1021887Y1147167D01*
X1021160Y1146969D01*
X1020300Y1146638D01*
X1019572Y1146307D01*
X1019043Y1146175D01*
X1017521Y1145844D01*
X1016860Y1145580D01*
X1015339Y1144852D01*
X1013950Y1144521D01*
X1013156Y1143860D01*
X1012957Y1143661D01*
X1012428Y1143529D01*
X1011502Y1143397D01*
X1010841Y1143132D01*
X1010047Y1142603D01*
X1009121Y1142206D01*
X1007930Y1141545D01*
X1005946Y1140486D01*
X1005682Y1140222D01*
X1005417Y1140089D01*
X1003697Y1139163D01*
X1003168Y1138634D01*
X1002043Y1138039D01*
X1001911Y1137774D01*
X1001448Y1137311D01*
X1000787Y1137047D01*
X1000125Y1136650D01*
X999728Y1136253D01*
X999464Y1136121D01*
X999199Y1135856D01*
X998537Y1135459D01*
X997744Y1134665D01*
X997479Y1134533D01*
X996752Y1133938D01*
X996619Y1133673D01*
X996421Y1133475D01*
X996157Y1133343D01*
X995429Y1132747D01*
X994833Y1132152D01*
X994569Y1132020D01*
X992915Y1130366D01*
X992518Y1129705D01*
X992320Y1129506D01*
X992055Y1129374D01*
X991460Y1128779D01*
X991328Y1128514D01*
X990865Y1128051D01*
X990600Y1127919D01*
X990402Y1127720D01*
X990269Y1127456D01*
X989674Y1126728D01*
X989410Y1126596D01*
X989211Y1126397D01*
X989079Y1126133D01*
X988483Y1125405D01*
X988153Y1125074D01*
X988020Y1124810D01*
X987756Y1124545D01*
X987624Y1124281D01*
X987028Y1123553D01*
X986830Y1123355D01*
X986698Y1123090D01*
X986168Y1122164D01*
X985573Y1121436D01*
X985375Y1121238D01*
X984713Y1120047D01*
X984052Y1119121D01*
X983655Y1118063D01*
X983060Y1117335D01*
X982861Y1117137D01*
X982596Y1116211D01*
X982332Y1115549D01*
X982133Y1115219D01*
X981869Y1115086D01*
X981406Y1114226D01*
X981207Y1113234D01*
X980678Y1112440D01*
X980348Y1112110D01*
X980149Y1111382D01*
X980017Y1110721D01*
X979752Y1110059D01*
X979025Y1108538D01*
X978826Y1107678D01*
X978694Y1106884D01*
X978165Y1105561D01*
X977834Y1104701D01*
X977569Y1103643D01*
X977437Y1101659D01*
X976908Y1100468D01*
X976776Y1099939D01*
X976577Y1099079D01*
X976379Y1097293D01*
X976246Y1095970D01*
X976379Y1081418D01*
X976511Y1081021D01*
X976710Y1079897D01*
X976908Y1079169D01*
X977040Y1078640D01*
X977305Y1077714D01*
X977437Y1077185D01*
X977636Y1075663D01*
X977900Y1074605D01*
X978231Y1073877D01*
X978495Y1073216D01*
X978760Y1072158D01*
X978958Y1071298D01*
X979355Y1070239D01*
X979554Y1070041D01*
X979818Y1069380D01*
X979951Y1068850D01*
X980480Y1067395D01*
X981141Y1066337D01*
X981274Y1065808D01*
X981406Y1065411D01*
X982067Y1064220D01*
X983258Y1061971D01*
X983787Y1061177D01*
X983919Y1060648D01*
X985110Y1058929D01*
X985639Y1058002D01*
X986036Y1057606D01*
X986168Y1057341D01*
X987028Y1056084D01*
X987624Y1055489D01*
X988020Y1054827D01*
X988219Y1054629D01*
X988483Y1054497D01*
X988814Y1054166D01*
X989476Y1052975D01*
X989873Y1052579D01*
X990005Y1052314D01*
X990402Y1051917D01*
X990534Y1051652D01*
X991725Y1050462D01*
X991857Y1050197D01*
X994040Y1048014D01*
X994304Y1047882D01*
X994503Y1047684D01*
X994635Y1047419D01*
X995429Y1046758D01*
X995760Y1046427D01*
X996024Y1046295D01*
X996818Y1045501D01*
X997082Y1045369D01*
X997744Y1044707D01*
X998935Y1044046D01*
X999861Y1043120D01*
X1000522Y1042723D01*
X1001183Y1042061D01*
X1001448Y1041929D01*
X1002374Y1041400D01*
X1002903Y1040871D01*
X1003565Y1040606D01*
X1004491Y1040077D01*
X1005152Y1039415D01*
X1005814Y1039151D01*
X1006740Y1038622D01*
X1007533Y1038093D01*
X1008062Y1037960D01*
X1008989Y1037431D01*
X1009782Y1036902D01*
X1010510Y1036704D01*
X1011171Y1036439D01*
X1012230Y1035777D01*
X1012957Y1035579D01*
X1014346Y1035248D01*
X1014545Y1035050D01*
X1014810Y1034918D01*
X1015207Y1034521D01*
X1016132Y1034256D01*
X1016926Y1034124D01*
X1017587Y1033859D01*
X1018778Y1033330D01*
X1019440Y1033065D01*
X1020366Y1032933D01*
X1021292D01*
X1022152Y1032602D01*
X1023144Y1032007D01*
X1024401Y1031809D01*
X1025459Y1031676D01*
X1026914Y1031544D01*
X1027443Y1031412D01*
X1028171Y1031213D01*
X1028700Y1031081D01*
X1029692Y1030883D01*
X1030486Y1030750D01*
X1032272Y1030552D01*
X1034786Y1030420D01*
X1038424Y1030354D01*
X1044244Y1030486D01*
X1045700Y1030618D01*
X1046890Y1030750D01*
X1047684Y1030883D01*
X1048742Y1031015D01*
X1049271Y1031147D01*
X1049999Y1031478D01*
X1050528Y1031610D01*
X1053439Y1031743D01*
X1053836Y1031875D01*
X1054365Y1032007D01*
X1055092Y1032206D01*
X1055754Y1032470D01*
X1056482Y1032801D01*
X1058796Y1033132D01*
X1059458Y1033396D01*
X1059789Y1033727D01*
X1060053Y1033859D01*
X1060715Y1034124D01*
X1061244Y1034256D01*
X1062699Y1034388D01*
X1064022Y1035314D01*
X1065543Y1035645D01*
X1066205Y1035910D01*
X1066403Y1036108D01*
X1066668Y1036240D01*
X1067594Y1036637D01*
X1068851Y1037100D01*
X1069049Y1037299D01*
X1069314Y1037431D01*
X1070769Y1038093D01*
X1071695Y1038622D01*
X1073944Y1039813D01*
X1074208Y1040077D01*
X1074473Y1040209D01*
X1075399Y1040606D01*
X1075664Y1040738D01*
X1075928Y1041003D01*
X1076127Y1041069D01*
X1076259Y1041334D01*
X1077251Y1041929D01*
X1077780Y1042061D01*
X1078310Y1042590D01*
X1078574Y1042723D01*
X1079500Y1043252D01*
X1080228Y1043847D01*
X1080691Y1044310D01*
X1081882Y1044972D01*
X1082278Y1045369D01*
X1083204Y1045898D01*
X1083998Y1046692D01*
X1084924Y1047221D01*
X1085850Y1048147D01*
X1086115Y1048279D01*
X1087173Y1049338D01*
X1087438Y1049470D01*
X1088165Y1050197D01*
X1088298Y1050462D01*
X1089422Y1051189D01*
X1090083Y1051851D01*
X1090348Y1051983D01*
X1091539Y1053174D01*
X1091803Y1053306D01*
X1092134Y1053637D01*
X1092266Y1053901D01*
X1092597Y1054232D01*
X1092862Y1054364D01*
X1094185Y1055687D01*
X1094449Y1055820D01*
X1094912Y1056283D01*
X1095044Y1056547D01*
X1095507Y1056878D01*
X1096169Y1057672D01*
X1097029Y1058532D01*
X1097161Y1058796D01*
X1098352Y1059987D01*
X1098484Y1060251D01*
X1098947Y1060847D01*
X1099145Y1060913D01*
X1099278Y1061177D01*
X1099939Y1062104D01*
X1100137Y1062302D01*
X1100402Y1062434D01*
X1100733Y1062765D01*
X1100865Y1063030D01*
X1101924Y1064088D01*
X1102056Y1064352D01*
X1102651Y1065080D01*
X1103246Y1065675D01*
X1103643Y1066337D01*
X1104107Y1066932D01*
X1104305Y1066998D01*
X1104437Y1067263D01*
X1104702Y1067527D01*
X1105231Y1068454D01*
X1105760Y1068983D01*
X1106289Y1069909D01*
X1106488Y1070107D01*
X1106752Y1070239D01*
X1107282Y1071033D01*
X1107943Y1071827D01*
X1108274Y1072422D01*
X1108604Y1073282D01*
X1109596Y1074274D01*
X1110126Y1075200D01*
X1110787Y1075862D01*
X1111581Y1077317D01*
X1111978Y1077714D01*
X1112771Y1079169D01*
X1113168Y1079566D01*
X1113433Y1080227D01*
X1113764Y1081087D01*
X1114624Y1081947D01*
X1115417Y1083402D01*
X1115682Y1083667D01*
X1115946Y1084329D01*
X1116608Y1085519D01*
X1117005Y1085916D01*
X1117600Y1087570D01*
X1117799Y1087768D01*
X1117865Y1087967D01*
X1118129Y1088099D01*
X1118328Y1088297D01*
X1118592Y1088959D01*
X1118460Y1090943D01*
X1117600Y1092200D01*
X1117336Y1092861D01*
X1116873Y1093589D01*
X1116542Y1093920D01*
X1116343Y1093986D01*
X1116079Y1094647D01*
X1115946Y1095176D01*
X1115682Y1095838D01*
X1115020Y1096499D01*
X1114756Y1097161D01*
X1114094Y1098351D01*
X1113830Y1098616D01*
X1113168Y1099807D01*
X1112375Y1100600D01*
X1111912Y1101857D01*
X1111581Y1102320D01*
X1111184Y1102717D01*
X1110523Y1103908D01*
X1110126Y1104305D01*
X1109993Y1104569D01*
X1109332Y1105760D01*
X1108670Y1106421D01*
X1108141Y1107347D01*
X1107215Y1108273D01*
X1107083Y1108802D01*
X1106488Y1109530D01*
X1106289Y1109729D01*
X1106157Y1109993D01*
X1105231Y1111184D01*
X1104834Y1111581D01*
X1104702Y1111845D01*
X1104107Y1112705D01*
X1103842Y1112838D01*
X1103511Y1113168D01*
X1102850Y1114359D01*
X1102320Y1114888D01*
X1102188Y1115152D01*
X1101593Y1115880D01*
X1100865Y1116608D01*
X1100733Y1116872D01*
X1099675Y1117931D01*
X1099542Y1118195D01*
X1098352Y1119386D01*
X1098219Y1119650D01*
X1097029Y1120841D01*
X1096896Y1121106D01*
X1095574Y1122429D01*
X1095441Y1122693D01*
X1095111Y1123024D01*
X1094846Y1123156D01*
X1094118Y1123884D01*
X1094052Y1124082D01*
X1093788Y1124214D01*
X1092332Y1125670D01*
X1092068Y1125802D01*
X1091605Y1126265D01*
X1091473Y1126530D01*
X1091274Y1126728D01*
X1091010Y1126860D01*
X1089554Y1128315D01*
X1089290Y1128448D01*
X1087835Y1129903D01*
X1087570Y1130035D01*
X1086776Y1130829D01*
X1086512Y1130961D01*
X1085586Y1131888D01*
X1085321Y1132020D01*
X1084130Y1132946D01*
X1083204Y1133475D01*
X1082278Y1134401D01*
X1081352Y1134930D01*
X1081087Y1135195D01*
X1080823Y1135327D01*
X1080558Y1135592D01*
X1079897Y1135856D01*
X1079236Y1136253D01*
X1078442Y1137047D01*
X1077251Y1137708D01*
X1076854Y1138105D01*
X1075532Y1138634D01*
X1074804Y1139230D01*
X1074473Y1139560D01*
X1073613Y1139891D01*
X1072886Y1140354D01*
X1072224Y1140751D01*
X1070372Y1141545D01*
X1067858Y1142868D01*
X1066403Y1143529D01*
X1065146Y1143992D01*
X1064154Y1144587D01*
X1062633Y1144918D01*
X1061178Y1145580D01*
X1060318Y1145910D01*
X1059392Y1146043D01*
X1058863Y1146175D01*
X1058003Y1146506D01*
X1057275Y1146836D01*
X1055687Y1147233D01*
X1053637Y1147564D01*
X1052976Y1147696D01*
X1051454Y1148159D01*
X1050925Y1148292D01*
X1048676Y1148556D01*
X1044840Y1148688D01*
X1044178Y1148953D01*
X1042458Y1149085D01*
X1037961Y1149218D01*
D02*
G37*
%LPD*%
G36*
X1227138Y1118394D02*
X1242285Y1118460D01*
X1242682Y1118195D01*
X1242946Y1117269D01*
X1243079Y1099277D01*
X1243277Y1099079D01*
X1243807Y1098947D01*
X1261203Y1099013D01*
X1261864Y1098748D01*
X1262129Y1098087D01*
X1261996Y1095970D01*
X1262063Y1080690D01*
X1261533Y1080029D01*
X1243277Y1079897D01*
X1242946Y1079566D01*
Y1079169D01*
X1242880Y1079103D01*
X1242814Y1078640D01*
X1242946Y1078243D01*
X1242814Y1061045D01*
X1242483Y1060714D01*
X1241954Y1060582D01*
X1239838Y1060714D01*
X1224690Y1060648D01*
X1223963Y1061111D01*
X1223632Y1061971D01*
X1223764Y1063294D01*
X1223632Y1079566D01*
X1223433Y1079764D01*
X1222507Y1080029D01*
X1204648Y1080161D01*
X1204053Y1080624D01*
X1204119Y1082675D01*
X1204053Y1096235D01*
X1204185Y1096632D01*
X1204053Y1097558D01*
X1204185Y1098484D01*
X1204516Y1098814D01*
X1205442Y1098947D01*
X1223037Y1099079D01*
X1223632Y1099542D01*
X1223764Y1100071D01*
X1223698Y1117203D01*
X1223963Y1117864D01*
X1224492Y1118394D01*
X1225021Y1118526D01*
X1227138Y1118394D01*
D02*
G37*
G36*
X1014942Y1098947D02*
X1069512Y1099013D01*
X1069975Y1098814D01*
X1070306Y1097955D01*
X1070174Y1096632D01*
X1070240Y1080823D01*
X1069975Y1080161D01*
X1069446Y1080029D01*
X1012164Y1080161D01*
X1011833Y1081021D01*
X1011965Y1081947D01*
X1011833Y1097822D01*
Y1097955D01*
X1012164Y1098814D01*
X1012825Y1099079D01*
X1014942Y1098947D01*
D02*
G37*
%LPC*%
G36*
X1301221Y959379D02*
X1294871Y959247D01*
X1294143Y958784D01*
X1294011Y958519D01*
X1293283Y957792D01*
X1293019Y957659D01*
X1292820Y957461D01*
X1292688Y957196D01*
X1292424Y956932D01*
X1292291Y956667D01*
X1292027Y956402D01*
X1291894Y956138D01*
X1291498Y955476D01*
X1291233Y954418D01*
X1291035Y952368D01*
X1290902Y951309D01*
X1290770Y950648D01*
X1290638Y950119D01*
X1290505Y949325D01*
X1290373Y946547D01*
X1290307Y937749D01*
X1290439Y937352D01*
X1290571Y935765D01*
X1290704Y935368D01*
X1290902Y934376D01*
X1291101Y933648D01*
X1291233Y933119D01*
X1291365Y930870D01*
X1292291Y929944D01*
X1292622Y929084D01*
X1293085Y928357D01*
X1293548Y928026D01*
X1293812Y927761D01*
X1294474Y927497D01*
X1295334Y927166D01*
X1295929Y926835D01*
X1296988Y926571D01*
X1299038Y926505D01*
X1300493Y926637D01*
X1301155Y926769D01*
X1301618Y926968D01*
X1301750D01*
X1302676Y927364D01*
X1303536Y927695D01*
X1303801Y927960D01*
X1303933Y928224D01*
X1304661Y928952D01*
X1304925Y929084D01*
X1305124Y929283D01*
X1306050Y931267D01*
X1306182Y932325D01*
X1306446Y932987D01*
X1306579Y933913D01*
X1306711Y936559D01*
X1306843Y936956D01*
X1306976Y937485D01*
X1307108Y945687D01*
X1306976Y946084D01*
X1306843Y950185D01*
X1306579Y950846D01*
X1306446Y954418D01*
X1306314Y954815D01*
X1306182Y955344D01*
X1305653Y956138D01*
X1304859Y957593D01*
X1304528Y957924D01*
X1304264Y958056D01*
X1303999Y958321D01*
X1303735Y958453D01*
X1303337Y958850D01*
X1302676Y959114D01*
X1301750Y959247D01*
X1301221Y959379D01*
D02*
G37*
G36*
X1081617Y958982D02*
X1077119Y958850D01*
X1076788Y958255D01*
X1076656Y957725D01*
Y945687D01*
Y945555D01*
X1076788Y927960D01*
X1077119Y927629D01*
X1078442Y927497D01*
X1084527Y927629D01*
X1084924Y927761D01*
X1085850Y927894D01*
X1086776Y928555D01*
X1087835Y928820D01*
X1088562Y929018D01*
X1089554Y930010D01*
X1089819Y930143D01*
X1090414Y930606D01*
X1090546Y930870D01*
X1091208Y931796D01*
X1091605Y932193D01*
X1091869Y933119D01*
X1092002Y933648D01*
X1092399Y935104D01*
X1092531Y935633D01*
X1092729Y936493D01*
X1092862Y937286D01*
X1093060Y939072D01*
X1092928Y948994D01*
X1092795Y949391D01*
X1092597Y950648D01*
X1092002Y952169D01*
X1091869Y953095D01*
X1091737Y953889D01*
X1091076Y954815D01*
X1090943Y955080D01*
X1090348Y955807D01*
X1090150Y956006D01*
X1090083Y956204D01*
X1089819Y956336D01*
X1089290Y956865D01*
X1088099Y957527D01*
X1087835Y957792D01*
X1086776Y958056D01*
X1085519Y958255D01*
X1084858Y958519D01*
X1084329Y958651D01*
X1081617Y958982D01*
D02*
G37*
G36*
X976842Y955146D02*
X976577Y955013D01*
X976246Y954154D01*
X976114Y951772D01*
X975585Y950582D01*
X975320Y949656D01*
X975056Y948597D01*
X974857Y946811D01*
X974328Y945488D01*
X974130Y944761D01*
X973998Y944364D01*
Y944232D01*
X973865Y943835D01*
X973733Y942909D01*
X973601Y941586D01*
X973071Y940395D01*
X972675Y939072D01*
X972807Y938146D01*
X973137Y937815D01*
X980348Y937749D01*
X981472Y937948D01*
X981670Y938146D01*
X981538Y939601D01*
X981406Y939998D01*
X981274Y941454D01*
X981009Y942115D01*
X980678Y942975D01*
X980215Y944496D01*
X980017Y945885D01*
X979885Y946547D01*
X979620Y947208D01*
X979289Y947671D01*
X978892Y948597D01*
X978760Y950582D01*
X978628Y950979D01*
X978495Y951508D01*
X978231Y952169D01*
X977834Y953095D01*
X977569Y954154D01*
X977239Y955013D01*
X976842Y955146D01*
D02*
G37*
G36*
X1025591Y959048D02*
X1024930Y958916D01*
X1024401Y958519D01*
X1024136Y957858D01*
X1024070Y956601D01*
X1024202Y944827D01*
X1024533Y944364D01*
X1025128Y944165D01*
X1025657Y944033D01*
X1026980Y944165D01*
X1029097D01*
X1033463Y944298D01*
X1034521Y944959D01*
X1035712Y945621D01*
X1036042Y945951D01*
X1036175Y946216D01*
X1036637Y946679D01*
X1036902Y946811D01*
X1037233Y947142D01*
X1037696Y948399D01*
X1037961Y949060D01*
X1038225Y950119D01*
X1038291Y952831D01*
X1038159Y953227D01*
X1038027Y954683D01*
X1037233Y956402D01*
X1037101Y956667D01*
X1036637Y957263D01*
X1036373Y957395D01*
X1035976Y957792D01*
X1035315Y958056D01*
X1033198Y958718D01*
X1032669Y958850D01*
X1031346Y958982D01*
X1025591Y959048D01*
D02*
G37*
%LPD*%
D56*
X367240Y1103978D02*
G03*
X367240Y1103978I-10000J0D01*
G01*
X1812176Y1137828D02*
Y1267826D01*
Y1137828D02*
X1822169D01*
X2122171Y1267823D02*
X2132175Y1267826D01*
Y1137828D02*
Y1267826D01*
X2122167Y1137828D02*
X2132175D01*
X1812176Y1267826D02*
X1822169D01*
X1999879Y779678D02*
X2017552Y762000D01*
X1999879Y744322D02*
X2017552Y762000D01*
X1664000Y1115553D02*
X1681678Y1097874D01*
X1646321D02*
X1664000Y1115553D01*
X1646321Y426121D02*
X1664000Y408447D01*
X1681678Y426121D01*
X1310447Y762000D02*
X1328125Y744322D01*
X1310447Y762000D02*
X1328125Y779678D01*
X645399Y606999D02*
X675401D01*
X645399Y917001D02*
X675401D01*
Y606999D02*
Y917001D01*
X645399Y606999D02*
Y917001D01*
X2258701Y940119D02*
X2338675D01*
Y900131D01*
X2325346Y886802D01*
X2298688D01*
X2285359Y900131D01*
Y940119D01*
Y913460D02*
X2258701Y886802D01*
X2338675Y806828D02*
Y860144D01*
X2258701D01*
Y806828D01*
X2298688Y860144D02*
Y833486D01*
X2325346Y726854D02*
X2338675Y740183D01*
Y766841D01*
X2325346Y780170D01*
X2312017D01*
X2298688Y766841D01*
Y740183D01*
X2285359Y726854D01*
X2272030D01*
X2258701Y740183D01*
Y766841D01*
X2272030Y780170D01*
X2338675Y646880D02*
Y700196D01*
X2258701D01*
Y646880D01*
X2298688Y700196D02*
Y673538D01*
X2338675Y620222D02*
Y566906D01*
Y593564D01*
X2258701D01*
D57*
X1779872Y1249132D02*
G03*
X1779872Y1249132I-12500J0D01*
G01*
X2023412Y861422D02*
G03*
X2023412Y861422I-12500J0D01*
G01*
X877061Y586738D02*
G03*
X877061Y586738I-12500J0D01*
G01*
D59*
X503799Y542600D02*
X723803D01*
X503799Y422600D02*
Y542600D01*
Y422600D02*
X723803D01*
Y542600D01*
X503799Y1101400D02*
X723803D01*
X503799Y981400D02*
Y1101400D01*
Y981400D02*
X723803D01*
Y1101400D01*
D60*
X3035600Y566278D02*
Y657718D01*
X2832400D02*
X3050840D01*
X2832400Y566278D02*
Y657718D01*
Y566278D02*
X3050840D01*
Y657718D01*
X2827162Y866277D02*
Y957717D01*
X3045602D01*
Y866277D02*
Y957717D01*
X2827162Y866277D02*
X3045602D01*
X2842402D02*
Y957717D01*
X2827162Y1116279D02*
Y1207719D01*
X3045602D01*
Y1116279D02*
Y1207719D01*
X2827162Y1116279D02*
X3045602D01*
X2842402D02*
Y1207719D01*
X3050840Y316281D02*
Y407721D01*
X2832400Y316281D02*
X3050840D01*
X2832400D02*
Y407721D01*
X3050840D01*
X3035600Y316281D02*
Y407721D01*
X3108800Y397477D02*
Y327500D01*
X3155452D01*
X3143789Y651477D02*
X3120463D01*
X3108800Y639815D01*
Y593163D01*
X3120463Y581500D01*
X3143789D01*
X3155452Y593163D01*
Y639815D01*
X3143789Y651477D01*
X3178777Y581500D02*
Y651477D01*
X3225429Y581500D01*
Y651477D01*
X3108800Y943577D02*
X3155452D01*
X3132126D01*
Y873600D01*
X3178777Y943577D02*
X3225429Y873600D01*
Y943577D02*
X3178777Y873600D01*
X3108800Y1127600D02*
Y1197577D01*
X3143789D01*
X3155452Y1185915D01*
Y1162589D01*
X3143789Y1150926D01*
X3108800D01*
X3132126D02*
X3155452Y1127600D01*
X3178777Y1197577D02*
X3225429Y1127600D01*
Y1197577D02*
X3178777Y1127600D01*
X3462697Y1387000D02*
X3509348D01*
X3486022D01*
Y1317023D01*
X3532674Y1387000D02*
X3579326Y1317023D01*
Y1387000D02*
X3532674Y1317023D01*
X3602652Y1375337D02*
X3614315Y1387000D01*
X3637640D01*
X3649303Y1375337D01*
Y1328685D01*
X3637640Y1317023D01*
X3614315D01*
X3602652Y1328685D01*
Y1375337D01*
X3208697Y1317023D02*
Y1387000D01*
X3243685D01*
X3255348Y1375337D01*
Y1352011D01*
X3243685Y1340348D01*
X3208697D01*
X3232022D02*
X3255348Y1317023D01*
X3278674Y1387000D02*
X3325326Y1317023D01*
Y1387000D02*
X3278674Y1317023D01*
X3348652Y1375337D02*
X3360315Y1387000D01*
X3383640D01*
X3395303Y1375337D01*
Y1328685D01*
X3383640Y1317023D01*
X3360315D01*
X3348652Y1328685D01*
Y1375337D01*
X2954697Y1317023D02*
Y1387000D01*
X2989685D01*
X3001348Y1375337D01*
Y1352011D01*
X2989685Y1340348D01*
X2954697D01*
X2978022D02*
X3001348Y1317023D01*
X3071326Y1375337D02*
X3059663Y1387000D01*
X3036337D01*
X3024674Y1375337D01*
Y1363674D01*
X3036337Y1352011D01*
X3059663D01*
X3071326Y1340348D01*
Y1328685D01*
X3059663Y1317023D01*
X3036337D01*
X3024674Y1328685D01*
X3094652Y1387000D02*
X3141303D01*
X3117978D01*
Y1317023D01*
X3468528Y206977D02*
Y160326D01*
X3491854Y137000D01*
X3515180Y160326D01*
Y206977D01*
X3538506D02*
X3561832D01*
X3550169D01*
Y137000D01*
X3538506D01*
X3561832D01*
X3596820D02*
Y206977D01*
X3643472Y137000D01*
Y206977D01*
X3255348Y195315D02*
X3243685Y206977D01*
X3220360D01*
X3208697Y195315D01*
Y148663D01*
X3220360Y137000D01*
X3243685D01*
X3255348Y148663D01*
Y171989D01*
X3232022D01*
X3278674Y137000D02*
Y206977D01*
X3325326Y137000D01*
Y206977D01*
X3348652D02*
Y137000D01*
X3383640D01*
X3395303Y148663D01*
Y195315D01*
X3383640Y206977D01*
X3348652D01*
X2747348Y1375337D02*
X2735685Y1387000D01*
X2712360D01*
X2700697Y1375337D01*
Y1328685D01*
X2712360Y1317023D01*
X2735685D01*
X2747348Y1328685D01*
Y1352011D01*
X2724022D01*
X2770674Y1317023D02*
Y1387000D01*
X2817326Y1317023D01*
Y1387000D01*
X2840652D02*
Y1317023D01*
X2875640D01*
X2887303Y1328685D01*
Y1375337D01*
X2875640Y1387000D01*
X2840652D01*
X2481685D02*
Y1317023D01*
X2516674D01*
X2528337Y1328685D01*
Y1375337D01*
X2516674Y1387000D01*
X2481685D01*
X2598315Y1317023D02*
X2551663D01*
X2598315Y1363674D01*
Y1375337D01*
X2586652Y1387000D01*
X2563326D01*
X2551663Y1375337D01*
X2227685Y1387000D02*
Y1317023D01*
X2262674D01*
X2274337Y1328685D01*
Y1375337D01*
X2262674Y1387000D01*
X2227685D01*
X2297663Y1375337D02*
X2309326Y1387000D01*
X2332652D01*
X2344315Y1375337D01*
Y1363674D01*
X2332652Y1352011D01*
X2320989D01*
X2332652D01*
X2344315Y1340348D01*
Y1328685D01*
X2332652Y1317023D01*
X2309326D01*
X2297663Y1328685D01*
X1973685Y1387000D02*
Y1317023D01*
X2008674D01*
X2020337Y1328685D01*
Y1375337D01*
X2008674Y1387000D01*
X1973685D01*
X2078652Y1317023D02*
Y1387000D01*
X2043663Y1352011D01*
X2090315D01*
X1719685Y1387000D02*
Y1317023D01*
X1754674D01*
X1766337Y1328685D01*
Y1375337D01*
X1754674Y1387000D01*
X1719685D01*
X1836315D02*
X1789663D01*
Y1352011D01*
X1812989Y1363674D01*
X1824652D01*
X1836315Y1352011D01*
Y1328685D01*
X1824652Y1317023D01*
X1801326D01*
X1789663Y1328685D01*
X1465685Y1387000D02*
Y1317023D01*
X1500674D01*
X1512337Y1328685D01*
Y1375337D01*
X1500674Y1387000D01*
X1465685D01*
X1582315D02*
X1558989Y1375337D01*
X1535663Y1352011D01*
Y1328685D01*
X1547326Y1317023D01*
X1570652D01*
X1582315Y1328685D01*
Y1340348D01*
X1570652Y1352011D01*
X1535663D01*
X1211685Y1387000D02*
Y1317023D01*
X1246674D01*
X1258337Y1328685D01*
Y1375337D01*
X1246674Y1387000D01*
X1211685D01*
X1281663D02*
X1328315D01*
Y1375337D01*
X1281663Y1328685D01*
Y1317023D01*
X957685Y1387000D02*
Y1317023D01*
X992674D01*
X1004337Y1328685D01*
Y1375337D01*
X992674Y1387000D01*
X957685D01*
X1027663Y1375337D02*
X1039326Y1387000D01*
X1062652D01*
X1074315Y1375337D01*
Y1363674D01*
X1062652Y1352011D01*
X1074315Y1340348D01*
Y1328685D01*
X1062652Y1317023D01*
X1039326D01*
X1027663Y1328685D01*
Y1340348D01*
X1039326Y1352011D01*
X1027663Y1363674D01*
Y1375337D01*
X1039326Y1352011D02*
X1062652D01*
X703685Y1387000D02*
Y1317023D01*
X738674D01*
X750337Y1328685D01*
Y1375337D01*
X738674Y1387000D01*
X703685D01*
X773663Y1328685D02*
X785326Y1317023D01*
X808652D01*
X820315Y1328685D01*
Y1375337D01*
X808652Y1387000D01*
X785326D01*
X773663Y1375337D01*
Y1363674D01*
X785326Y1352011D01*
X820315D01*
X420528Y1387000D02*
Y1317023D01*
X455517D01*
X467180Y1328685D01*
Y1375337D01*
X455517Y1387000D01*
X420528D01*
X490506Y1317023D02*
X513832D01*
X502169D01*
Y1387000D01*
X490506Y1375337D01*
X548820D02*
X560483Y1387000D01*
X583809D01*
X595472Y1375337D01*
Y1328685D01*
X583809Y1317023D01*
X560483D01*
X548820Y1328685D01*
Y1375337D01*
X178191Y1387000D02*
Y1317023D01*
X213180D01*
X224843Y1328685D01*
Y1375337D01*
X213180Y1387000D01*
X178191D01*
X248169Y1317023D02*
X271495D01*
X259832D01*
Y1387000D01*
X248169Y1375337D01*
X306483Y1317023D02*
X329809D01*
X318146D01*
Y1387000D01*
X306483Y1375337D01*
X-87472Y1387000D02*
Y1317023D01*
X-52483D01*
X-40820Y1328685D01*
Y1375337D01*
X-52483Y1387000D01*
X-87472D01*
X-17494Y1317023D02*
X5832D01*
X-5831D01*
Y1387000D01*
X-17494Y1375337D01*
X87472Y1317023D02*
X40820D01*
X87472Y1363674D01*
Y1375337D01*
X75809Y1387000D01*
X52483D01*
X40820Y1375337D01*
X2954697Y137000D02*
Y206977D01*
X2989685D01*
X3001348Y195315D01*
Y171989D01*
X2989685Y160326D01*
X2954697D01*
X2978022D02*
X3001348Y137000D01*
X3071326Y195315D02*
X3059663Y206977D01*
X3036337D01*
X3024674Y195315D01*
Y183652D01*
X3036337Y171989D01*
X3059663D01*
X3071326Y160326D01*
Y148663D01*
X3059663Y137000D01*
X3036337D01*
X3024674Y148663D01*
X3094652Y206977D02*
X3141303D01*
X3117978D01*
Y137000D01*
X2782337Y206977D02*
X2735685D01*
Y171989D01*
X2759011Y183652D01*
X2770674D01*
X2782337Y171989D01*
Y148663D01*
X2770674Y137000D01*
X2747348D01*
X2735685Y148663D01*
X2805663Y206977D02*
Y160326D01*
X2828989Y137000D01*
X2852315Y160326D01*
Y206977D01*
X2481685Y137000D02*
Y183652D01*
X2505011Y206977D01*
X2528337Y183652D01*
Y137000D01*
Y171989D01*
X2481685D01*
X2551663Y206977D02*
X2598315D01*
Y195315D01*
X2551663Y148663D01*
Y137000D01*
X2227685D02*
Y183652D01*
X2251011Y206977D01*
X2274337Y183652D01*
Y137000D01*
Y171989D01*
X2227685D01*
X2344315Y206977D02*
X2320989Y195315D01*
X2297663Y171989D01*
Y148663D01*
X2309326Y137000D01*
X2332652D01*
X2344315Y148663D01*
Y160326D01*
X2332652Y171989D01*
X2297663D01*
X1973685Y137000D02*
Y183652D01*
X1997011Y206977D01*
X2020337Y183652D01*
Y137000D01*
Y171989D01*
X1973685D01*
X2090315Y206977D02*
X2043663D01*
Y171989D01*
X2066989Y183652D01*
X2078652D01*
X2090315Y171989D01*
Y148663D01*
X2078652Y137000D01*
X2055326D01*
X2043663Y148663D01*
X1719685Y137000D02*
Y183652D01*
X1743011Y206977D01*
X1766337Y183652D01*
Y137000D01*
Y171989D01*
X1719685D01*
X1824652Y137000D02*
Y206977D01*
X1789663Y171989D01*
X1836315D01*
X1465685Y137000D02*
Y183652D01*
X1489011Y206977D01*
X1512337Y183652D01*
Y137000D01*
Y171989D01*
X1465685D01*
X1535663Y195315D02*
X1547326Y206977D01*
X1570652D01*
X1582315Y195315D01*
Y183652D01*
X1570652Y171989D01*
X1558989D01*
X1570652D01*
X1582315Y160326D01*
Y148663D01*
X1570652Y137000D01*
X1547326D01*
X1535663Y148663D01*
X1211685Y137000D02*
Y183652D01*
X1235011Y206977D01*
X1258337Y183652D01*
Y137000D01*
Y171989D01*
X1211685D01*
X1328315Y137000D02*
X1281663D01*
X1328315Y183652D01*
Y195315D01*
X1316652Y206977D01*
X1293326D01*
X1281663Y195315D01*
X969348Y137000D02*
Y183652D01*
X992674Y206977D01*
X1016000Y183652D01*
Y137000D01*
Y171989D01*
X969348D01*
X1039326Y137000D02*
X1062652D01*
X1050989D01*
Y206977D01*
X1039326Y195315D01*
X703685Y137000D02*
Y183652D01*
X727011Y206977D01*
X750337Y183652D01*
Y137000D01*
Y171989D01*
X703685D01*
X773663Y195315D02*
X785326Y206977D01*
X808652D01*
X820315Y195315D01*
Y148663D01*
X808652Y137000D01*
X785326D01*
X773663Y148663D01*
Y195315D01*
X414697Y137000D02*
Y206977D01*
X449685D01*
X461348Y195315D01*
Y171989D01*
X449685Y160326D01*
X414697D01*
X438022D02*
X461348Y137000D01*
X531326Y206977D02*
X484674D01*
Y137000D01*
X531326D01*
X484674Y171989D02*
X508000D01*
X601303Y206977D02*
X554652D01*
Y171989D01*
X577978D01*
X554652D01*
Y137000D01*
X131539Y195315D02*
X143202Y206977D01*
X166528D01*
X178191Y195315D01*
Y183652D01*
X166528Y171989D01*
X154865D01*
X166528D01*
X178191Y160326D01*
Y148663D01*
X166528Y137000D01*
X143202D01*
X131539Y148663D01*
X201517Y137000D02*
Y148663D01*
X213180D01*
Y137000D01*
X201517D01*
X259832Y195315D02*
X271495Y206977D01*
X294820D01*
X306483Y195315D01*
Y183652D01*
X294820Y171989D01*
X283157D01*
X294820D01*
X306483Y160326D01*
Y148663D01*
X294820Y137000D01*
X271495D01*
X259832Y148663D01*
X329809Y206977D02*
Y160326D01*
X353135Y137000D01*
X376461Y160326D01*
Y206977D01*
X-87472D02*
Y137000D01*
X-52483D01*
X-40820Y148663D01*
Y195315D01*
X-52483Y206977D01*
X-87472D01*
X-17494Y137000D02*
X5832D01*
X-5831D01*
Y206977D01*
X-17494Y195315D01*
X40820D02*
X52483Y206977D01*
X75809D01*
X87472Y195315D01*
Y183652D01*
X75809Y171989D01*
X64146D01*
X75809D01*
X87472Y160326D01*
Y148663D01*
X75809Y137000D01*
X52483D01*
X40820Y148663D01*
D78*
X2417161Y498658D02*
G03*
X2417161Y498658I-12700J0D01*
G01*
D79*
X2615332Y755498D02*
G03*
X2615332Y755498I-81331J0D01*
G01*
X3477459Y374999D02*
X4007460D01*
X3477459D02*
Y1142998D01*
X4007460D01*
Y374999D02*
Y1142998D01*
D80*
X-145760Y316982D02*
X-1763D01*
X-145760Y1210981D02*
X-1763D01*
D81*
X2622321Y547878D02*
X2691618D01*
Y963117D01*
X2376378Y547878D02*
X2445680D01*
X2376378Y963117D02*
X2445680D01*
X2622321D02*
X2691618D01*
X2376378Y547878D02*
Y963117D01*
%TF.MD5,27fe14cd2ec3feba6e14b41fc8c5faa8*%
M02*
