%TF.GenerationSoftware,Altium Limited,Altium Designer,21.4.1 (30)*%
G04 Layer_Color=255*
%FSLAX45Y45*%
%MOMM*%
%TF.SameCoordinates,CCA80653-F6CA-46C6-945C-E97865854BA3*%
%TF.FilePolarity,Positive*%
%TF.FileFunction,Pads,Bot*%
%TF.Part,Single*%
G01*
G75*
%TA.AperFunction,SMDPad,CuDef*%
%ADD20R,0.50000X0.60000*%
%TA.AperFunction,ComponentPad*%
%ADD24C,0.70000*%
%ADD25O,2.10000X1.05000*%
%ADD26C,2.00000*%
%ADD27R,1.57000X1.57000*%
%ADD28C,1.57000*%
%ADD29C,1.70000*%
%ADD30R,1.70000X1.70000*%
%TA.AperFunction,SMDPad,CuDef*%
%ADD32R,0.90000X0.70000*%
%ADD33R,1.42000X2.13000*%
%ADD34R,0.76200X1.27000*%
%ADD35R,2.67000X2.54000*%
%ADD36R,0.50000X0.50000*%
%ADD37R,2.13000X1.42000*%
%ADD38R,0.50000X0.50000*%
%ADD39O,0.45000X1.85000*%
%ADD40R,0.60000X0.50000*%
%ADD41R,0.70000X0.90000*%
G04:AMPARAMS|DCode=42|XSize=3.15mm|YSize=1.45mm|CornerRadius=0.05075mm|HoleSize=0mm|Usage=FLASHONLY|Rotation=90.000|XOffset=0mm|YOffset=0mm|HoleType=Round|Shape=RoundedRectangle|*
%AMROUNDEDRECTD42*
21,1,3.15000,1.34850,0,0,90.0*
21,1,3.04850,1.45000,0,0,90.0*
1,1,0.10150,0.67425,1.52425*
1,1,0.10150,0.67425,-1.52425*
1,1,0.10150,-0.67425,-1.52425*
1,1,0.10150,-0.67425,1.52425*
%
%ADD42ROUNDEDRECTD42*%
G04:AMPARAMS|DCode=43|XSize=0.9mm|YSize=1.45mm|CornerRadius=0.0495mm|HoleSize=0mm|Usage=FLASHONLY|Rotation=90.000|XOffset=0mm|YOffset=0mm|HoleType=Round|Shape=RoundedRectangle|*
%AMROUNDEDRECTD43*
21,1,0.90000,1.35100,0,0,90.0*
21,1,0.80100,1.45000,0,0,90.0*
1,1,0.09900,0.67550,0.40050*
1,1,0.09900,0.67550,-0.40050*
1,1,0.09900,-0.67550,-0.40050*
1,1,0.09900,-0.67550,0.40050*
%
%ADD43ROUNDEDRECTD43*%
D20*
X1839921Y571498D02*
D03*
X1729919D02*
D03*
X1839921Y391158D02*
D03*
X1729919D02*
D03*
Y914398D02*
D03*
X1839921D02*
D03*
X1729919Y744218D02*
D03*
X1839921D02*
D03*
X2158203Y507998D02*
D03*
X2048201D02*
D03*
X1588999Y1251996D02*
D03*
X1699001D02*
D03*
X2158203Y330198D02*
D03*
X2048201D02*
D03*
D24*
X82240Y474980D02*
D03*
Y1052977D02*
D03*
D25*
X-282763Y331978D02*
D03*
Y1195979D02*
D03*
X135240Y331978D02*
D03*
Y1195979D02*
D03*
D26*
X-285999Y1521998D02*
D03*
X3927800Y1524000D02*
D03*
Y0D02*
D03*
X-285999Y1996D02*
D03*
D27*
X3556000Y0D02*
D03*
Y1524000D02*
D03*
D28*
X3302000Y0D02*
D03*
X3048000D02*
D03*
X2794000D02*
D03*
X2540000D02*
D03*
X2286000D02*
D03*
X2032000D02*
D03*
X1778000D02*
D03*
X1524000D02*
D03*
X1270000D02*
D03*
X1016000D02*
D03*
X762000D02*
D03*
X508000D02*
D03*
X254000D02*
D03*
X0D02*
D03*
X3302000Y1524000D02*
D03*
X3048000D02*
D03*
X2794000D02*
D03*
X2540000D02*
D03*
X2286000D02*
D03*
X2032000D02*
D03*
X1778000D02*
D03*
X1524000D02*
D03*
X1270000D02*
D03*
X1016000D02*
D03*
X762000D02*
D03*
X508000D02*
D03*
X254000D02*
D03*
X0D02*
D03*
D29*
X3620461Y1015998D02*
D03*
Y507998D02*
D03*
Y761998D02*
D03*
X3874461D02*
D03*
Y1015998D02*
D03*
D30*
Y507998D02*
D03*
D32*
X346401Y203198D02*
D03*
X476398D02*
D03*
X2048201Y660398D02*
D03*
X2178198D02*
D03*
X2048201Y787398D02*
D03*
X2178198D02*
D03*
D33*
X2394021Y1089660D02*
D03*
X2124019D02*
D03*
D34*
X2994503Y1092200D02*
D03*
D35*
X2759400D02*
D03*
D36*
X-105999Y611998D02*
D03*
Y711998D02*
D03*
D37*
X174000Y897001D02*
D03*
Y626999D02*
D03*
D38*
X734223Y1308100D02*
D03*
X634223D02*
D03*
X1381120Y213360D02*
D03*
X1281120D02*
D03*
D39*
X501503Y1134501D02*
D03*
X566501D02*
D03*
X631500D02*
D03*
X696504D02*
D03*
X761502D02*
D03*
X826501D02*
D03*
X891499D02*
D03*
X956503D02*
D03*
X1021502D02*
D03*
X1086500D02*
D03*
X1151499D02*
D03*
X1216503D02*
D03*
X1281501D02*
D03*
X1346500D02*
D03*
X501503Y389499D02*
D03*
X566501D02*
D03*
X631500D02*
D03*
X696504D02*
D03*
X761502D02*
D03*
X826501D02*
D03*
X891499D02*
D03*
X956503D02*
D03*
X1021502D02*
D03*
X1086500D02*
D03*
X1151499D02*
D03*
X1216503D02*
D03*
X1281501D02*
D03*
X1346500D02*
D03*
D40*
X2474001Y636996D02*
D03*
Y746999D02*
D03*
D41*
Y486999D02*
D03*
Y356997D02*
D03*
D42*
X2656500Y571998D02*
D03*
D43*
X3271500Y342001D02*
D03*
Y571998D02*
D03*
Y802000D02*
D03*
%TF.MD5,e70f84acc02f0f0c997b552edf5170f0*%
M02*
