%TF.GenerationSoftware,Altium Limited,Altium Designer,21.4.1 (30)*%
G04 Layer_Physical_Order=1*
G04 Layer_Color=255*
%FSLAX45Y45*%
%MOMM*%
%TF.SameCoordinates,CCA80653-F6CA-46C6-945C-E97865854BA3*%
%TF.FilePolarity,Positive*%
%TF.FileFunction,Copper,L1,Top,Signal*%
%TF.Part,Single*%
G01*
G75*
%TA.AperFunction,SMDPad,CuDef*%
%ADD10R,0.30000X1.60000*%
%TA.AperFunction,ConnectorPad*%
%ADD11R,1.45000X0.60000*%
%ADD12R,1.45000X0.30000*%
%TA.AperFunction,SMDPad,CuDef*%
%ADD13R,0.65000X0.50000*%
G04:AMPARAMS|DCode=14|XSize=0.23928mm|YSize=0.80964mm|CornerRadius=0.11964mm|HoleSize=0mm|Usage=FLASHONLY|Rotation=225.000|XOffset=0mm|YOffset=0mm|HoleType=Round|Shape=RoundedRectangle|*
%AMROUNDEDRECTD14*
21,1,0.23928,0.57035,0,0,225.0*
21,1,0.00000,0.80964,0,0,225.0*
1,1,0.23928,-0.20165,0.20165*
1,1,0.23928,-0.20165,0.20165*
1,1,0.23928,0.20165,-0.20165*
1,1,0.23928,0.20165,-0.20165*
%
%ADD14ROUNDEDRECTD14*%
G04:AMPARAMS|DCode=15|XSize=0.80964mm|YSize=0.23928mm|CornerRadius=0.11964mm|HoleSize=0mm|Usage=FLASHONLY|Rotation=225.000|XOffset=0mm|YOffset=0mm|HoleType=Round|Shape=RoundedRectangle|*
%AMROUNDEDRECTD15*
21,1,0.80964,0.00000,0,0,225.0*
21,1,0.57035,0.23928,0,0,225.0*
1,1,0.23928,-0.20165,-0.20165*
1,1,0.23928,0.20165,0.20165*
1,1,0.23928,0.20165,0.20165*
1,1,0.23928,-0.20165,-0.20165*
%
%ADD15ROUNDEDRECTD15*%
G04:AMPARAMS|DCode=16|XSize=0.80964mm|YSize=0.23928mm|CornerRadius=0mm|HoleSize=0mm|Usage=FLASHONLY|Rotation=225.000|XOffset=0mm|YOffset=0mm|HoleType=Round|Shape=Rectangle|*
%AMROTATEDRECTD16*
4,1,4,0.20165,0.37085,0.37085,0.20165,-0.20165,-0.37085,-0.37085,-0.20165,0.20165,0.37085,0.0*
%
%ADD16ROTATEDRECTD16*%

%ADD17P,4.59620X4X270.0*%
%ADD18R,1.35999X1.52999*%
%ADD19R,1.20000X0.60000*%
%ADD20R,0.50000X0.60000*%
%TA.AperFunction,Conductor*%
%ADD21C,0.20000*%
%ADD22C,0.40000*%
%ADD23C,0.30000*%
%TA.AperFunction,ComponentPad*%
%ADD24C,0.70000*%
%ADD25O,2.10000X1.05000*%
%ADD26C,2.00000*%
%ADD27R,1.57000X1.57000*%
%ADD28C,1.57000*%
%ADD29C,1.70000*%
%ADD30R,1.70000X1.70000*%
%TA.AperFunction,ViaPad*%
%ADD31C,0.60000*%
G36*
X4054801Y1562741D02*
X4042101Y1561069D01*
X4039622Y1570318D01*
X4023824Y1597682D01*
X4001482Y1620024D01*
X3974119Y1635822D01*
X3943598Y1644000D01*
X3912002D01*
X3881482Y1635822D01*
X3854118Y1620024D01*
X3831776Y1597682D01*
X3815978Y1570318D01*
X3807800Y1539798D01*
Y1508202D01*
X3815978Y1477682D01*
X3831776Y1450318D01*
X3854118Y1427976D01*
X3881482Y1412178D01*
X3912002Y1404000D01*
X3943598D01*
X3974119Y1412178D01*
X4001482Y1427976D01*
X4023824Y1450318D01*
X4039622Y1477682D01*
X4042101Y1486931D01*
X4054801Y1485259D01*
Y38741D01*
X4042101Y37069D01*
X4039622Y46318D01*
X4023824Y73682D01*
X4001482Y96024D01*
X3974119Y111822D01*
X3943598Y120000D01*
X3912002D01*
X3881482Y111822D01*
X3854118Y96024D01*
X3831776Y73682D01*
X3815978Y46318D01*
X3807800Y15798D01*
Y-15798D01*
X3815978Y-46318D01*
X3831776Y-73682D01*
X3854118Y-96024D01*
X3881482Y-111822D01*
X3912002Y-120000D01*
X3943598D01*
X3974119Y-111822D01*
X4001482Y-96024D01*
X4023824Y-73682D01*
X4039622Y-46318D01*
X4042101Y-37069D01*
X4054801Y-38741D01*
Y-139702D01*
X-402899D01*
Y-60927D01*
X-390199Y-57524D01*
X-382023Y-71685D01*
X-359681Y-94027D01*
X-332317Y-109826D01*
X-301797Y-118004D01*
X-270201D01*
X-239680Y-109826D01*
X-212317Y-94027D01*
X-189975Y-71685D01*
X-174177Y-44322D01*
X-165999Y-13802D01*
Y17795D01*
X-174177Y48315D01*
X-189975Y75678D01*
X-212317Y98020D01*
X-239680Y113819D01*
X-270201Y121996D01*
X-301797D01*
X-332317Y113819D01*
X-359681Y98020D01*
X-382023Y75678D01*
X-390199Y61517D01*
X-402899Y64920D01*
Y280167D01*
X-390199Y284478D01*
X-386971Y280270D01*
X-371826Y268649D01*
X-354189Y261344D01*
X-335263Y258852D01*
X-230263D01*
X-211337Y261344D01*
X-193700Y268649D01*
X-178555Y280270D01*
X-166934Y295415D01*
X-159629Y313052D01*
X-157137Y331978D01*
X-159629Y350904D01*
X-166934Y368541D01*
X-178555Y383686D01*
X-193700Y395307D01*
X-211337Y402612D01*
X-230263Y405104D01*
X-335263D01*
X-354189Y402612D01*
X-371826Y395307D01*
X-386971Y383686D01*
X-390199Y379478D01*
X-402899Y383789D01*
Y1144168D01*
X-390199Y1148479D01*
X-386971Y1144272D01*
X-371826Y1132651D01*
X-354189Y1125345D01*
X-335263Y1122854D01*
X-230263D01*
X-211337Y1125345D01*
X-193700Y1132651D01*
X-178555Y1144272D01*
X-166934Y1159417D01*
X-159629Y1177053D01*
X-157137Y1195979D01*
X-159629Y1214906D01*
X-166934Y1232542D01*
X-178555Y1247687D01*
X-193700Y1259308D01*
X-211337Y1266613D01*
X-230263Y1269105D01*
X-335263D01*
X-354189Y1266613D01*
X-371826Y1259308D01*
X-386971Y1247687D01*
X-390199Y1243479D01*
X-402899Y1247790D01*
Y1459075D01*
X-390199Y1462478D01*
X-382023Y1448317D01*
X-359681Y1425975D01*
X-332317Y1410176D01*
X-301797Y1401998D01*
X-270201D01*
X-239680Y1410176D01*
X-212317Y1425975D01*
X-189975Y1448317D01*
X-174177Y1475680D01*
X-165999Y1506200D01*
Y1537797D01*
X-174177Y1568317D01*
X-189975Y1595680D01*
X-212317Y1618022D01*
X-239680Y1633821D01*
X-270201Y1641998D01*
X-301797D01*
X-332317Y1633821D01*
X-359681Y1618022D01*
X-382023Y1595680D01*
X-390199Y1581519D01*
X-402899Y1584922D01*
Y1663698D01*
X4054801D01*
Y1562741D01*
D02*
G37*
%LPC*%
G36*
X3314968Y1622500D02*
X3289032D01*
X3263981Y1615787D01*
X3241520Y1602820D01*
X3223180Y1584480D01*
X3210213Y1562019D01*
X3203500Y1536968D01*
Y1511032D01*
X3210213Y1485981D01*
X3223180Y1463520D01*
X3241520Y1445180D01*
X3263981Y1432213D01*
X3289032Y1425500D01*
X3314968D01*
X3340019Y1432213D01*
X3362480Y1445180D01*
X3380820Y1463520D01*
X3393787Y1485981D01*
X3400500Y1511032D01*
Y1536968D01*
X3393787Y1562019D01*
X3380820Y1584480D01*
X3362480Y1602820D01*
X3340019Y1615787D01*
X3314968Y1622500D01*
D02*
G37*
G36*
X3060968D02*
X3035032D01*
X3009981Y1615787D01*
X2987520Y1602820D01*
X2969180Y1584480D01*
X2956213Y1562019D01*
X2949500Y1536968D01*
Y1511032D01*
X2956213Y1485981D01*
X2969180Y1463520D01*
X2987520Y1445180D01*
X3009981Y1432213D01*
X3035032Y1425500D01*
X3060968D01*
X3086019Y1432213D01*
X3108480Y1445180D01*
X3126820Y1463520D01*
X3139787Y1485981D01*
X3146500Y1511032D01*
Y1536968D01*
X3139787Y1562019D01*
X3126820Y1584480D01*
X3108480Y1602820D01*
X3086019Y1615787D01*
X3060968Y1622500D01*
D02*
G37*
G36*
X187740Y1269105D02*
X82740D01*
X63813Y1266613D01*
X46177Y1259308D01*
X31032Y1247687D01*
X19411Y1232542D01*
X12106Y1214906D01*
X9614Y1195979D01*
X12106Y1177053D01*
X19411Y1159417D01*
X31032Y1144272D01*
X46177Y1132651D01*
X63813Y1125345D01*
X82740Y1122854D01*
X187740D01*
X206666Y1125345D01*
X224303Y1132651D01*
X239447Y1144272D01*
X251068Y1159417D01*
X258374Y1177053D01*
X260865Y1195979D01*
X258374Y1214906D01*
X251068Y1232542D01*
X239447Y1247687D01*
X224303Y1259308D01*
X206666Y1266613D01*
X187740Y1269105D01*
D02*
G37*
G36*
X3654500Y1622500D02*
X3457500D01*
Y1468758D01*
X3230532Y1241790D01*
X3223902Y1231866D01*
X3221573Y1220161D01*
X3221573Y1220160D01*
Y932149D01*
X3118511Y829086D01*
X2975870D01*
X2971010Y840819D01*
X2988129Y857939D01*
X2988130Y857939D01*
X2994182Y866997D01*
X3041501D01*
Y956997D01*
X2939787D01*
Y1116999D01*
X2964726D01*
X2967681Y1116412D01*
X2970636Y1116999D01*
X3041501D01*
Y1206999D01*
X2997088D01*
Y1222919D01*
X2994760Y1234624D01*
X2988130Y1244547D01*
X2891210Y1341467D01*
X2881286Y1348098D01*
X2869581Y1350426D01*
X2869580Y1350426D01*
X2707917D01*
X2707916Y1350426D01*
X2696211Y1348098D01*
X2686287Y1341467D01*
X2352912Y1008092D01*
X2313465D01*
X2301665Y1019893D01*
X2294898Y1022695D01*
X2291918Y1037676D01*
X2561628Y1307386D01*
X2561629Y1307386D01*
X2568259Y1317310D01*
X2570588Y1329015D01*
Y1430221D01*
X2578019Y1432213D01*
X2600480Y1445180D01*
X2618820Y1463520D01*
X2631787Y1485981D01*
X2638500Y1511032D01*
Y1536968D01*
X2631787Y1562019D01*
X2618820Y1584480D01*
X2600480Y1602820D01*
X2578019Y1615787D01*
X2552968Y1622500D01*
X2527032D01*
X2501981Y1615787D01*
X2479520Y1602820D01*
X2461180Y1584480D01*
X2448213Y1562019D01*
X2441500Y1536968D01*
Y1511032D01*
X2448213Y1485981D01*
X2461180Y1463520D01*
X2479520Y1445180D01*
X2501981Y1432213D01*
X2509412Y1430221D01*
Y1341685D01*
X2333402Y1165675D01*
X2321668Y1170535D01*
Y1431583D01*
X2324019Y1432213D01*
X2346480Y1445180D01*
X2364820Y1463520D01*
X2377787Y1485981D01*
X2384500Y1511032D01*
Y1536968D01*
X2377787Y1562019D01*
X2364820Y1584480D01*
X2346480Y1602820D01*
X2324019Y1615787D01*
X2298968Y1622500D01*
X2273032D01*
X2247981Y1615787D01*
X2225520Y1602820D01*
X2207180Y1584480D01*
X2194213Y1562019D01*
X2187500Y1536968D01*
Y1511032D01*
X2194213Y1485981D01*
X2207180Y1463520D01*
X2225520Y1445180D01*
X2247981Y1432213D01*
X2260493Y1428860D01*
Y1154263D01*
X2209901Y1103672D01*
X2198168Y1108532D01*
Y1388419D01*
X2198168Y1388420D01*
X2195839Y1400125D01*
X2189209Y1410049D01*
X2119940Y1479317D01*
X2123787Y1485981D01*
X2130500Y1511032D01*
Y1536968D01*
X2123787Y1562019D01*
X2110820Y1584480D01*
X2092480Y1602820D01*
X2070019Y1615787D01*
X2044968Y1622500D01*
X2019032D01*
X1993981Y1615787D01*
X1971520Y1602820D01*
X1953180Y1584480D01*
X1940213Y1562019D01*
X1933500Y1536968D01*
Y1511032D01*
X1940213Y1485981D01*
X1953180Y1463520D01*
X1971520Y1445180D01*
X1993981Y1432213D01*
X2019032Y1425500D01*
X2044968D01*
X2070019Y1432213D01*
X2076683Y1436060D01*
X2136992Y1375750D01*
Y1101466D01*
X1924305Y888779D01*
X1915770Y883076D01*
X1875440Y842746D01*
X1868375Y832173D01*
X1865895Y819701D01*
X1868375Y807230D01*
X1875440Y796657D01*
X1879959Y793637D01*
X1888632Y784349D01*
X1888632Y784349D01*
X1888633Y784349D01*
X1910590Y762392D01*
X1903727Y752122D01*
X1901247Y739651D01*
X1901247Y739646D01*
X1898485Y736884D01*
X1886013Y734403D01*
X1875440Y727338D01*
X1868376Y716765D01*
X1865895Y704294D01*
X1863128Y701527D01*
X1850656Y699046D01*
X1840083Y691982D01*
X1833019Y681409D01*
X1830538Y668937D01*
X1827775Y666174D01*
X1827772Y666175D01*
X1815300Y663695D01*
X1804727Y656630D01*
X1797662Y646057D01*
X1795182Y633585D01*
X1792414Y630818D01*
X1779943Y628338D01*
X1769370Y621273D01*
X1762305Y610700D01*
X1759825Y598228D01*
X1759825Y598224D01*
X1757063Y595462D01*
X1744591Y592981D01*
X1734018Y585916D01*
X1726953Y575343D01*
X1724473Y562872D01*
X1721706Y560105D01*
X1709234Y557624D01*
X1698661Y550559D01*
X1691597Y539986D01*
X1689116Y527515D01*
X1686353Y524752D01*
X1686349Y524753D01*
X1673878Y522273D01*
X1664000Y515672D01*
X1654122Y522273D01*
X1641650Y524753D01*
X1641646Y524753D01*
X1638883Y527515D01*
X1636403Y539986D01*
X1629338Y550559D01*
X1618765Y557624D01*
X1606294Y560105D01*
X1603531Y562868D01*
X1603532Y562872D01*
X1601051Y575343D01*
X1593986Y585916D01*
X1583413Y592981D01*
X1570942Y595462D01*
X1558470Y592981D01*
X1547897Y585916D01*
X1507567Y545586D01*
X1501864Y537052D01*
X1347751Y382939D01*
X1308312D01*
X1304460Y395639D01*
X1307713Y397812D01*
X1474409Y564508D01*
X1482943Y570210D01*
X1523273Y610540D01*
X1530338Y621113D01*
X1532818Y633585D01*
X1530338Y646057D01*
X1523273Y656630D01*
X1512700Y663695D01*
X1500228Y666175D01*
X1497466Y668937D01*
X1494986Y681409D01*
X1487921Y691982D01*
X1477348Y699046D01*
X1464877Y701527D01*
X1462110Y704294D01*
X1459629Y716765D01*
X1452564Y727338D01*
X1441991Y734403D01*
X1429520Y736884D01*
X1426753Y739651D01*
X1424272Y752122D01*
X1417672Y762000D01*
X1424272Y771878D01*
X1426753Y784349D01*
X1429516Y787112D01*
X1429520Y787111D01*
X1441991Y789592D01*
X1452564Y796657D01*
X1459629Y807230D01*
X1462110Y819701D01*
X1464877Y822468D01*
X1477348Y824949D01*
X1487921Y832013D01*
X1494986Y842586D01*
X1497466Y855058D01*
X1497466Y855062D01*
X1500228Y857825D01*
X1512700Y860305D01*
X1523273Y867370D01*
X1530338Y877943D01*
X1532818Y890415D01*
X1535585Y893182D01*
X1548057Y895662D01*
X1558630Y902727D01*
X1565694Y913300D01*
X1568175Y925771D01*
X1570938Y928534D01*
X1570942Y928533D01*
X1583413Y931014D01*
X1593986Y938079D01*
X1601051Y948652D01*
X1603532Y961123D01*
X1603531Y961128D01*
X1606293Y963890D01*
X1618765Y966371D01*
X1629338Y973435D01*
X1636403Y984008D01*
X1638883Y996480D01*
X1641650Y999247D01*
X1654122Y1001727D01*
X1664000Y1008328D01*
X1673878Y1001727D01*
X1686349Y999247D01*
X1689116Y996480D01*
X1691597Y984008D01*
X1698661Y973435D01*
X1709234Y966371D01*
X1721706Y963890D01*
X1724473Y961123D01*
X1726953Y948652D01*
X1734018Y938079D01*
X1744591Y931014D01*
X1757063Y928533D01*
X1769535Y931014D01*
X1780108Y938079D01*
X1820438Y978409D01*
X1826139Y986941D01*
X1833637Y994439D01*
X1855116D01*
X1864652Y984904D01*
Y971616D01*
X1850388Y957352D01*
X1845057Y953790D01*
X1804727Y913460D01*
X1797662Y902887D01*
X1795181Y890415D01*
X1797662Y877943D01*
X1804727Y867370D01*
X1815300Y860305D01*
X1827771Y857825D01*
X1840243Y860305D01*
X1850816Y867370D01*
X1891146Y907700D01*
X1898211Y918273D01*
X1898307Y918756D01*
X1916867Y937316D01*
X1916868Y937317D01*
X1923499Y947240D01*
X1925827Y958946D01*
X1925827Y958947D01*
Y984904D01*
X1937627Y996704D01*
X1945239Y1015081D01*
Y1034973D01*
X1940827Y1045625D01*
X1949245Y1058325D01*
X2018260D01*
X2018262Y1058325D01*
X2029967Y1060653D01*
X2039891Y1067284D01*
X2075434Y1102827D01*
X2102176D01*
Y1302827D01*
X2032176D01*
Y1146085D01*
X2005592Y1119500D01*
X1912175D01*
Y1302827D01*
X1842175D01*
Y1169446D01*
X1793372D01*
X1793371Y1169446D01*
X1781665Y1167118D01*
X1771742Y1160487D01*
X1712169Y1100914D01*
X1703634Y1095212D01*
X1664000Y1055577D01*
X1631910Y1087666D01*
Y1334648D01*
X1733318Y1436059D01*
X1739981Y1432213D01*
X1765032Y1425500D01*
X1790968D01*
X1816019Y1432213D01*
X1838480Y1445180D01*
X1856820Y1463520D01*
X1869787Y1485981D01*
X1876500Y1511032D01*
Y1536968D01*
X1869787Y1562019D01*
X1856820Y1584480D01*
X1838480Y1602820D01*
X1816019Y1615787D01*
X1790968Y1622500D01*
X1765032D01*
X1739981Y1615787D01*
X1717520Y1602820D01*
X1699180Y1584480D01*
X1686213Y1562019D01*
X1679500Y1536968D01*
Y1511032D01*
X1686213Y1485981D01*
X1690060Y1479316D01*
X1579695Y1368947D01*
X1579694Y1368946D01*
X1573063Y1359023D01*
X1570735Y1347317D01*
X1570735Y1347316D01*
Y1104800D01*
X1558035Y1098012D01*
X1554588Y1100315D01*
Y1430221D01*
X1562019Y1432213D01*
X1584480Y1445180D01*
X1602820Y1463520D01*
X1615787Y1485981D01*
X1622500Y1511032D01*
Y1536968D01*
X1615787Y1562019D01*
X1602820Y1584480D01*
X1584480Y1602820D01*
X1562019Y1615787D01*
X1536968Y1622500D01*
X1511032D01*
X1485981Y1615787D01*
X1463520Y1602820D01*
X1445180Y1584480D01*
X1432213Y1562019D01*
X1425500Y1536968D01*
Y1511032D01*
X1432213Y1485981D01*
X1445180Y1463520D01*
X1463520Y1445180D01*
X1485981Y1432213D01*
X1493412Y1430221D01*
Y1098504D01*
X1481679Y1093644D01*
X1300588Y1274735D01*
Y1430221D01*
X1308019Y1432213D01*
X1330480Y1445180D01*
X1348820Y1463520D01*
X1361787Y1485981D01*
X1368500Y1511032D01*
Y1536968D01*
X1361787Y1562019D01*
X1348820Y1584480D01*
X1330480Y1602820D01*
X1308019Y1615787D01*
X1282968Y1622500D01*
X1257032D01*
X1231981Y1615787D01*
X1209520Y1602820D01*
X1191180Y1584480D01*
X1178213Y1562019D01*
X1171500Y1536968D01*
Y1511032D01*
X1178213Y1485981D01*
X1191180Y1463520D01*
X1209520Y1445180D01*
X1231981Y1432213D01*
X1239412Y1430221D01*
Y1281796D01*
X1227679Y1276935D01*
X1073324Y1431290D01*
X1074271Y1443905D01*
X1076480Y1445180D01*
X1094820Y1463520D01*
X1107787Y1485981D01*
X1114500Y1511032D01*
Y1536968D01*
X1107787Y1562019D01*
X1094820Y1584480D01*
X1076480Y1602820D01*
X1054019Y1615787D01*
X1028968Y1622500D01*
X1003032D01*
X977981Y1615787D01*
X955520Y1602820D01*
X937180Y1584480D01*
X924213Y1562019D01*
X917500Y1536968D01*
Y1511032D01*
X924213Y1485981D01*
X930538Y1475025D01*
X923205Y1462325D01*
X866933D01*
X849940Y1479317D01*
X853787Y1485981D01*
X860500Y1511032D01*
Y1536968D01*
X853787Y1562019D01*
X840820Y1584480D01*
X822480Y1602820D01*
X800019Y1615787D01*
X774968Y1622500D01*
X749032D01*
X723981Y1615787D01*
X701520Y1602820D01*
X683180Y1584480D01*
X670213Y1562019D01*
X663500Y1536968D01*
Y1511032D01*
X670213Y1485981D01*
X683180Y1463520D01*
X701520Y1445180D01*
X723981Y1432213D01*
X749032Y1425500D01*
X774968D01*
X800019Y1432213D01*
X806683Y1436060D01*
X820235Y1422508D01*
X814974Y1409808D01*
X678978D01*
X600425Y1488361D01*
X606500Y1511032D01*
Y1536968D01*
X599787Y1562019D01*
X586820Y1584480D01*
X568480Y1602820D01*
X546019Y1615787D01*
X520968Y1622500D01*
X495032D01*
X469981Y1615787D01*
X447520Y1602820D01*
X429180Y1584480D01*
X416213Y1562019D01*
X409500Y1536968D01*
Y1511032D01*
X416213Y1485981D01*
X429180Y1463520D01*
X438773Y1453927D01*
X433512Y1441227D01*
X380030D01*
X341940Y1479317D01*
X345787Y1485981D01*
X352500Y1511032D01*
Y1536968D01*
X345787Y1562019D01*
X332820Y1584480D01*
X314480Y1602820D01*
X292019Y1615787D01*
X266968Y1622500D01*
X241032D01*
X215981Y1615787D01*
X193520Y1602820D01*
X175180Y1584480D01*
X162213Y1562019D01*
X155500Y1536968D01*
Y1511032D01*
X162213Y1485981D01*
X175180Y1463520D01*
X181396Y1457304D01*
X176536Y1445571D01*
X121687D01*
X87940Y1479317D01*
X91787Y1485981D01*
X98500Y1511032D01*
Y1536968D01*
X91787Y1562019D01*
X78820Y1584480D01*
X60480Y1602820D01*
X38019Y1615787D01*
X12968Y1622500D01*
X-12968D01*
X-38019Y1615787D01*
X-60480Y1602820D01*
X-78820Y1584480D01*
X-91787Y1562019D01*
X-98500Y1536968D01*
Y1511032D01*
X-91787Y1485981D01*
X-78820Y1463520D01*
X-60480Y1445180D01*
X-38019Y1432213D01*
X-12968Y1425500D01*
X12968D01*
X38019Y1432213D01*
X44683Y1436060D01*
X87387Y1393355D01*
X87388Y1393354D01*
X97311Y1386724D01*
X109017Y1384396D01*
X277738D01*
X313122Y1349012D01*
X313123Y1349011D01*
X323046Y1342381D01*
X334752Y1340052D01*
X549081D01*
X628062Y1261071D01*
X637986Y1254441D01*
X649691Y1252112D01*
X649693Y1252112D01*
X883142D01*
X1325085Y810170D01*
X1330788Y801635D01*
X1370423Y762000D01*
X1330788Y722365D01*
X1325085Y713831D01*
X1308901Y697646D01*
X1296908D01*
X1285203Y695318D01*
X1275279Y688687D01*
X1228411Y641818D01*
X1220375D01*
X1216821Y640346D01*
X1204121Y648832D01*
Y660184D01*
X1196509Y678561D01*
X1196174Y678896D01*
Y771441D01*
X1199049Y774316D01*
X1206661Y792693D01*
Y812584D01*
X1199049Y830961D01*
X1184984Y845027D01*
X1166607Y852638D01*
X1146715D01*
X1128338Y845027D01*
X1114273Y830961D01*
X1106661Y812584D01*
Y792693D01*
X1114273Y774316D01*
X1114607Y773981D01*
Y681436D01*
X1111733Y678561D01*
X1104121Y660184D01*
Y640293D01*
X1111733Y621916D01*
X1125798Y607850D01*
X1144175Y600239D01*
X1164067D01*
X1167621Y601711D01*
X1180321Y593225D01*
Y581873D01*
X1182553Y576484D01*
X1147195Y541126D01*
X971717D01*
X971716Y541126D01*
X960011Y538798D01*
X950087Y532167D01*
X950086Y532167D01*
X816806Y398886D01*
X694382D01*
X694381Y398886D01*
X682676Y396558D01*
X672752Y389927D01*
X589482Y306658D01*
X276070D01*
X268879Y305227D01*
X263022Y309589D01*
X259516Y313516D01*
X258651Y315156D01*
X260865Y331978D01*
X258374Y350904D01*
X251068Y368541D01*
X239447Y383686D01*
X224303Y395307D01*
X206666Y402612D01*
X187740Y405104D01*
X82740D01*
X63813Y402612D01*
X46177Y395307D01*
X31032Y383686D01*
X19411Y368541D01*
X12106Y350904D01*
X9614Y331978D01*
X12106Y313052D01*
X19411Y295415D01*
X31032Y280270D01*
X46177Y268649D01*
X63813Y261344D01*
X82740Y258852D01*
X187740D01*
X199134Y260353D01*
X205066Y248324D01*
X44683Y87940D01*
X38019Y91787D01*
X12968Y98500D01*
X-12968D01*
X-38019Y91787D01*
X-60480Y78820D01*
X-78820Y60480D01*
X-91787Y38019D01*
X-98500Y12968D01*
Y-12968D01*
X-91787Y-38019D01*
X-78820Y-60480D01*
X-60480Y-78820D01*
X-38019Y-91787D01*
X-12968Y-98500D01*
X12968D01*
X38019Y-91787D01*
X60480Y-78820D01*
X78820Y-60480D01*
X91787Y-38019D01*
X98500Y-12968D01*
Y12968D01*
X91787Y38019D01*
X87940Y44683D01*
X288740Y245482D01*
X563784D01*
X566311Y232782D01*
X554298Y227807D01*
X540233Y213741D01*
X532621Y195364D01*
Y175473D01*
X540233Y157096D01*
X554298Y143030D01*
X572675Y135419D01*
X582200D01*
X587461Y122719D01*
X552683Y87940D01*
X546019Y91787D01*
X520968Y98500D01*
X495032D01*
X469981Y91787D01*
X447520Y78820D01*
X429180Y60480D01*
X416213Y38019D01*
X409500Y12968D01*
Y-12968D01*
X416213Y-38019D01*
X429180Y-60480D01*
X447520Y-78820D01*
X469981Y-91787D01*
X495032Y-98500D01*
X520968D01*
X546019Y-91787D01*
X568480Y-78820D01*
X586820Y-60480D01*
X599787Y-38019D01*
X606500Y-12968D01*
Y12968D01*
X599787Y38019D01*
X595940Y44683D01*
X761830Y210572D01*
X772596Y203378D01*
X771381Y200444D01*
Y180553D01*
X778993Y162176D01*
X793058Y148110D01*
X811435Y140499D01*
X831327D01*
X849704Y148110D01*
X863769Y162176D01*
X871381Y180553D01*
Y197241D01*
X995903Y321763D01*
X1029561D01*
X1034421Y310030D01*
X810264Y85873D01*
X800019Y91787D01*
X774968Y98500D01*
X749032D01*
X723981Y91787D01*
X701520Y78820D01*
X683180Y60480D01*
X670213Y38019D01*
X663500Y12968D01*
Y-12968D01*
X670213Y-38019D01*
X683180Y-60480D01*
X701520Y-78820D01*
X723981Y-91787D01*
X749032Y-98500D01*
X774968D01*
X800019Y-91787D01*
X822480Y-78820D01*
X840820Y-60480D01*
X853787Y-38019D01*
X860500Y-12968D01*
Y12968D01*
X853787Y38019D01*
X852008Y41101D01*
X1082577Y271671D01*
X1220941D01*
X1225801Y259938D01*
X1056322Y90458D01*
X1054019Y91787D01*
X1028968Y98500D01*
X1003032D01*
X977981Y91787D01*
X955520Y78820D01*
X937180Y60480D01*
X924213Y38019D01*
X917500Y12968D01*
Y-12968D01*
X924213Y-38019D01*
X937180Y-60480D01*
X955520Y-78820D01*
X977981Y-91787D01*
X1003032Y-98500D01*
X1028968D01*
X1054019Y-91787D01*
X1076480Y-78820D01*
X1094820Y-60480D01*
X1107787Y-38019D01*
X1114500Y-12968D01*
Y12968D01*
X1107787Y38019D01*
X1101423Y49043D01*
X1275790Y223411D01*
X1403484D01*
X1403486Y223411D01*
X1415191Y225739D01*
X1425114Y232370D01*
X1615831Y423086D01*
X1624365Y428789D01*
X1664000Y468423D01*
X1679583Y452840D01*
X1314683Y87940D01*
X1308019Y91787D01*
X1282968Y98500D01*
X1257032D01*
X1231981Y91787D01*
X1209520Y78820D01*
X1191180Y60480D01*
X1178213Y38019D01*
X1171500Y12968D01*
Y-12968D01*
X1178213Y-38019D01*
X1191180Y-60480D01*
X1209520Y-78820D01*
X1231981Y-91787D01*
X1257032Y-98500D01*
X1282968D01*
X1308019Y-91787D01*
X1330480Y-78820D01*
X1348820Y-60480D01*
X1361787Y-38019D01*
X1368500Y-12968D01*
Y12968D01*
X1361787Y38019D01*
X1357940Y44683D01*
X1731370Y418112D01*
X1738821Y415974D01*
X1744070Y410899D01*
Y263327D01*
X1568683Y87940D01*
X1562019Y91787D01*
X1536968Y98500D01*
X1511032D01*
X1485981Y91787D01*
X1463520Y78820D01*
X1445180Y60480D01*
X1432213Y38019D01*
X1425500Y12968D01*
Y-12968D01*
X1432213Y-38019D01*
X1445180Y-60480D01*
X1463520Y-78820D01*
X1485981Y-91787D01*
X1511032Y-98500D01*
X1536968D01*
X1562019Y-91787D01*
X1584480Y-78820D01*
X1602820Y-60480D01*
X1615787Y-38019D01*
X1622500Y-12968D01*
Y12968D01*
X1615787Y38019D01*
X1611940Y44683D01*
X1772336Y205079D01*
X1784070Y200219D01*
Y98500D01*
X1765032D01*
X1739981Y91787D01*
X1717520Y78820D01*
X1699180Y60480D01*
X1686213Y38019D01*
X1679500Y12968D01*
Y-12968D01*
X1686213Y-38019D01*
X1699180Y-60480D01*
X1717520Y-78820D01*
X1739981Y-91787D01*
X1765032Y-98500D01*
X1790968D01*
X1816019Y-91787D01*
X1838480Y-78820D01*
X1856820Y-60480D01*
X1869787Y-38019D01*
X1876500Y-12968D01*
Y12968D01*
X1869787Y38019D01*
X1856820Y60480D01*
X1844967Y72333D01*
X1845245Y73731D01*
Y126904D01*
X1856978Y131764D01*
X1944060Y44683D01*
X1940213Y38019D01*
X1933500Y12968D01*
Y-12968D01*
X1940213Y-38019D01*
X1953180Y-60480D01*
X1971520Y-78820D01*
X1993981Y-91787D01*
X2019032Y-98500D01*
X2044968D01*
X2070019Y-91787D01*
X2092480Y-78820D01*
X2110820Y-60480D01*
X2123787Y-38019D01*
X2130500Y-12968D01*
Y12968D01*
X2123787Y38019D01*
X2110820Y60480D01*
X2092480Y78820D01*
X2070019Y91787D01*
X2044968Y98500D01*
X2019032D01*
X1993981Y91787D01*
X1987317Y87940D01*
X1893369Y181889D01*
Y196861D01*
X1906069Y199387D01*
X1906753Y197736D01*
X1920818Y183670D01*
X1939195Y176059D01*
X1959087D01*
X1977464Y183670D01*
X1991529Y197736D01*
X1993068Y201451D01*
X2006814D01*
X2008353Y197736D01*
X2022418Y183670D01*
X2040795Y176059D01*
X2060687D01*
X2079064Y183670D01*
X2093129Y197736D01*
X2095347Y203091D01*
X3371540D01*
X3371541Y203091D01*
X3383246Y205419D01*
X3393170Y212050D01*
X3476989Y295869D01*
X3476990Y295870D01*
X3483620Y305793D01*
X3485949Y317498D01*
Y497837D01*
X3485949Y497838D01*
X3483620Y509544D01*
X3476990Y519467D01*
X3356409Y640049D01*
Y779808D01*
X3476990Y900390D01*
X3483620Y910313D01*
X3485949Y922018D01*
X3485949Y922020D01*
Y1150996D01*
X3497749Y1162796D01*
X3505361Y1181173D01*
Y1201064D01*
X3497749Y1219442D01*
X3483684Y1233507D01*
X3465307Y1241119D01*
X3445415D01*
X3427038Y1233507D01*
X3412973Y1219442D01*
X3405361Y1201064D01*
Y1181173D01*
X3412973Y1162796D01*
X3424773Y1150996D01*
Y934689D01*
X3304192Y814107D01*
X3297562Y804184D01*
X3295233Y792478D01*
X3295233Y792477D01*
Y627380D01*
X3295233Y627378D01*
X3297562Y615673D01*
X3304192Y605750D01*
X3382209Y527732D01*
X3377818Y514163D01*
X3373732Y513505D01*
X3313610Y573627D01*
X3303687Y580257D01*
X3291981Y582586D01*
X3291980Y582586D01*
X3121952D01*
X3117291Y595286D01*
X3124361Y612353D01*
Y632244D01*
X3116749Y650621D01*
X3102684Y664687D01*
X3084307Y672298D01*
X3064415D01*
X3046038Y664687D01*
X3042485Y661134D01*
X3031499Y656998D01*
X3031498Y656998D01*
Y656998D01*
X3031498Y656998D01*
X2926498D01*
Y582586D01*
X2622000D01*
Y648498D01*
X2446001D01*
Y544626D01*
X2336691D01*
X2334165Y557326D01*
X2345764Y562130D01*
X2359829Y576196D01*
X2367441Y594573D01*
Y614464D01*
X2367333Y614725D01*
X2480518Y727911D01*
X3147748D01*
X3147749Y727910D01*
X3159454Y730239D01*
X3169378Y736869D01*
X3314430Y881921D01*
X3321060Y891845D01*
X3323389Y903550D01*
X3323389Y903551D01*
Y1160808D01*
X3453699Y1291119D01*
X3470387D01*
X3488764Y1298730D01*
X3502829Y1312796D01*
X3510441Y1331173D01*
Y1351064D01*
X3502829Y1369441D01*
X3488764Y1383507D01*
X3480251Y1387033D01*
X3477271Y1402013D01*
X3500758Y1425500D01*
X3654500D01*
Y1622500D01*
D02*
G37*
G36*
X790329Y1181242D02*
X790328Y1181242D01*
X437288D01*
X421681Y1178138D01*
X408450Y1169297D01*
X408449Y1169296D01*
X298916Y1059763D01*
X236741D01*
X232801Y1058979D01*
X137240D01*
Y1063917D01*
X128867Y1084132D01*
X113395Y1099604D01*
X93180Y1107977D01*
X71300D01*
X51085Y1099604D01*
X35614Y1084132D01*
X27240Y1063917D01*
Y1042037D01*
X35614Y1021822D01*
X51085Y1006351D01*
X61662Y1001970D01*
X64641Y986989D01*
X-9065Y913283D01*
X-17905Y900052D01*
X-21010Y884445D01*
X-21010Y884443D01*
Y874239D01*
X-26187Y869061D01*
X-33799Y850684D01*
Y830793D01*
X-26187Y812416D01*
X-24583Y810811D01*
Y655453D01*
X-24583Y655452D01*
X-21478Y639845D01*
X-12638Y626613D01*
X72263Y541713D01*
X67577Y528438D01*
X51085Y521607D01*
X35614Y506135D01*
X27240Y485920D01*
Y464040D01*
X35614Y443825D01*
X51085Y428353D01*
X71300Y419980D01*
X93180D01*
X113395Y428353D01*
X128867Y443825D01*
X137240Y464040D01*
Y468978D01*
X319241D01*
Y558393D01*
X444753D01*
X513800Y489342D01*
Y432600D01*
X603800D01*
Y532600D01*
X557058D01*
X485362Y604299D01*
X490623Y616999D01*
X622120D01*
X624061Y614094D01*
X676593Y561562D01*
X676594Y561561D01*
X689825Y552721D01*
X705432Y549616D01*
X705433Y549616D01*
X934194D01*
X934195Y549616D01*
X949803Y552721D01*
X963034Y561561D01*
X1004037Y602565D01*
X1004038Y602565D01*
X1012879Y615797D01*
X1015983Y631404D01*
Y885989D01*
X1015983Y885991D01*
X1012879Y901598D01*
X1004038Y914829D01*
X1004037Y914830D01*
X946654Y972213D01*
X933423Y981054D01*
X917816Y984158D01*
X917815Y984158D01*
X888038D01*
X854544Y1017652D01*
Y1117027D01*
X851440Y1132634D01*
X842599Y1145865D01*
X842599Y1145866D01*
X819168Y1169297D01*
X805937Y1178138D01*
X803347Y1178653D01*
X790329Y1181242D01*
D02*
G37*
G36*
X3770107Y1386038D02*
X3750215D01*
X3731838Y1378427D01*
X3717773Y1364361D01*
X3710161Y1345984D01*
Y1326093D01*
X3717773Y1307716D01*
X3728873Y1296615D01*
Y913668D01*
X3669902Y854697D01*
X3660989Y859843D01*
X3634284Y866998D01*
X3606637D01*
X3579932Y859843D01*
X3555990Y846019D01*
X3536440Y826470D01*
X3522617Y802527D01*
X3515461Y775822D01*
Y748175D01*
X3522617Y721470D01*
X3536440Y697527D01*
X3555990Y677978D01*
X3579932Y664154D01*
X3606637Y656999D01*
X3634284D01*
X3660989Y664154D01*
X3684932Y677978D01*
X3704482Y697527D01*
X3718305Y721470D01*
X3725461Y748175D01*
Y775822D01*
X3718305Y802527D01*
X3713159Y811439D01*
X3781090Y879370D01*
X3787720Y889293D01*
X3790049Y900998D01*
X3790049Y901000D01*
Y933958D01*
X3802749Y939219D01*
X3809990Y931978D01*
X3833932Y918154D01*
X3860637Y910999D01*
X3888284D01*
X3914989Y918154D01*
X3938932Y931978D01*
X3958482Y951527D01*
X3972305Y975470D01*
X3979461Y1002175D01*
Y1029822D01*
X3972305Y1056527D01*
X3958482Y1080470D01*
X3938932Y1100019D01*
X3914989Y1113843D01*
X3888284Y1120998D01*
X3860637D01*
X3833932Y1113843D01*
X3809990Y1100019D01*
X3802749Y1092778D01*
X3790049Y1098039D01*
Y1295215D01*
X3802549Y1307716D01*
X3810161Y1326093D01*
Y1345984D01*
X3802549Y1364361D01*
X3788484Y1378427D01*
X3770107Y1386038D01*
D02*
G37*
G36*
X3888284Y866998D02*
X3860637D01*
X3833932Y859843D01*
X3809990Y846019D01*
X3790440Y826470D01*
X3776617Y802527D01*
X3769461Y775822D01*
Y748175D01*
X3776617Y721470D01*
X3790440Y697527D01*
X3809990Y677978D01*
X3833932Y664154D01*
X3860637Y656999D01*
X3888284D01*
X3914989Y664154D01*
X3938932Y677978D01*
X3958482Y697527D01*
X3972305Y721470D01*
X3979461Y748175D01*
Y775822D01*
X3972305Y802527D01*
X3958482Y826470D01*
X3938932Y846019D01*
X3914989Y859843D01*
X3888284Y866998D01*
D02*
G37*
G36*
X3979461Y612998D02*
X3769461D01*
Y402999D01*
X3979461D01*
Y612998D01*
D02*
G37*
G36*
X3634284D02*
X3606637D01*
X3579932Y605843D01*
X3555990Y592019D01*
X3536440Y572470D01*
X3522617Y548527D01*
X3515461Y521822D01*
Y494175D01*
X3522617Y467470D01*
X3536440Y443527D01*
X3555990Y423978D01*
X3579932Y410154D01*
X3606637Y402999D01*
X3634284D01*
X3660989Y410154D01*
X3684932Y423978D01*
X3704482Y443527D01*
X3718305Y467470D01*
X3725461Y494175D01*
Y521822D01*
X3718305Y548527D01*
X3704482Y572470D01*
X3684932Y592019D01*
X3660989Y605843D01*
X3634284Y612998D01*
D02*
G37*
G36*
X3654500Y98500D02*
X3457500D01*
Y-98500D01*
X3654500D01*
Y98500D01*
D02*
G37*
G36*
X3060968D02*
X3035032D01*
X3009981Y91787D01*
X2987520Y78820D01*
X2969180Y60480D01*
X2956213Y38019D01*
X2949500Y12968D01*
Y-12968D01*
X2956213Y-38019D01*
X2969180Y-60480D01*
X2987520Y-78820D01*
X3009981Y-91787D01*
X3035032Y-98500D01*
X3060968D01*
X3086019Y-91787D01*
X3108480Y-78820D01*
X3126820Y-60480D01*
X3139787Y-38019D01*
X3146500Y-12968D01*
Y12968D01*
X3139787Y38019D01*
X3126820Y60480D01*
X3108480Y78820D01*
X3086019Y91787D01*
X3060968Y98500D01*
D02*
G37*
G36*
X2806968D02*
X2781032D01*
X2755981Y91787D01*
X2733520Y78820D01*
X2715180Y60480D01*
X2702213Y38019D01*
X2695500Y12968D01*
Y-12968D01*
X2702213Y-38019D01*
X2715180Y-60480D01*
X2733520Y-78820D01*
X2755981Y-91787D01*
X2781032Y-98500D01*
X2806968D01*
X2832019Y-91787D01*
X2854480Y-78820D01*
X2872820Y-60480D01*
X2885787Y-38019D01*
X2892500Y-12968D01*
Y12968D01*
X2885787Y38019D01*
X2872820Y60480D01*
X2854480Y78820D01*
X2832019Y91787D01*
X2806968Y98500D01*
D02*
G37*
G36*
X2552968D02*
X2527032D01*
X2501981Y91787D01*
X2479520Y78820D01*
X2461180Y60480D01*
X2448213Y38019D01*
X2441500Y12968D01*
Y-12968D01*
X2448213Y-38019D01*
X2461180Y-60480D01*
X2479520Y-78820D01*
X2501981Y-91787D01*
X2527032Y-98500D01*
X2552968D01*
X2578019Y-91787D01*
X2600480Y-78820D01*
X2618820Y-60480D01*
X2631787Y-38019D01*
X2638500Y-12968D01*
Y12968D01*
X2631787Y38019D01*
X2618820Y60480D01*
X2600480Y78820D01*
X2578019Y91787D01*
X2552968Y98500D01*
D02*
G37*
G36*
X2298968D02*
X2273032D01*
X2247981Y91787D01*
X2225520Y78820D01*
X2207180Y60480D01*
X2194213Y38019D01*
X2187500Y12968D01*
Y-12968D01*
X2194213Y-38019D01*
X2207180Y-60480D01*
X2225520Y-78820D01*
X2247981Y-91787D01*
X2273032Y-98500D01*
X2298968D01*
X2324019Y-91787D01*
X2346480Y-78820D01*
X2364820Y-60480D01*
X2377787Y-38019D01*
X2384500Y-12968D01*
Y12968D01*
X2377787Y38019D01*
X2364820Y60480D01*
X2346480Y78820D01*
X2324019Y91787D01*
X2298968Y98500D01*
D02*
G37*
G36*
X266968D02*
X241032D01*
X215981Y91787D01*
X193520Y78820D01*
X175180Y60480D01*
X162213Y38019D01*
X155500Y12968D01*
Y-12968D01*
X162213Y-38019D01*
X175180Y-60480D01*
X193520Y-78820D01*
X215981Y-91787D01*
X241032Y-98500D01*
X266968D01*
X292019Y-91787D01*
X314480Y-78820D01*
X332820Y-60480D01*
X345787Y-38019D01*
X352500Y-12968D01*
Y12968D01*
X345787Y38019D01*
X332820Y60480D01*
X314480Y78820D01*
X292019Y91787D01*
X266968Y98500D01*
D02*
G37*
%LPD*%
G36*
X2785864Y1276550D02*
X2783061Y1269784D01*
Y1249893D01*
X2790673Y1231516D01*
X2796104Y1226084D01*
Y1216616D01*
X2796104Y1216615D01*
X2799209Y1201008D01*
X2808049Y1187777D01*
X2846504Y1149323D01*
Y1116999D01*
X2858220D01*
Y956997D01*
X2846504D01*
Y869086D01*
X2327271D01*
X2319181Y877176D01*
Y893864D01*
X2311569Y912241D01*
X2302213Y921597D01*
X2301718Y933802D01*
X2303476Y936928D01*
X2313465Y946917D01*
X2365581D01*
X2365582Y946917D01*
X2377288Y949245D01*
X2387211Y955876D01*
X2720586Y1289251D01*
X2777378D01*
X2785864Y1276550D01*
D02*
G37*
G36*
X3330455Y470267D02*
X3329161Y467144D01*
Y447253D01*
X3336773Y428876D01*
X3350838Y414810D01*
X3369215Y407199D01*
X3389107D01*
X3407484Y414810D01*
X3412073Y419400D01*
X3424773Y414139D01*
Y330168D01*
X3358871Y264266D01*
X2937959D01*
X2936708Y276966D01*
X2945633Y278742D01*
X2955556Y285372D01*
X2978127Y307943D01*
X2984179Y317001D01*
X3031498D01*
Y407001D01*
X2926498D01*
Y349957D01*
X2925910Y347001D01*
X2918087Y337589D01*
X2318412D01*
X2316641Y339360D01*
Y345224D01*
X2309029Y363601D01*
X2294964Y377667D01*
X2276587Y385278D01*
X2256695D01*
X2238318Y377667D01*
X2224253Y363601D01*
X2216641Y345224D01*
Y325333D01*
X2224253Y306956D01*
X2238318Y292890D01*
X2256695Y285279D01*
X2276587D01*
X2281975Y287510D01*
X2284114Y285372D01*
X2294037Y278742D01*
X2302961Y276966D01*
X2301710Y264266D01*
X2083244D01*
X2079064Y268447D01*
X2060687Y276058D01*
X2040795D01*
X2022418Y268447D01*
X2008353Y254381D01*
X2006814Y250666D01*
X1993068D01*
X1991529Y254381D01*
X1982269Y263642D01*
Y470576D01*
X1982544Y470690D01*
X1995304Y483451D01*
X2446001D01*
Y455498D01*
X2622000D01*
Y521410D01*
X3279311D01*
X3330455Y470267D01*
D02*
G37*
G36*
X772977Y1000760D02*
X772977Y1000758D01*
X776082Y985151D01*
X784922Y971920D01*
X837147Y919696D01*
X831886Y906996D01*
X695401D01*
Y806996D01*
X855401D01*
Y821651D01*
X868101Y823385D01*
X873577Y817909D01*
X891954Y810297D01*
X911845D01*
X921716Y814386D01*
X934416Y805900D01*
Y716163D01*
X921716Y707677D01*
X915147Y710398D01*
X895255D01*
X876878Y702787D01*
X873476Y699384D01*
X855401D01*
Y716999D01*
X695401D01*
X687424Y726395D01*
X681738Y734905D01*
X681737Y734906D01*
X635805Y780838D01*
X625399Y787791D01*
Y906996D01*
X489246D01*
X484386Y918729D01*
X557056Y991400D01*
X603800D01*
Y1091400D01*
X613072Y1099675D01*
X772977D01*
Y1000760D01*
D02*
G37*
D10*
X1877175Y1202827D02*
D03*
X1972172D02*
D03*
X2067176D02*
D03*
D11*
X226741Y438978D02*
D03*
Y518978D02*
D03*
Y1008979D02*
D03*
Y1088979D02*
D03*
D12*
Y588980D02*
D03*
Y638978D02*
D03*
Y688980D02*
D03*
Y738977D02*
D03*
Y938982D02*
D03*
Y888980D02*
D03*
Y838982D02*
D03*
Y788980D02*
D03*
D13*
X2889001Y611998D02*
D03*
X2978998D02*
D03*
X2899004Y911997D02*
D03*
X2989001D02*
D03*
X2899004Y1161999D02*
D03*
X2989001D02*
D03*
X2978998Y362001D02*
D03*
X2889001D02*
D03*
D14*
X1954002Y719485D02*
D03*
X1918650Y684129D02*
D03*
X1883293Y648772D02*
D03*
X1847937Y613420D02*
D03*
X1812580Y578063D02*
D03*
X1777228Y542707D02*
D03*
X1741871Y507350D02*
D03*
X1706514Y471998D02*
D03*
X1373998Y804515D02*
D03*
X1409355Y839866D02*
D03*
X1444711Y875223D02*
D03*
X1480063Y910580D02*
D03*
X1515420Y945937D02*
D03*
X1550777Y981288D02*
D03*
X1586128Y1016645D02*
D03*
X1621485Y1052002D02*
D03*
D15*
Y471998D02*
D03*
X1586128Y507350D02*
D03*
X1550777Y542707D02*
D03*
X1515420Y578063D02*
D03*
X1480063Y613420D02*
D03*
X1444711Y648772D02*
D03*
X1409355Y684129D02*
D03*
X1373998Y719485D02*
D03*
X1706514Y1052002D02*
D03*
X1741871Y1016645D02*
D03*
X1777228Y981288D02*
D03*
X1812580Y945937D02*
D03*
X1847936Y910580D02*
D03*
X1883293Y875223D02*
D03*
X1918650Y839866D02*
D03*
D16*
X1954002Y804515D02*
D03*
D17*
X1664000Y762000D02*
D03*
D18*
X2534001Y958997D02*
D03*
Y551998D02*
D03*
D19*
X775401Y666999D02*
D03*
Y762000D02*
D03*
Y856996D02*
D03*
X545399D02*
D03*
Y762000D02*
D03*
Y666999D02*
D03*
D20*
X668802Y482600D02*
D03*
X558800D02*
D03*
X668802Y1041400D02*
D03*
X558800D02*
D03*
D21*
X1777228Y981288D02*
X1777228D01*
X1820967Y1025027D02*
X1895239D01*
Y958946D02*
Y1025027D01*
X1777228Y981288D02*
X1820967Y1025027D01*
X1847936Y910580D02*
Y911643D01*
X1895239Y958946D01*
X2067176Y1137827D02*
Y1202827D01*
X2018262Y1088913D02*
X2067176Y1137827D01*
X1814139Y1088913D02*
X2018262D01*
X1741871Y1016645D02*
X1814139Y1088913D01*
X1877175Y1143858D02*
Y1202827D01*
X1706514Y1052002D02*
X1793371Y1138858D01*
X1872175D01*
X1877175Y1143858D01*
X1918650Y839866D02*
X2167580Y1088796D01*
Y1388420D01*
X1954002Y804515D02*
X2291081Y1141594D01*
X1943519Y732534D02*
X2540000Y1329015D01*
X226741Y588980D02*
X457424D01*
X226741Y688980D02*
X493420D01*
X411378Y888980D02*
X558800Y1036401D01*
Y1041400D01*
X226746Y838977D02*
X346400D01*
X527380D01*
X231739Y743976D02*
X318216D01*
X348275Y774035D01*
X346400Y838977D02*
X348275Y837103D01*
Y774035D02*
Y837103D01*
X216743Y788980D02*
X221737Y783981D01*
X221742Y783976D01*
X226741Y788980D01*
X119700Y688980D02*
X226741D01*
Y888980D02*
X411378D01*
X226741Y738977D02*
X231739Y743976D01*
X119278Y788980D02*
X216743D01*
X102560Y772262D02*
X119278Y788980D01*
X102560Y706120D02*
Y772262D01*
Y706120D02*
X119700Y688980D01*
X515396Y666999D02*
X545399D01*
X493420Y688980D02*
X515396Y666999D01*
X558800Y482600D02*
Y487599D01*
X457424Y588980D02*
X558800Y487599D01*
X848633Y274318D02*
X993755Y419441D01*
X782318Y274318D02*
X848633D01*
X508000Y0D02*
X782318Y274318D01*
X971716Y510538D02*
X1159865D01*
X829476Y368298D02*
X971716Y510538D01*
X1159865D02*
X1230321Y580995D01*
Y600471D01*
X1296908Y667058D01*
X1943519Y729968D02*
Y732534D01*
Y729968D02*
X1954002Y719485D01*
X3252161Y919478D02*
Y1220161D01*
X3147749Y758498D02*
X3292801Y903550D01*
X3131181Y798498D02*
X3252161Y919478D01*
X2419317Y798498D02*
X3131181D01*
X3292801Y903550D02*
Y1173478D01*
X2467848Y758498D02*
X3147749D01*
X3325821Y627378D02*
Y792478D01*
X3455361Y922018D02*
Y1191119D01*
X3325821Y792478D02*
X3455361Y922018D01*
X3292801Y1173478D02*
X3460441Y1341118D01*
X2278175Y657356D02*
X2311697Y690878D01*
X3252161Y1220161D02*
X3556000Y1524000D01*
X2311697Y690878D02*
X2419317Y798498D01*
X1951681Y228598D02*
Y510538D01*
X1949141Y226058D02*
X1951681Y228598D01*
Y510538D02*
X1954221Y513078D01*
Y514039D02*
X2496041D01*
X1423795Y627855D02*
X1444711Y648772D01*
X1423795Y624240D02*
Y627855D01*
X1259293Y459738D02*
X1423795Y624240D01*
X993755Y419441D02*
X1286084D01*
X1480063Y613420D01*
X977484Y459738D02*
X1259293D01*
X1321571Y667058D02*
X1373998Y719485D01*
X1321761Y607058D02*
X1331221D01*
X1408292Y684129D02*
X1409355D01*
X1331221Y607058D02*
X1408292Y684129D01*
X1296908Y667058D02*
X1321571D01*
X1722973Y452973D02*
Y455539D01*
X1706514Y471998D02*
X1722973Y455539D01*
X1270000Y0D02*
X1722973Y452973D01*
X846044Y328299D02*
X977484Y459738D01*
X895812Y1282700D02*
X1373998Y804515D01*
X649691Y1282700D02*
X895812D01*
X658002Y1330960D02*
X918261D01*
X578322Y1410640D02*
X658002Y1330960D01*
X666308Y1379220D02*
X940714D01*
X1444711Y875223D01*
X918261Y1330960D02*
X1409355Y839866D01*
X521528Y1524000D02*
X666308Y1379220D01*
X561751Y1370640D02*
X649691Y1282700D01*
X683802Y984061D02*
Y1026400D01*
X717241Y939798D02*
Y950622D01*
X668802Y1041400D02*
X683802Y1026400D01*
Y984061D02*
X717241Y950622D01*
X1883294Y648772D02*
X1927547Y604518D01*
X1883293Y648772D02*
X1883294D01*
X2314601Y838498D02*
X2925431D01*
X2888701Y611998D02*
X2889001D01*
X2925431Y838498D02*
X2966501Y879568D01*
X2873701Y626998D02*
Y698498D01*
X2269181Y883918D02*
X2314601Y838498D01*
X1927547Y604518D02*
X2317441D01*
X2873701Y626998D02*
X2888701Y611998D01*
X2317441Y608091D02*
X2467848Y758498D01*
X2534001Y551998D02*
X3291981D01*
X3379161Y464818D01*
X2317441Y604518D02*
Y608091D01*
X775401Y757178D02*
Y762000D01*
Y757178D02*
X775661Y756918D01*
X2286000Y1524000D02*
X2291081Y1518919D01*
Y1141594D02*
Y1518919D01*
X2226001Y1178558D02*
X2231081D01*
X2032000Y1524000D02*
X2167580Y1388420D01*
X2869581Y1319838D02*
X2966501Y1222919D01*
X2707916Y1319838D02*
X2869581D01*
X2365582Y977505D02*
X2707916Y1319838D01*
X2784801Y899158D02*
X2794961Y888998D01*
X2784801Y899158D02*
Y909318D01*
X2966501Y1148179D02*
Y1222919D01*
Y1148179D02*
X2967681Y1146999D01*
X2273342Y977505D02*
X2365582D01*
X3759461Y900998D02*
Y1335338D01*
X3620461Y761998D02*
X3759461Y900998D01*
Y1335338D02*
X3760161Y1336038D01*
X3394401Y765808D02*
Y789938D01*
X3620461Y1015998D01*
X3455361Y317498D02*
Y497838D01*
X3325821Y627378D02*
X3455361Y497838D01*
X2050741Y226058D02*
X2058361Y233678D01*
X3371541D01*
X1774657Y250657D02*
Y473505D01*
X1524000Y0D02*
X1774657Y250657D01*
X1812580Y578063D02*
X1862781Y527862D01*
Y169219D02*
X2032000Y0D01*
X1862781Y169219D02*
Y527862D01*
X694381Y368298D02*
X829476D01*
X602152Y276070D02*
X694381Y368298D01*
X725501Y328299D02*
X846044D01*
X582621Y185418D02*
X725501Y328299D01*
X0Y0D02*
X276070Y276070D01*
X602152D01*
X1918650Y684129D02*
X1919713D01*
X1946486Y657356D01*
X2278175D01*
X3371541Y233678D02*
X3455361Y317498D01*
X3379161Y457198D02*
Y464818D01*
X2540000Y1329015D02*
Y1524000D01*
X2970838Y361340D02*
X2979659D01*
X2956498Y329572D02*
Y347001D01*
X2933927Y307001D02*
X2956498Y329572D01*
X2305742Y307001D02*
X2933927D01*
X2277465Y335278D02*
X2305742Y307001D01*
X2956498Y347001D02*
X2970838Y361340D01*
X2266641Y335278D02*
X2277465D01*
X2981501Y911997D02*
X2989001D01*
X2966501Y896997D02*
X2981501Y911997D01*
X2966501Y879568D02*
Y896997D01*
X1847937Y613420D02*
X1947318Y514039D01*
X2496041D02*
X2534001Y551998D01*
X3280101Y1502101D02*
X3302000Y1524000D01*
X1643681Y782318D02*
X1664000Y762000D01*
X1519881Y782318D02*
X1643681D01*
X1741871Y506291D02*
Y507350D01*
Y506291D02*
X1774657Y473505D01*
X1403486Y253998D02*
X1621485Y471998D01*
X1263120Y253998D02*
X1403486D01*
X1016000Y6878D02*
X1263120Y253998D01*
X767649Y0D02*
X1069907Y302258D01*
X1381037D02*
X1586128Y507350D01*
X1069907Y302258D02*
X1381037D01*
X821381Y190498D02*
X983233Y352351D01*
X1360421D01*
X1550777Y542707D01*
X762000Y0D02*
X767649D01*
X1016000D02*
Y6878D01*
X1515420Y578063D02*
X1664000Y726643D01*
Y762000D01*
X1770070D02*
X1883293Y875223D01*
X1664000Y762000D02*
X1770070D01*
X1664000D02*
Y797357D01*
X1812580Y945937D01*
X1778000Y37074D02*
X1814657Y73731D01*
Y504215D01*
X1778000Y0D02*
Y37074D01*
X1777228Y541645D02*
X1814657Y504215D01*
X1777228Y541645D02*
Y542707D01*
X334752Y1370640D02*
X561751D01*
X508000Y1524000D02*
X521528D01*
X367360Y1410640D02*
X578322D01*
X290408Y1414983D02*
X334752Y1370640D01*
X254000Y1524000D02*
X367360Y1410640D01*
X109017Y1414983D02*
X290408D01*
X0Y1524000D02*
X109017Y1414983D01*
X854263Y1431737D02*
X958906D01*
X762000Y1524000D02*
X854263Y1431737D01*
X958906D02*
X1480063Y910580D01*
X1601323Y1347318D02*
X1778000Y1524000D01*
X1601323Y1072170D02*
Y1347318D01*
Y1072170D02*
X1621485Y1052002D01*
X1524000Y1078774D02*
Y1524000D01*
Y1078774D02*
X1586128Y1016645D01*
X1270000Y1262065D02*
Y1524000D01*
Y1262065D02*
X1550777Y981288D01*
X1016000Y1524000D02*
X1042213Y1497787D01*
Y1419144D02*
Y1497787D01*
Y1419144D02*
X1515420Y945937D01*
X527380Y838977D02*
X545399Y856996D01*
D22*
X705432Y590400D02*
X934195D01*
X19774Y884445D02*
X134308Y998979D01*
X19774Y844311D02*
Y884445D01*
X16201Y840738D02*
X19774Y844311D01*
X16201Y655452D02*
Y840738D01*
X216741Y528978D02*
X226741Y518978D01*
X142675Y528978D02*
X216741D01*
X16201Y655452D02*
X142675Y528978D01*
X236741Y1018979D02*
X315809D01*
X437288Y1140458D01*
X790329D01*
X813761Y1117027D01*
Y1000758D02*
Y1117027D01*
Y1000758D02*
X871145Y943375D01*
X917816D01*
X975200Y885991D01*
Y631404D02*
Y885991D01*
X934195Y590400D02*
X975200Y631404D01*
X652900Y642932D02*
X705432Y590400D01*
X652900Y642932D02*
Y706067D01*
X606966Y752000D02*
X652900Y706067D01*
X555399Y752000D02*
X606966D01*
X545399Y762000D02*
X555399Y752000D01*
X134308Y998979D02*
X216741D01*
X236741Y1018979D01*
X2836888Y1216615D02*
Y1256012D01*
X2833061Y1259838D02*
X2836888Y1256012D01*
X2891503Y1161999D02*
X2899004D01*
X2836888Y1216615D02*
X2891503Y1161999D01*
X2899004Y911997D02*
Y1161999D01*
X1155391Y651508D02*
Y801368D01*
X1154121Y650238D02*
X1155391Y651508D01*
Y801368D02*
X1156661Y802638D01*
D23*
X3055942Y611998D02*
X3066243Y622298D01*
X3074361D01*
X2978998Y611998D02*
X3055942D01*
X775401Y666999D02*
X778701Y663699D01*
X901901D01*
X905201Y660398D01*
X775401Y856996D02*
X778702Y860297D01*
X901900D01*
D24*
X82240Y474980D02*
D03*
Y1052977D02*
D03*
D25*
X-282763Y331978D02*
D03*
Y1195979D02*
D03*
X135240Y331978D02*
D03*
Y1195979D02*
D03*
D26*
X-285999Y1521998D02*
D03*
X3927800Y1524000D02*
D03*
Y0D02*
D03*
X-285999Y1996D02*
D03*
D27*
X3556000Y0D02*
D03*
Y1524000D02*
D03*
D28*
X3302000Y0D02*
D03*
X3048000D02*
D03*
X2794000D02*
D03*
X2540000D02*
D03*
X2286000D02*
D03*
X2032000D02*
D03*
X1778000D02*
D03*
X1524000D02*
D03*
X1270000D02*
D03*
X1016000D02*
D03*
X762000D02*
D03*
X508000D02*
D03*
X254000D02*
D03*
X0D02*
D03*
X3302000Y1524000D02*
D03*
X3048000D02*
D03*
X2794000D02*
D03*
X2540000D02*
D03*
X2286000D02*
D03*
X2032000D02*
D03*
X1778000D02*
D03*
X1524000D02*
D03*
X1270000D02*
D03*
X1016000D02*
D03*
X762000D02*
D03*
X508000D02*
D03*
X254000D02*
D03*
X0D02*
D03*
D29*
X3620461Y1015998D02*
D03*
Y507998D02*
D03*
Y761998D02*
D03*
X3874461D02*
D03*
Y1015998D02*
D03*
D30*
Y507998D02*
D03*
D31*
X1895239Y1025027D02*
D03*
X1230321Y591818D02*
D03*
X2830521Y373378D02*
D03*
X2754321D02*
D03*
X1949141Y226058D02*
D03*
X1321761Y607058D02*
D03*
X717241Y939798D02*
D03*
X2873701Y698498D02*
D03*
X2311697Y690878D02*
D03*
X775661Y756918D02*
D03*
X1954221Y513078D02*
D03*
X2231081Y1178558D02*
D03*
X3074361Y622298D02*
D03*
X2833061Y1259838D02*
D03*
X2784801Y909318D02*
D03*
X3760161Y1336038D02*
D03*
X3132781Y919478D02*
D03*
X3394401Y765808D02*
D03*
X2050741Y226058D02*
D03*
X1154121Y650238D02*
D03*
X1156661Y802638D02*
D03*
X16201Y840738D02*
D03*
X2317441Y604518D02*
D03*
X3379161Y457198D02*
D03*
X3455361Y1191119D02*
D03*
X2266641Y335278D02*
D03*
X2269181Y883918D02*
D03*
X2273342Y977505D02*
D03*
X905201Y660398D02*
D03*
X901900Y860297D02*
D03*
X3460441Y1341118D02*
D03*
X1578301Y840738D02*
D03*
X1519881Y782318D02*
D03*
X582621Y185418D02*
D03*
X821381Y190498D02*
D03*
%TF.MD5,3b22334376cda4058ef16f67971fb229*%
M02*
