M48
;Layer_Color=9474304
;FILE_FORMAT=4:4
METRIC,LZ
;TYPE=PLATED
T1F00S00C0.3000
T3F00S00C1.0200
T4F00S00C1.1000
%
T01
X00058262Y00018542
X00077566Y00075692
X0000162Y00084074
X0009019Y0008603
X0009052Y0006604
X00115412Y00065024
X00123032Y00059182
X00132176Y00060706
X00115666Y00080264
X00151988Y00078232
X0015783Y00084074
X00195422Y00051308
X00194914Y00022606
X00205074
X00226664Y00033528
X00231744Y00060452
X0023117Y00069088
X00226918Y00088392
X0027848Y00090932
X0028737Y0006985
X00307436Y0006223
X0033944Y00076581
X00337916Y0004572
X00283052Y00037338
X00275432
X00082138Y0001905
X00189524Y00102503
X00227334Y00097751
X00223108Y00117856
X00283306Y00125984
X00313278Y00091948
X00345536Y00119112
X00346044Y00134112
X00376016Y00133604
X00071724Y0009398
T03
X0Y0
X000254
X000508
X000762
X001016
X00127
X001524
X001778
X002032
X002286
X00254
X002794
X003048
X003302
X003556
Y001524
X003302
X003048
X002794
X00254
X002286
X002032
X001778
X001524
X00127
X001016
X000762
X000508
X000254
X0
T04
X00362046Y000508
Y000762
X00387446
Y000508
Y001016
X00362046
M30
